<?xml version="1.0" standalone="no"?>
<!DOCTYPE svg PUBLIC "-//W3C//DTD SVG 1.1//EN" "http://www.w3.org/Graphics/SVG/1.1/DTD/svg11.dtd" >
<svg xmlns="http://www.w3.org/2000/svg">
<metadata></metadata>
<defs>
<font id="sinking_shipregular" horiz-adv-x="1677" >
<font-face units-per-em="2048" ascent="1638" descent="-410" />
<missing-glyph horiz-adv-x="1024" />
<glyph horiz-adv-x="2048" />
<glyph horiz-adv-x="2048" />
<glyph unicode="&#xd;" horiz-adv-x="1024" />
<glyph unicode=" "  horiz-adv-x="1024" />
<glyph unicode="&#x09;" horiz-adv-x="1024" />
<glyph unicode="&#xa0;" horiz-adv-x="1024" />
<glyph unicode="!" horiz-adv-x="747" d="M575 1104zM575 260l-8 -27h-6q6 15 14 27zM567 326q0 -37 -6 -37q2 12 6 37zM567 162zM561 475v-92h-6q0 31 6 92zM561 332zM555 182v-121q-47 0 -47 -8q41 -4 41 -20l-291 6v14l139 -6v14h-291q-27 0 -27.5 8.5t-6.5 26.5h-6v-28h-7q0 115 7 114q0 -29 6 -28q6 14 14 14 q-14 27 -14 51h-6v-8l-7 -21h-6q-4 61 -8 123q-6 98 8 99q0 -43 10 -99q8 4 3 95q-6 119 -7 110h430q45 0 46 -8h8v-121q12 -33 8 -104.5t4 -102.5zM543 717v-49q-8 -6 -15 -6h-172q-25 0 -61 -7q-47 -6 -57 -8h-185q6 29 4 74q-4 74 -4 76q27 -4 27 0h6v6q-27 6 -27 14 q-8 31 -4 135l-8 86l6 72l-6 236q0 -27 6 143q2 78 6 78v8l86 -6q338 12 361 -6q16 -12 16 -88q6 -18 6 -72q6 -18 7 -158v-362q0 -141 8 -166zM508 1638q-18 -6 -72 -6v6h72zM502 1604q-12 -6 -39 -15v6h-6v9h45zM502 625q-20 -16 -21 -7h-12v7h33zM463 61q-59 0 -60 -8 q40 0 60 8zM457 633q-16 -10 -68 -12q-37 -2 -102 2q-72 2 -82 2v8h252zM244 561q-18 -8 -111 -8v8h111zM47 455q0 -29 -8 -29v6h-6q4 9 14 23zM39 317v-49h-6zM33 1561q-4 -29 -13 -29v6h-8q0 29 8 29q0 8 7 8q2 -6 6 -14zM33 883q-6 -29 -13 -29v6q-18 57 7 58 q2 -12 6 -35zM33 754q-6 -23 -13 -23q7 17 13 23zM27 1167l-7 -49h-14q-2 147 6 309q6 0 6 -32q-3 -81 9 -228zM27 1053v-29h-7v8h-14q0 14 6.5 15.5t14.5 5.5zM27 1004q-20 -16 -21 0h21zM27 975q-4 -37 -15 -37v-6h-6q0 49 6 49v-6h15zM20 90q-6 -14 0 -14v-15h-14 q0 6 -6 7q0 29 6 28v-6h14zM12 125v-21q-4 11 0 21z" />
<glyph unicode="&#x22;" horiz-adv-x="1206" d="M1034 1606l-18 -43q2 -31 2 -52l-10 -256q2 -4 1 -25.5t5 -21.5q0 -6 8 -6v-6q-4 -8 -7 -55t-7 -47v-54q20 -12 20 -67q8 -18 8 -58q0 -45 -14 -55q-27 -18 -84 -16q-47 4 -92 8q-88 2 -268 8l2 180q-4 27 -13 82q-2 94 -2 92q4 68 8 203q0 -6 -2 60l13 108 q-18 12 -19 21q74 0 220.5 3t215.5 3l7 -21q12 7 26 15zM1028 1047zM954 1632zM913 1638q-27 -4 -41 -6v6h41zM772 840q-27 -10 -63 -13q-25 0 -66 2q-49 2 -65 2v9l53 12q22 -12 141 -12zM551 1606v-29h-6q2 11 6 29zM510 1073v-59h-12q0 20 12 59zM483 934v-14 q-12 6 -12 14h12zM477 893v-27q-4 15 0 27zM471 1606l-12 -68l-2 -510q4 -10 0 -82q-2 -31 -6 -47q-6 -31 -18.5 -37t-117.5 -10q-45 -2 -133 -6q-39 2 -114 6q-53 0 -54 8h-8q2 45 29 477q-4 66 -8 201q2 23 2 31q4 18 15 25.5t91 7.5zM471 866v-14q-14 6 -14 14h14z M147 1624q-20 -6 -100 -6v14q73 0 100 -8zM27 784q-27 -10 -27 0h27z" />
<glyph unicode="#" horiz-adv-x="1163" d="M160 1077q0 -23 -2 -49h-2q0 16 4 49zM158 1010v6v-6zM158 1008l-2 -13h-2q0 5 4 13zM156 971q-2 -8 -4 -17l-5 2zM125 679v0v0zM123 672q0 -6 -1 -8t-5 -2q2 4 6 10zM117 541v-9v9zM117 516q-4 -12 -8 -12q2 4 8 12zM88 580q0 -4 -4 -13h-2q2 3 6 13zM152 1376 q20 -4 57 -33q29 -23 55 -43q53 -33 154 -100q51 -39 55 -39v-4q-4 2 -10 4v-4h4q18 -18 39 -18v6q6 0 8 -2t8 -4v-4q-8 -4 -4 -5q0 -2 6 -8q35 -23 103 -69q31 -18 30.5 -20.5t4.5 -2.5q-2 4 -25 23q-10 6 -10 10q51 -27 49 -27v-6q-4 2 -12 4q16 -41 57 -41q2 -10 10 -18 q23 -14 68 -43q53 -35 82 -55q18 -12 20 -13q-6 -6 -6 -10q14 -6 37 -18v-7q-4 0 -55 -20q-10 -4 -22.5 -8t-80.5 -33l-37 -23q-53 -23 -157 -63q-78 -29 -88 -27q-14 2 -91 176l-100 232q-20 39 -59 117q-8 16 -41 92q-16 34 -49 104zM197 1169q45 -94 143 -280 q20 -53 66 -156q12 -25 24 -49q20 -37 19 -47q-2 -6 -9 -10l-299 -144q-2 55 2 71.5t6.5 49.5t8.5 94q4 12 10 35l16 133v64q6 117 6 92l-2 14q4 0 5 11h-3q0 -2 0 8q2 12 5 18l-5 25q1 26 7 71zM197 1128q0 -18 2 -18q0 6 -2 18zM543 1122h6q-4 -6 -6 -6v6zM549 1116 q2 -2 12 -4v-2q-6 2 -12 6zM193 1106q0 -14 4 -14q-2 6 -4 14zM580 1098q25 -12 24 -19q-18 7 -24 19zM604 1079q20 -10 17 -10v-2q-6 0 -7 2zM676 1030l26 -14v-6h-2q-8 6 -24 20zM784 1018h4q0 -2 3 -2q-2 -4 -7 -4v6zM731 985q43 -12 43 -27q-27 9 -43 27zM784 975h7 q-2 -4 -7 -4v4zM803 965h4q0 -4 2 -4q-2 -2 -6 -3v7zM821 952h4q0 -4 2 -4q-2 -2 -6 -2v6zM883 909h2q0 -4 4 -4q-4 -2 -6 -2v6zM889 903l2 -4q-2 2 -2 4zM909 891l41 -25v-2q-6 0 -6 2q-23 11 -35 25zM856 885q0 -2 2 -2v-4q2 4 0 4t-2 2zM901 860q2 -4 2 -2zM920 860h2 q0 -2 4 -2q-4 -4 -6 -4v6zM1085 852h5q-6 -10 -39 -25.5t-43 -15.5v4h2v2q28 8 75 35zM1071 831q12 -2 12 -6q6 -14 -10 -118q-14 -82 -22 -179q-6 -35 -7 -34v-2h-6q0 6 2 6l-2 14h-4q0 -10 -10 -27.5t-35 -29.5q-41 -18 -41 -21q-31 -18 -92 -59q-10 -8 -37 -19 q-27 -4 -76 27q-31 18 -30 47q0 -6 -2 -12q-8 -29 -44 -48.5t-75 -19.5t-82 29q-18 12 -21 12q-4 12 -10 39h-6v-6q-6 -16 -29 -43l-45 -27q-45 -14 -82 0q-78 31 -77 80q0 2 -2 6q-2 -4 -5.5 -12t-15.5 -27q-29 -35 -61 -34q-14 0 -31 8q-25 10 -25 18q-4 4 0 4 q6 8 102.5 54.5t104.5 46.5q0 2 2 2l35 14l84 39q20 10 64 25l12 -3v5q-2 6 28 20q88 39 267 113q6 0 18 -2q-6 16 0 16v-2q0 -2 6 -4q0 4 -4 4q16 25 150 70q8 4 8 6l18 -6v4q37 7 76 32zM170 829l2 -28h-2v28zM997 811q10 0 11 -2h-4v-4h-13q2 4 6 4v2zM979 801 q-6 -10 -2 -10v4q8 0 8 2q-2 2 -6 4zM164 770v-55h-4q0 39 4 55zM883 758q0 -6 2 -6v2q0 2 -2 4zM852 745v-4q-8 -2 -8 -6h2v4h12zM834 733zM1067 690v-12h4q-2 4 -4 12zM1061 653l1 -3q1 -3 -1 3zM1055 625q-4 -41 0 -41q2 37 0 41zM1049 582l-7 -50h5zM1010 399zM475 387 h6q-4 -2 -6 0zM727 369q10 -2 10 -7zM731 338q8 -2 12 -2v-4q-6 4 -12 6z" />
<glyph unicode="$" horiz-adv-x="1632" d="M1487 1581v-8q-6 0 8 -6q0 8 -8 14zM520 1143h15v22q-20 0 -99 6q12 -29 37 -28h47zM563 1040q6 0 0 9q0 6 -14 6q2 -4 14 -23v8zM612 1055h-22q12 -4 22 0zM1446 1055h-23q13 -4 23 0zM563 1026h-98v-8q66 -12 104 -14v14h-6v8zM983 514q0 -6 14 -6v6h7q0 8 -7 8 q0 16 -49 21q12 -15 35 -29zM156 446h-13q-2 0 -8 -8q1 -15 21 8zM66 438q0 -4 -5 -6h5v6zM61 432h-10q0 -16 10 0zM31 424h14v8h-72q23 -14 58 -8zM1438 1604q0 8 22 28q-10 -2 -28 -8h-379q-45 0 -133 6q6 119 -3.5 152t-87.5 33q4 0 -120 -13q-12 4 -50 13q-2 -6 -2 -15 q-2 0 -10 -164q-43 -12 -112 -8q-59 2 -70 -4q-45 4 -133 8q-43 2 -107 -2q-80 -4 -104 -6q-14 2 -35 -6h309q39 0 39 -4q-6 -2 -10 -2l-309 -2q-43 2 -119 -6q-2 -14 -19 -117q0 -139 -2 -191q-4 -63 -10 -182q-4 -307 -4 -293q0 2 4 -82q2 -49 -4 -77q6 0 20.5 -9.5 t20.5 -11.5l141 -6h181q72 -4 211 -12q14 0 71 4l-4 -148q0 -2 -2 -59q-23 -6 -80 -14q-10 0 -31 -9q-12 -4 -26 -2q-8 2 -12 15q-10 -2 -29 -9q-20 4 -55 9q-27 -4 -70 -11l-154 11v-9h-14q0 -6 12 -10l23 -4q-12 -2 -35 -6q-70 0 -84 -8h-57q0 4 14 28q-16 0 -27 -28 q-2 -2 -2 -64v-291h592v-8h-45q25 -6 66 -8q-2 -113 -11 -180q96 -4 109 -2q6 2 30.5 13t39.5 11l100 -4q2 0 8 15q2 37 4 108v23q-2 18 -2 24q14 -4 90 -6v6h-90v4v4h574v549l6 64q0 74 2 219q2 106 0 117q0 16 -35 14q-33 -4 -43 -14h-29q-49 0 -129 10q-96 12 -129 14 q-47 2 -178 6l4 101q0 14 6 127q145 -2 252 -6q2 0 84 -7q63 -6 103 -6q66 0 94 13q6 0 6 36q0 14 5 93t5 127q1 111 -24 129zM586 10h-19q2 4 2 8h17v-8zM1120 618q-10 0 -4 -28v-35q0 -16 10.5 -39.5t10.5 -34.5q0 -14 -9.5 -30.5t-17.5 -36.5q-10 0 -58 5t-57 5 q-8 0 -114 -8l8 221q206 4 231 -19zM625 1124q-2 0 -21 4q8 -4 21 -10l-4 -129q-57 6 -72 0q-162 0 -182 10q-2 0 -5.5 63.5t-5.5 63.5q2 20 0 39q0 6 -10 19.5t-10 17.5q0 14 119 23q84 6 163 4h11zM-27 10q4 -10 15 -22h8v-6h6q0 14 -29 28zM72 -78q8 -2 22 -6q1 6 -22 6z M926 1944l-43 2v-17q31 1 43 15zM918 1866l-27 2v-17h4l-2 -14q9 11 25 29zM815 -250h8q0 -6 2 -12q0 2 3 10t8 16h-21v-14zM662 -229q8 0 42.5 -7.5t55.5 -7.5q39 0 49 25l-145 6q0 -8 -2 -16zM633 1724q4 0 10 62q-2 10 -4 31q-4 0 -4 -17q-4 2 -6 -59q2 0 4 -2v-15z M592 588l-12 2q0 -16 2 -17q4 3 10 15zM578 436v15q6 0 10 75q-2 2 -6 2v15q-4 0 -9 -107h5z" />
<glyph unicode="%" horiz-adv-x="1163" d="M160 1077q0 -23 -2 -49h-2q0 16 4 49zM158 1010v6v-6zM158 1008l-2 -13h-2q0 5 4 13zM156 971q-2 -8 -4 -17l-5 2zM125 679v0v0zM123 672q0 -6 -1 -8t-5 -2q2 4 6 10zM117 541v-9v9zM117 516q-4 -12 -8 -12q2 4 8 12zM88 580q0 -4 -4 -13h-2q2 3 6 13zM152 1376 q20 -4 57 -33q29 -23 55 -43q53 -33 154 -100q51 -39 55 -39v-4q-4 2 -10 4v-4h4q18 -18 39 -18v6q6 0 8 -2t8 -4v-4q-8 -4 -4 -5q0 -2 6 -8q35 -23 103 -69q31 -18 30.5 -20.5t4.5 -2.5q-2 4 -25 23q-10 6 -10 10q51 -27 49 -27v-6q-4 2 -12 4q16 -41 57 -41q2 -10 10 -18 q23 -14 68 -43q53 -35 82 -55q18 -12 20 -13q-6 -6 -6 -10q14 -6 37 -18v-7q-4 0 -55 -20q-10 -4 -22.5 -8t-80.5 -33l-37 -23q-53 -23 -157 -63q-78 -29 -88 -27q-14 2 -91 176l-100 232q-20 39 -59 117q-8 16 -41 92q-16 34 -49 104zM197 1169q45 -94 143 -280 q20 -53 66 -156q12 -25 24 -49q20 -37 19 -47q-2 -6 -9 -10l-299 -144q-2 55 2 71.5t6.5 49.5t8.5 94q4 12 10 35l16 133v64q6 117 6 92l-2 14q4 0 5 11h-3q0 -2 0 8q2 12 5 18l-5 25q1 26 7 71zM197 1128q0 -18 2 -18q0 6 -2 18zM543 1122h6q-4 -6 -6 -6v6zM549 1116 q2 -2 12 -4v-2q-6 2 -12 6zM193 1106q0 -14 4 -14q-2 6 -4 14zM580 1098q25 -12 24 -19q-18 7 -24 19zM604 1079q20 -10 17 -10v-2q-6 0 -7 2zM676 1030l26 -14v-6h-2q-8 6 -24 20zM784 1018h4q0 -2 3 -2q-2 -4 -7 -4v6zM731 985q43 -12 43 -27q-27 9 -43 27zM784 975h7 q-2 -4 -7 -4v4zM803 965h4q0 -4 2 -4q-2 -2 -6 -3v7zM821 952h4q0 -4 2 -4q-2 -2 -6 -2v6zM883 909h2q0 -4 4 -4q-4 -2 -6 -2v6zM889 903l2 -4q-2 2 -2 4zM909 891l41 -25v-2q-6 0 -6 2q-23 11 -35 25zM856 885q0 -2 2 -2v-4q2 4 0 4t-2 2zM901 860q2 -4 2 -2zM920 860h2 q0 -2 4 -2q-4 -4 -6 -4v6zM1085 852h5q-6 -10 -39 -25.5t-43 -15.5v4h2v2q28 8 75 35zM1071 831q12 -2 12 -6q6 -14 -10 -118q-14 -82 -22 -179q-6 -35 -7 -34v-2h-6q0 6 2 6l-2 14h-4q0 -10 -10 -27.5t-35 -29.5q-41 -18 -41 -21q-31 -18 -92 -59q-10 -8 -37 -19 q-27 -4 -76 27q-31 18 -30 47q0 -6 -2 -12q-8 -29 -44 -48.5t-75 -19.5t-82 29q-18 12 -21 12q-4 12 -10 39h-6v-6q-6 -16 -29 -43l-45 -27q-45 -14 -82 0q-78 31 -77 80q0 2 -2 6q-2 -4 -5.5 -12t-15.5 -27q-29 -35 -61 -34q-14 0 -31 8q-25 10 -25 18q-4 4 0 4 q6 8 102.5 54.5t104.5 46.5q0 2 2 2l35 14l84 39q20 10 64 25l12 -3v5q-2 6 28 20q88 39 267 113q6 0 18 -2q-6 16 0 16v-2q0 -2 6 -4q0 4 -4 4q16 25 150 70q8 4 8 6l18 -6v4q37 7 76 32zM170 829l2 -28h-2v28zM997 811q10 0 11 -2h-4v-4h-13q2 4 6 4v2zM979 801 q-6 -10 -2 -10v4q8 0 8 2q-2 2 -6 4zM164 770v-55h-4q0 39 4 55zM883 758q0 -6 2 -6v2q0 2 -2 4zM852 745v-4q-8 -2 -8 -6h2v4h12zM834 733zM1067 690v-12h4q-2 4 -4 12zM1061 653l1 -3q1 -3 -1 3zM1055 625q-4 -41 0 -41q2 37 0 41zM1049 582l-7 -50h5zM1010 399zM475 387 h6q-4 -2 -6 0zM727 369q10 -2 10 -7zM731 338q8 -2 12 -2v-4q-6 4 -12 6z" />
<glyph unicode="&#x26;" horiz-adv-x="1163" d="M160 1077q0 -23 -2 -49h-2q0 16 4 49zM158 1010v6v-6zM158 1008l-2 -13h-2q0 5 4 13zM156 971q-2 -8 -4 -17l-5 2zM125 679v0v0zM123 672q0 -6 -1 -8t-5 -2q2 4 6 10zM117 541v-9v9zM117 516q-4 -12 -8 -12q2 4 8 12zM88 580q0 -4 -4 -13h-2q2 3 6 13zM152 1376 q20 -4 57 -33q29 -23 55 -43q53 -33 154 -100q51 -39 55 -39v-4q-4 2 -10 4v-4h4q18 -18 39 -18v6q6 0 8 -2t8 -4v-4q-8 -4 -4 -5q0 -2 6 -8q35 -23 103 -69q31 -18 30.5 -20.5t4.5 -2.5q-2 4 -25 23q-10 6 -10 10q51 -27 49 -27v-6q-4 2 -12 4q16 -41 57 -41q2 -10 10 -18 q23 -14 68 -43q53 -35 82 -55q18 -12 20 -13q-6 -6 -6 -10q14 -6 37 -18v-7q-4 0 -55 -20q-10 -4 -22.5 -8t-80.5 -33l-37 -23q-53 -23 -157 -63q-78 -29 -88 -27q-14 2 -91 176l-100 232q-20 39 -59 117q-8 16 -41 92q-16 34 -49 104zM197 1169q45 -94 143 -280 q20 -53 66 -156q12 -25 24 -49q20 -37 19 -47q-2 -6 -9 -10l-299 -144q-2 55 2 71.5t6.5 49.5t8.5 94q4 12 10 35l16 133v64q6 117 6 92l-2 14q4 0 5 11h-3q0 -2 0 8q2 12 5 18l-5 25q1 26 7 71zM197 1128q0 -18 2 -18q0 6 -2 18zM543 1122h6q-4 -6 -6 -6v6zM549 1116 q2 -2 12 -4v-2q-6 2 -12 6zM193 1106q0 -14 4 -14q-2 6 -4 14zM580 1098q25 -12 24 -19q-18 7 -24 19zM604 1079q20 -10 17 -10v-2q-6 0 -7 2zM676 1030l26 -14v-6h-2q-8 6 -24 20zM784 1018h4q0 -2 3 -2q-2 -4 -7 -4v6zM731 985q43 -12 43 -27q-27 9 -43 27zM784 975h7 q-2 -4 -7 -4v4zM803 965h4q0 -4 2 -4q-2 -2 -6 -3v7zM821 952h4q0 -4 2 -4q-2 -2 -6 -2v6zM883 909h2q0 -4 4 -4q-4 -2 -6 -2v6zM889 903l2 -4q-2 2 -2 4zM909 891l41 -25v-2q-6 0 -6 2q-23 11 -35 25zM856 885q0 -2 2 -2v-4q2 4 0 4t-2 2zM901 860q2 -4 2 -2zM920 860h2 q0 -2 4 -2q-4 -4 -6 -4v6zM1085 852h5q-6 -10 -39 -25.5t-43 -15.5v4h2v2q28 8 75 35zM1071 831q12 -2 12 -6q6 -14 -10 -118q-14 -82 -22 -179q-6 -35 -7 -34v-2h-6q0 6 2 6l-2 14h-4q0 -10 -10 -27.5t-35 -29.5q-41 -18 -41 -21q-31 -18 -92 -59q-10 -8 -37 -19 q-27 -4 -76 27q-31 18 -30 47q0 -6 -2 -12q-8 -29 -44 -48.5t-75 -19.5t-82 29q-18 12 -21 12q-4 12 -10 39h-6v-6q-6 -16 -29 -43l-45 -27q-45 -14 -82 0q-78 31 -77 80q0 2 -2 6q-2 -4 -5.5 -12t-15.5 -27q-29 -35 -61 -34q-14 0 -31 8q-25 10 -25 18q-4 4 0 4 q6 8 102.5 54.5t104.5 46.5q0 2 2 2l35 14l84 39q20 10 64 25l12 -3v5q-2 6 28 20q88 39 267 113q6 0 18 -2q-6 16 0 16v-2q0 -2 6 -4q0 4 -4 4q16 25 150 70q8 4 8 6l18 -6v4q37 7 76 32zM170 829l2 -28h-2v28zM997 811q10 0 11 -2h-4v-4h-13q2 4 6 4v2zM979 801 q-6 -10 -2 -10v4q8 0 8 2q-2 2 -6 4zM164 770v-55h-4q0 39 4 55zM883 758q0 -6 2 -6v2q0 2 -2 4zM852 745v-4q-8 -2 -8 -6h2v4h12zM834 733zM1067 690v-12h4q-2 4 -4 12zM1061 653l1 -3q1 -3 -1 3zM1055 625q-4 -41 0 -41q2 37 0 41zM1049 582l-7 -50h5zM1010 399zM475 387 h6q-4 -2 -6 0zM727 369q10 -2 10 -7zM731 338q8 -2 12 -2v-4q-6 4 -12 6z" />
<glyph unicode="'" horiz-adv-x="589" d="M461 958q-4 -18 -6 -28h-9q7 14 15 28zM561 1384q0 -35 -6 -34q2 11 6 34zM561 1225zM555 1393zM190 1069h-118q0 49 -9 49q-4 -41 -20 -41l6 307h14l-6 -147h15v309q0 29 8 30t26 5v8h-28v6l37 2q33 2 51 0q25 -2 24 -8q-29 0 -28 -8q14 -6 14 -14q27 14 49 14v8h-6 q-14 4 -22 6v7q4 0 71 6q61 6 97 6q49 0 49 -12q61 0 108 -15q6 -12 -2 -229q-10 -229 -26 -301q-6 -23 -72 -162q0 -10 -27.5 -43t-38.5 -33q-27 -4 -53 -12q-18 0 -31.5 2t-33.5 2q0 12 2 27q20 39 41 80q27 55 26 90q0 75 -117 61zM492 1679q-20 -16 -21 -6h-14v6h35z M451 1126q-63 0 -64 -8q41 0 64 8zM219 1616q-23 -6 -121 -6v6h121zM8 1511q0 -29 -6 -28v8h-8q4 6 14 20zM2 1378v-49h-8zM-20 1153q-6 -12 0 -12v-15h-15q0 6 -6 7q0 29 6 28v-8h15zM-27 1190v-23q-4 11 0 23z" />
<glyph unicode="(" horiz-adv-x="1163" d="M160 1077q0 -23 -2 -49h-2q0 16 4 49zM158 1010v6v-6zM158 1008l-2 -13h-2q0 5 4 13zM156 971q-2 -8 -4 -17l-5 2zM125 679v0v0zM123 672q0 -6 -1 -8t-5 -2q2 4 6 10zM117 541v-9v9zM117 516q-4 -12 -8 -12q2 4 8 12zM88 580q0 -4 -4 -13h-2q2 3 6 13zM152 1376 q20 -4 57 -33q29 -23 55 -43q53 -33 154 -100q51 -39 55 -39v-4q-4 2 -10 4v-4h4q18 -18 39 -18v6q6 0 8 -2t8 -4v-4q-8 -4 -4 -5q0 -2 6 -8q35 -23 103 -69q31 -18 30.5 -20.5t4.5 -2.5q-2 4 -25 23q-10 6 -10 10q51 -27 49 -27v-6q-4 2 -12 4q16 -41 57 -41q2 -10 10 -18 q23 -14 68 -43q53 -35 82 -55q18 -12 20 -13q-6 -6 -6 -10q14 -6 37 -18v-7q-4 0 -55 -20q-10 -4 -22.5 -8t-80.5 -33l-37 -23q-53 -23 -157 -63q-78 -29 -88 -27q-14 2 -91 176l-100 232q-20 39 -59 117q-8 16 -41 92q-16 34 -49 104zM197 1169q45 -94 143 -280 q20 -53 66 -156q12 -25 24 -49q20 -37 19 -47q-2 -6 -9 -10l-299 -144q-2 55 2 71.5t6.5 49.5t8.5 94q4 12 10 35l16 133v64q6 117 6 92l-2 14q4 0 5 11h-3q0 -2 0 8q2 12 5 18l-5 25q1 26 7 71zM197 1128q0 -18 2 -18q0 6 -2 18zM543 1122h6q-4 -6 -6 -6v6zM549 1116 q2 -2 12 -4v-2q-6 2 -12 6zM193 1106q0 -14 4 -14q-2 6 -4 14zM580 1098q25 -12 24 -19q-18 7 -24 19zM604 1079q20 -10 17 -10v-2q-6 0 -7 2zM676 1030l26 -14v-6h-2q-8 6 -24 20zM784 1018h4q0 -2 3 -2q-2 -4 -7 -4v6zM731 985q43 -12 43 -27q-27 9 -43 27zM784 975h7 q-2 -4 -7 -4v4zM803 965h4q0 -4 2 -4q-2 -2 -6 -3v7zM821 952h4q0 -4 2 -4q-2 -2 -6 -2v6zM883 909h2q0 -4 4 -4q-4 -2 -6 -2v6zM889 903l2 -4q-2 2 -2 4zM909 891l41 -25v-2q-6 0 -6 2q-23 11 -35 25zM856 885q0 -2 2 -2v-4q2 4 0 4t-2 2zM901 860q2 -4 2 -2zM920 860h2 q0 -2 4 -2q-4 -4 -6 -4v6zM1085 852h5q-6 -10 -39 -25.5t-43 -15.5v4h2v2q28 8 75 35zM1071 831q12 -2 12 -6q6 -14 -10 -118q-14 -82 -22 -179q-6 -35 -7 -34v-2h-6q0 6 2 6l-2 14h-4q0 -10 -10 -27.5t-35 -29.5q-41 -18 -41 -21q-31 -18 -92 -59q-10 -8 -37 -19 q-27 -4 -76 27q-31 18 -30 47q0 -6 -2 -12q-8 -29 -44 -48.5t-75 -19.5t-82 29q-18 12 -21 12q-4 12 -10 39h-6v-6q-6 -16 -29 -43l-45 -27q-45 -14 -82 0q-78 31 -77 80q0 2 -2 6q-2 -4 -5.5 -12t-15.5 -27q-29 -35 -61 -34q-14 0 -31 8q-25 10 -25 18q-4 4 0 4 q6 8 102.5 54.5t104.5 46.5q0 2 2 2l35 14l84 39q20 10 64 25l12 -3v5q-2 6 28 20q88 39 267 113q6 0 18 -2q-6 16 0 16v-2q0 -2 6 -4q0 4 -4 4q16 25 150 70q8 4 8 6l18 -6v4q37 7 76 32zM170 829l2 -28h-2v28zM997 811q10 0 11 -2h-4v-4h-13q2 4 6 4v2zM979 801 q-6 -10 -2 -10v4q8 0 8 2q-2 2 -6 4zM164 770v-55h-4q0 39 4 55zM883 758q0 -6 2 -6v2q0 2 -2 4zM852 745v-4q-8 -2 -8 -6h2v4h12zM834 733zM1067 690v-12h4q-2 4 -4 12zM1061 653l1 -3q1 -3 -1 3zM1055 625q-4 -41 0 -41q2 37 0 41zM1049 582l-7 -50h5zM1010 399zM475 387 h6q-4 -2 -6 0zM727 369q10 -2 10 -7zM731 338q8 -2 12 -2v-4q-6 4 -12 6z" />
<glyph unicode=")" d="M1647 1409v-37h-13q5 25 13 37zM1634 1526q0 -41 -5 -41t-13 -4v4l2 26q2 18 10 19q2 0 6 -4zM1628 1450v-55h-4v6h-4q0 16 8 49zM1624 1575q-16 -2 -27 -4v4h27zM1612 995q-2 -6 -6 -243q0 -14 -4.5 -41t-4.5 -39h-8q0 49 3 146t3 145q4 29 6.5 28.5t10.5 3.5zM1606 334 v-96q-2 -70 -4 -95q0 -4 -5 -4v-4h-8l4 31q-10 12 -10 31q0 12 6 35.5t6 29.5q3 25 11 72zM1593 1571zM1593 1518q-10 -18 -18 -19q-20 23 -80 23v4q41 12 64 12q31 0 30 -20h4zM1544 1638q-18 -6 -18 0h18zM1526 1481zM1522 1634zM1507 -35h-41v-10q18 -6 19 -12h10 q6 10 12 22zM1473 1526q-14 -4 -109 -4v4h4v4q78 6 105 -4zM1473 1481zM1454 -35h-10q4 -10 10 -10v10zM1440 -41q-6 2 -19.5 3t-21.5 3q-4 -6 -4 -10h-4v-4q35 -2 49 8zM1364 -31q4 -2 -59 -4q-55 0 -170 -6v-12q49 -8 49 4q8 -2 135 -6l45 -8v32zM1354 1638q-6 -4 -68 -4 q-2 0 -80 -4l-76 4v4h224zM1341 1526q-14 -4 -98 -4v4q49 4 98 0zM1124 -41q-51 16 -80 12l-32 -12v-4h6q18 -10 55 -12q41 0 51 16zM1004 -41q-45 10 -46 0h-4v-8h13q25 -4 37 8zM944 -41l-57 4l-27 4l-55 -6q-29 4 -74 -4q0 -4 31 -8t31 -12q10 6 34 12l33 -8q8 0 33 5 t39 3q8 -2 9 1zM846 1004zM702 1499q-10 -10 -22 -10v10h22zM698 -41q-18 6 -18 0h-4v-8q12 0 22 8zM455 1616q-14 -2 -23 -4v4h23zM432 1620q-25 -2 -41 -4v4h41zM203 1450h-10q6 -10 10 -10v10zM188 1450q-57 0 -57 -4q49 0 57 4zM121 1530zM72 969q-2 -14 -9 -41h5v-4 q4 8 4 45zM27 -4q-2 -27 -7.5 -28t-15.5 -3v4h-4v4q2 2 10 37q8 29 8 23q-5 -25 9 -37zM27 -63q-4 -16 -13 -17v17h13zM23 1427v-32h-5q-8 37 -4 37q0 4 4 4q3 -3 5 -9z" />
<glyph unicode="*" horiz-adv-x="1163" d="M160 1077q0 -23 -2 -49h-2q0 16 4 49zM158 1010v6v-6zM158 1008l-2 -13h-2q0 5 4 13zM156 971q-2 -8 -4 -17l-5 2zM125 679v0v0zM123 672q0 -6 -1 -8t-5 -2q2 4 6 10zM117 541v-9v9zM117 516q-4 -12 -8 -12q2 4 8 12zM88 580q0 -4 -4 -13h-2q2 3 6 13zM152 1376 q20 -4 57 -33q29 -23 55 -43q53 -33 154 -100q51 -39 55 -39v-4q-4 2 -10 4v-4h4q18 -18 39 -18v6q6 0 8 -2t8 -4v-4q-8 -4 -4 -5q0 -2 6 -8q35 -23 103 -69q31 -18 30.5 -20.5t4.5 -2.5q-2 4 -25 23q-10 6 -10 10q51 -27 49 -27v-6q-4 2 -12 4q16 -41 57 -41q2 -10 10 -18 q23 -14 68 -43q53 -35 82 -55q18 -12 20 -13q-6 -6 -6 -10q14 -6 37 -18v-7q-4 0 -55 -20q-10 -4 -22.5 -8t-80.5 -33l-37 -23q-53 -23 -157 -63q-78 -29 -88 -27q-14 2 -91 176l-100 232q-20 39 -59 117q-8 16 -41 92q-16 34 -49 104zM197 1169q45 -94 143 -280 q20 -53 66 -156q12 -25 24 -49q20 -37 19 -47q-2 -6 -9 -10l-299 -144q-2 55 2 71.5t6.5 49.5t8.5 94q4 12 10 35l16 133v64q6 117 6 92l-2 14q4 0 5 11h-3q0 -2 0 8q2 12 5 18l-5 25q1 26 7 71zM197 1128q0 -18 2 -18q0 6 -2 18zM543 1122h6q-4 -6 -6 -6v6zM549 1116 q2 -2 12 -4v-2q-6 2 -12 6zM193 1106q0 -14 4 -14q-2 6 -4 14zM580 1098q25 -12 24 -19q-18 7 -24 19zM604 1079q20 -10 17 -10v-2q-6 0 -7 2zM676 1030l26 -14v-6h-2q-8 6 -24 20zM784 1018h4q0 -2 3 -2q-2 -4 -7 -4v6zM731 985q43 -12 43 -27q-27 9 -43 27zM784 975h7 q-2 -4 -7 -4v4zM803 965h4q0 -4 2 -4q-2 -2 -6 -3v7zM821 952h4q0 -4 2 -4q-2 -2 -6 -2v6zM883 909h2q0 -4 4 -4q-4 -2 -6 -2v6zM889 903l2 -4q-2 2 -2 4zM909 891l41 -25v-2q-6 0 -6 2q-23 11 -35 25zM856 885q0 -2 2 -2v-4q2 4 0 4t-2 2zM901 860q2 -4 2 -2zM920 860h2 q0 -2 4 -2q-4 -4 -6 -4v6zM1085 852h5q-6 -10 -39 -25.5t-43 -15.5v4h2v2q28 8 75 35zM1071 831q12 -2 12 -6q6 -14 -10 -118q-14 -82 -22 -179q-6 -35 -7 -34v-2h-6q0 6 2 6l-2 14h-4q0 -10 -10 -27.5t-35 -29.5q-41 -18 -41 -21q-31 -18 -92 -59q-10 -8 -37 -19 q-27 -4 -76 27q-31 18 -30 47q0 -6 -2 -12q-8 -29 -44 -48.5t-75 -19.5t-82 29q-18 12 -21 12q-4 12 -10 39h-6v-6q-6 -16 -29 -43l-45 -27q-45 -14 -82 0q-78 31 -77 80q0 2 -2 6q-2 -4 -5.5 -12t-15.5 -27q-29 -35 -61 -34q-14 0 -31 8q-25 10 -25 18q-4 4 0 4 q6 8 102.5 54.5t104.5 46.5q0 2 2 2l35 14l84 39q20 10 64 25l12 -3v5q-2 6 28 20q88 39 267 113q6 0 18 -2q-6 16 0 16v-2q0 -2 6 -4q0 4 -4 4q16 25 150 70q8 4 8 6l18 -6v4q37 7 76 32zM170 829l2 -28h-2v28zM997 811q10 0 11 -2h-4v-4h-13q2 4 6 4v2zM979 801 q-6 -10 -2 -10v4q8 0 8 2q-2 2 -6 4zM164 770v-55h-4q0 39 4 55zM883 758q0 -6 2 -6v2q0 2 -2 4zM852 745v-4q-8 -2 -8 -6h2v4h12zM834 733zM1067 690v-12h4q-2 4 -4 12zM1061 653l1 -3q1 -3 -1 3zM1055 625q-4 -41 0 -41q2 37 0 41zM1049 582l-7 -50h5zM1010 399zM475 387 h6q-4 -2 -6 0zM727 369q10 -2 10 -7zM731 338q8 -2 12 -2v-4q-6 4 -12 6z" />
<glyph unicode="+" d="M1647 1409v-37h-13q5 25 13 37zM1634 1526q0 -41 -5 -41t-13 -4v4l2 26q2 18 10 19q2 0 6 -4zM1628 1450v-55h-4v6h-4q0 16 8 49zM1624 1575q-16 -2 -27 -4v4h27zM1612 995q-2 -6 -6 -243q0 -14 -4.5 -41t-4.5 -39h-8q0 49 3 146t3 145q4 29 6.5 28.5t10.5 3.5zM1606 334 v-96q-2 -70 -4 -95q0 -4 -5 -4v-4h-8l4 31q-10 12 -10 31q0 12 6 35.5t6 29.5q3 25 11 72zM1593 1571zM1593 1518q-10 -18 -18 -19q-20 23 -80 23v4q41 12 64 12q31 0 30 -20h4zM1544 1638q-18 -6 -18 0h18zM1526 1481zM1522 1634zM1507 -35h-41v-10q18 -6 19 -12h10 q6 10 12 22zM1473 1526q-14 -4 -109 -4v4h4v4q78 6 105 -4zM1473 1481zM1454 -35h-10q4 -10 10 -10v10zM1440 -41q-6 2 -19.5 3t-21.5 3q-4 -6 -4 -10h-4v-4q35 -2 49 8zM1364 -31q4 -2 -59 -4q-55 0 -170 -6v-12q49 -8 49 4q8 -2 135 -6l45 -8v32zM1354 1638q-6 -4 -68 -4 q-2 0 -80 -4l-76 4v4h224zM1341 1526q-14 -4 -98 -4v4q49 4 98 0zM1124 -41q-51 16 -80 12l-32 -12v-4h6q18 -10 55 -12q41 0 51 16zM1004 -41q-45 10 -46 0h-4v-8h13q25 -4 37 8zM944 -41l-57 4l-27 4l-55 -6q-29 4 -74 -4q0 -4 31 -8t31 -12q10 6 34 12l33 -8q8 0 33 5 t39 3q8 -2 9 1zM846 1004zM702 1499q-10 -10 -22 -10v10h22zM698 -41q-18 6 -18 0h-4v-8q12 0 22 8zM455 1616q-14 -2 -23 -4v4h23zM432 1620q-25 -2 -41 -4v4h41zM203 1450h-10q6 -10 10 -10v10zM188 1450q-57 0 -57 -4q49 0 57 4zM121 1530zM72 969q-2 -14 -9 -41h5v-4 q4 8 4 45zM27 -4q-2 -27 -7.5 -28t-15.5 -3v4h-4v4q2 2 10 37q8 29 8 23q-5 -25 9 -37zM27 -63q-4 -16 -13 -17v17h13zM23 1427v-32h-5q-8 37 -4 37q0 4 4 4q3 -3 5 -9z" />
<glyph unicode="," horiz-adv-x="784" d="M504 -96q-4 -10 -10 -29h-9q9 15 19 29zM623 346q0 -37 -9 -37q3 12 9 37zM623 180zM485 -139l-49 -86q-2 2 -8 4q16 29 57 82zM614 354zM182 20h-141q0 49 -8 50q-6 -43 -25 -43l8 319h17l-8 -151h16v319q0 29 9 30t32 7v6h-33v8q-2 0 45 2h58q31 -2 30 -10 q-33 0 -32 -6q16 -8 16 -16q31 16 57 16v6h-8q-14 4 -25 8v6q4 0 84 7q74 6 115 6q59 0 60 -13q72 -2 126 -16q8 -12 -2 -238q-12 -236 -30 -311q-8 -23 -86 -168q0 -10 -33 -45t-45 -35q-31 -4 -62 -10q-25 0 -40 2t-39 2q2 12 2 27q25 41 51 82q31 59 31 94q-1 77 -140 65 zM539 651q-25 -16 -25 -6h-16v6h41zM489 78q-74 0 -73 -8q48 0 73 8zM215 586q-25 -6 -141 -6v6h141zM-35 477q0 -29 -8 -28v6h-8q6 8 16 22zM-43 340v-51h-8zM-68 106q-8 -14 0 -14v-14h-16q0 8 -8 8q0 29 8 29v-9h16zM-76 143v-22q-4 10 0 22z" />
<glyph unicode="-" horiz-adv-x="1163" d="M160 1077q0 -23 -2 -49h-2q0 16 4 49zM158 1010v6v-6zM158 1008l-2 -13h-2q0 5 4 13zM156 971q-2 -8 -4 -17l-5 2zM125 679v0v0zM123 672q0 -6 -1 -8t-5 -2q2 4 6 10zM117 541v-9v9zM117 516q-4 -12 -8 -12q2 4 8 12zM88 580q0 -4 -4 -13h-2q2 3 6 13zM152 1376 q20 -4 57 -33q29 -23 55 -43q53 -33 154 -100q51 -39 55 -39v-4q-4 2 -10 4v-4h4q18 -18 39 -18v6q6 0 8 -2t8 -4v-4q-8 -4 -4 -5q0 -2 6 -8q35 -23 103 -69q31 -18 30.5 -20.5t4.5 -2.5q-2 4 -25 23q-10 6 -10 10q51 -27 49 -27v-6q-4 2 -12 4q16 -41 57 -41q2 -10 10 -18 q23 -14 68 -43q53 -35 82 -55q18 -12 20 -13q-6 -6 -6 -10q14 -6 37 -18v-7q-4 0 -55 -20q-10 -4 -22.5 -8t-80.5 -33l-37 -23q-53 -23 -157 -63q-78 -29 -88 -27q-14 2 -91 176l-100 232q-20 39 -59 117q-8 16 -41 92q-16 34 -49 104zM197 1169q45 -94 143 -280 q20 -53 66 -156q12 -25 24 -49q20 -37 19 -47q-2 -6 -9 -10l-299 -144q-2 55 2 71.5t6.5 49.5t8.5 94q4 12 10 35l16 133v64q6 117 6 92l-2 14q4 0 5 11h-3q0 -2 0 8q2 12 5 18l-5 25q1 26 7 71zM197 1128q0 -18 2 -18q0 6 -2 18zM543 1122h6q-4 -6 -6 -6v6zM549 1116 q2 -2 12 -4v-2q-6 2 -12 6zM193 1106q0 -14 4 -14q-2 6 -4 14zM580 1098q25 -12 24 -19q-18 7 -24 19zM604 1079q20 -10 17 -10v-2q-6 0 -7 2zM676 1030l26 -14v-6h-2q-8 6 -24 20zM784 1018h4q0 -2 3 -2q-2 -4 -7 -4v6zM731 985q43 -12 43 -27q-27 9 -43 27zM784 975h7 q-2 -4 -7 -4v4zM803 965h4q0 -4 2 -4q-2 -2 -6 -3v7zM821 952h4q0 -4 2 -4q-2 -2 -6 -2v6zM883 909h2q0 -4 4 -4q-4 -2 -6 -2v6zM889 903l2 -4q-2 2 -2 4zM909 891l41 -25v-2q-6 0 -6 2q-23 11 -35 25zM856 885q0 -2 2 -2v-4q2 4 0 4t-2 2zM901 860q2 -4 2 -2zM920 860h2 q0 -2 4 -2q-4 -4 -6 -4v6zM1085 852h5q-6 -10 -39 -25.5t-43 -15.5v4h2v2q28 8 75 35zM1071 831q12 -2 12 -6q6 -14 -10 -118q-14 -82 -22 -179q-6 -35 -7 -34v-2h-6q0 6 2 6l-2 14h-4q0 -10 -10 -27.5t-35 -29.5q-41 -18 -41 -21q-31 -18 -92 -59q-10 -8 -37 -19 q-27 -4 -76 27q-31 18 -30 47q0 -6 -2 -12q-8 -29 -44 -48.5t-75 -19.5t-82 29q-18 12 -21 12q-4 12 -10 39h-6v-6q-6 -16 -29 -43l-45 -27q-45 -14 -82 0q-78 31 -77 80q0 2 -2 6q-2 -4 -5.5 -12t-15.5 -27q-29 -35 -61 -34q-14 0 -31 8q-25 10 -25 18q-4 4 0 4 q6 8 102.5 54.5t104.5 46.5q0 2 2 2l35 14l84 39q20 10 64 25l12 -3v5q-2 6 28 20q88 39 267 113q6 0 18 -2q-6 16 0 16v-2q0 -2 6 -4q0 4 -4 4q16 25 150 70q8 4 8 6l18 -6v4q37 7 76 32zM170 829l2 -28h-2v28zM997 811q10 0 11 -2h-4v-4h-13q2 4 6 4v2zM979 801 q-6 -10 -2 -10v4q8 0 8 2q-2 2 -6 4zM164 770v-55h-4q0 39 4 55zM883 758q0 -6 2 -6v2q0 2 -2 4zM852 745v-4q-8 -2 -8 -6h2v4h12zM834 733zM1067 690v-12h4q-2 4 -4 12zM1061 653l1 -3q1 -3 -1 3zM1055 625q-4 -41 0 -41q2 37 0 41zM1049 582l-7 -50h5zM1010 399zM475 387 h6q-4 -2 -6 0zM727 369q10 -2 10 -7zM731 338q8 -2 12 -2v-4q-6 4 -12 6z" />
<glyph unicode="." horiz-adv-x="729" d="M616 1106zM616 229l-6 -28h-8q8 14 14 28zM610 293q0 -35 -8 -35q2 12 8 35zM610 131zM602 463v-92h-6q-2 31 6 92zM602 301zM57 356v121q49 0 49 6q-43 6 -43 23l312 -8v-15l-148 9v-15h312q29 0 29.5 -8t4.5 -29h9v29h6q0 2 2 -37q2 -33 0 -51q-2 -25 -8 -25 q0 29 -9 29q-6 -14 -14 -14q14 -27 14 -70h9v6q2 18 6 41h8l5 -72q5 -73 5 -110q0 -57 -10 -57q0 41 -12 96q-8 -4 -2 -92q6 -119 6 -111h-461q-49 0 -49 8h-6v121q-16 33 -11.5 113.5t-3.5 111.5zM547 1638q-23 -6 -80 -6v6h80zM539 1604q-14 -6 -43 -15v6h-7v9h50z M539 612q-20 -18 -21 -8h-14v8h35zM496 31q-63 0 -64 -6q44 0 64 6zM489 618q-16 -10 -73 -12q-39 -2 -109 2q-78 4 -88 4v6h270zM262 547q-20 -6 -121 -6v6h121zM49 440q0 -27 -6 -26v6h-8q6 8 14 20zM43 287v-51h-8zM35 760q-6 -23 -15 -23q9 17 15 23zM20 59 q-6 -14 0 -14v-14h-14q0 8 -6 8q0 27 6 27v-7h14zM14 94v-20q-4 10 0 20z" />
<glyph unicode="/" horiz-adv-x="1017" d="M129 913q31 139 39 140q0 2 2 4h4l-35 -158h-4v6h-4q0 2 -2 8zM193 1200l14 49h4q0 -4 -2 -10q-2 -25 -16 -39zM47 520l16 74h5q-9 -49 -21 -74zM-12 94q6 10 41 162l69 299q0 12 33 129q6 31 23 98l24 99q0 8 10 49q39 154 117 461q14 49 39 147l12 55q0 8 3 31t10 23 q0 4 2 6l32 10q98 10 162 -6q12 -2 13 0q14 6 57 4q10 -2 27 0q20 2 28 2l58 -10q10 0 26.5 3t22.5 3q10 -2 28 -6q27 -4 27 -6h4q-4 -33 -14 -99q-23 -88 -66 -266q-2 -6 -26 -123l-5 -49q-14 -53 -40 -162q-8 -51 -27 -157q-4 -18 -60 -271q-6 -35 -20 -102l-82 -305 q-4 -33 -20 -84q-20 -27 -461 -19q-51 2 -51 4h-4l6 31q2 24 2 49zM238 1214q2 12 6 35h4v-6h4q-8 -15 -14 -29zM246 1253q6 35 9 36t3 3h4q-6 -23 -16 -39zM266 1352l25 69h8q-2 -4 -2 -10h4q-16 -29 -27 -84q-2 -4 -6 -4q0 17 -2 29zM260 1303q4 20 8 20v-6h4zM-4 -25 q6 2 10 -4q-4 0 -10 4zM6 -98q12 -6 45 -11q37 -4 41 5h4v6q-72 8 -67 20q-13 -6 -23 -20zM137 -25q4 0 53 7q41 4 136 4v-6q-45 -4 -140 -5h-49zM215 -78q4 4 8 4q-6 -12 -4 -4h-4zM864 1597q10 39 15 39v6h12l-2 -14l-17 -35zM549 53h4q4 -14 16 -14l11 45l-5 20 q-12 4 -26 -51zM745 944l5 19h4zM801 1155q-4 -25 -8 -49h8q10 57 6 57q-2 0 -6 -8zM582 152h4q4 2 6 10zM813 1194q14 10 16 20h-8zM864 1425q4 6 10 31q-4 -11 -10 -31zM872 1464q4 4 11 17h-2v4zM831 1264h5v-4q23 49 6 49zM852 1352h4q-2 -2 -2 -4q23 49 6 49z" />
<glyph unicode="0" horiz-adv-x="1947" d="M1876 563zM1853 1374q0 -78 -8 -229q-4 -39 -10 -121h-10q0 160 12 348q4 16 16 2zM1806 61zM1802 395q0 33 -4 -256q0 -23 -6 -22v-4h-8q-6 16 -6 106v150q0 27 6 26v6h4q8 -4 14 -6zM1774 -37h-5h5zM1747 -33q-12 -8 -43 -8v8h43zM1751 760q0 -6 4 76q2 49 -4 71v43 q0 78 4 107l-14 37q0 14 10 24v4q-20 0 -4 47q-6 0 -6 5h-4q0 53 14 157q-4 0 -6 10q0 4 6 78q2 49 -10 76v72q-14 53 -99 43q-88 -10 -92 0h-219v6h19v8q-2 0 -9 10q0 2 -43 0q0 -10 15 -18v-6h-41v6q10 0 18 8q4 0 4 10q-4 0 -4 4q-33 0 -43 -10q4 0 -16 8q-16 8 -43 -8 v-12h55v-6h-553q-39 0 -118.5 -4t-118.5 -4q-6 2 -29 6q-10 0 -33 -2q-90 6 -110 0h-19q-20 0 -29 -9h-8q0 4 -6 9q-125 0 -125 -99q0 -37 15 -51q-2 -10 -11 -47q-2 -45 0 -78q4 -61 11 -186q-2 -82 2 -246q10 -188 12 -182q-4 -31 -10 -92h-4q-2 10 -11 73q0 129 -4 140 q0 59 -6 59v-41q4 -76 4 -78q0 -231 -2 -299h8v6q10 0 11 121h4q4 -14 10 -43q0 -18 -2 -55q2 -12 4 -37l-8 -94l2 -125l-8 -41v-78q2 -63 2 -82h4q0 -4 65 -4h350q874 6 934 4q250 -4 256 4q12 20 9 70q-6 72 -7 72q6 141 15 245q2 68 8 205q4 29 8 55q4 40 -4 58z M1294 563q2 8 4 19h7q0 8 6 -35q2 -23 -11 -29q-8 -4 -65 0q-23 -2 -88 -6q-49 4 -146 8q-27 2 -73 -4q-55 -8 -76 -8q-70 6 -213 10q-4 0 -21 -4q-12 -2 -20 0q-10 2 -20 41q18 0 16 33q0 33 -10 45v6q-6 0 -11 -51q-4 -49 0 -66q-14 0 -16 78v105q0 8 -2 12v373 q0 49 -23 59v10h5v4q12 0 36 -4v-4h5q0 -12 -5 -33q92 0 164 15q0 4 -3 4t-70 4q-41 4 -62 -4v14h4q0 2 66 0q180 -6 319 2q203 8 262 6v-4h4v-4h-22v-6q72 0 70 -35q-10 -12 -25 -53q10 4 29 10q2 -14 8 -51q-2 -80 -17 -266q-2 -39 -14 -115q0 -10 21 -10h30 q-20 -12 -38.5 -23.5t-22.5 -42.5h18zM1700 66h-4v4q-2 0 -10 14v154h4q0 -82 10 -107v-65zM1704 885h-4q0 43 4 51v-51zM1700 965q-6 0 0 4v22h4q0 -4 4 -4q-2 -10 -8 -22zM1704 1018q-2 4 4 10q-2 0 -2 -5t-2 -5zM1714 1155h-10q0 12 10 23v-23zM1714 1210q-10 0 -10 54 q0 49 4 63v-4h6v-113zM1704 1346q2 6 4 22v-4h6q-4 -6 -10 -18zM1708 1401v0q0 2 -4 10h4v-10h6h-6zM1710 1440q-2 -4 -2 -2l2 2q0 16 4 22q-2 -8 -4 -22zM1704 881q-8 -8 -8 -15q4 9 8 15zM1700 37q-18 -6 -19 0h19zM1638 1628q-6 -12 -14 -12v4h-4v4h4q10 12 10 4h4z M1569 37q-10 -8 -60 -8v8h60zM1434 1620q-27 -4 -41 -4v4q33 8 32 4q3 -2 9 -4zM1421 33zM1378 33q-16 -4 -55 -4v4h4v4q37 0 51 -4zM1313 33l-37 -4v4h37zM1294 541q-14 -14 -14 -4h-4v8h14zM1268 573q-25 -20 -25 -6h-4v11q9 -3 29 -5zM1243 629q-14 -14 -14 -4h-4v8 q6 -2 18 -4zM1229 1149q-10 -8 -27 -8q-39 4 -28 4v4h55zM1225 549q-12 -8 -19 -8v8h19zM1210 563v-8q-8 4 -8 8h8zM1165 1620q-18 -6 -47 -4l-47 4v8h4v6l51 2zM1165 567q-6 -12 -28 -12v12h28zM1114 1149q-8 -4 -41 -10q-35 -6 -35 2h-4v4h4v4h76zM997 1145q-18 -2 -18 4 q6 0 18 -4zM983 1634q-6 -12 -29 -18t-22 4q-14 14 -23 14v4q56 0 74 -4zM870 1141q-14 -6 -36 -8q-16 0 -47 2t-42 2v4q98 8 125 0zM764 33l-33 -4v4h33zM727 29zM621 786q-2 -23 -11 -22zM592 1028q-18 -113 -19 -133h-4v4h-6l2 117l8 31h5v-5zM578 881v-19h-5v4h-4 q0 4 4 15h5zM424 10q-14 -4 -55 -4v4h55zM346 6zM303 14q-8 -6 -53 -10q-45 -2 -45 2h-8v4h8q39 14 69 8l25 -8zM160 -4zM98 135q0 -14 -4 -39.5t-4 -38.5q-6 0 -14 4v5h-4q0 2 8 38q6 25 18 31z" />
<glyph unicode="1" horiz-adv-x="1003" d="M872 723q0 -133 -8 -133v-6h-6v153h6v-6h4q2 -2 4 -8zM872 446l-4 -47h-4v9q-4 22 8 38zM868 1102v-72h-4q-4 49 4 72zM825 1516q-2 -10 -4 -156l-4 -291q4 -10 -4 -123q0 -33 -2 -96q-2 -31 -4 -94q2 -8 2 -47q-8 -150 -16 -447q-2 -23 -6.5 -70t-4.5 -73v-53 q4 -8 6 -29q2 -23 -6 -23v-6q-20 -4 -37 -8q-113 -12 -190 4q-14 2 -14 0q-14 -6 -68 -2q-10 0 -30.5 -2t-30.5 -2l-72 10q-10 0 -29.5 -2t-25.5 -4l-35 6q-33 4 -33 6h-4q-4 31 -10 95q0 47 4 129q6 94 6 129q0 2 -2 118l-6 47l2 156q-2 51 -8 154v260q0 117 -2 100l16 295 q-4 31 2 80q18 27 535 18q61 0 61 -4h6v-28zM825 432v-33h-4v4h-4q6 19 8 29zM825 393q0 -33 -4 -33v-4h-4q2 21 8 37zM825 299l-8 -66h-10v9h-4q10 29 8 82q0 4 6 4q6 -19 8 -29zM821 346q0 -18 -4 -18v4h-6zM788 1630q-14 -4 -14 4q4 -2 14 -4zM754 1702q-14 4 -54 8 q-45 6 -45 -4h-6v-4q86 -8 86 -21q13 7 19 21zM621 1630q-2 -2 -62 -6q-45 -4 -156 -4v4q51 6 162 6h56zM516 1681q-4 -4 -8 -4q4 10 4 4h4zM188 61q0 -39 -4 -38v-5h-14v15q6 23 10 33q4 -3 8 -5zM160 1554h-4q-10 14 -25 15v-43l10 -21q17 -4 19 49zM160 694v-20h-4 q2 6 4 20zM152 489q-2 16 -7 48h-8q2 -55 6 -56q5 2 9 8zM145 1458h-4q-4 0 -4 -8zM145 451q-14 -8 -14 -19h10zM145 227q-4 -6 -4 -28q2 10 4 28zM145 190q-8 -8 -8 -14h4v-6q2 6 4 20zM141 385h-4v4q-14 -47 4 -47v43zM141 299h-4v4q-14 -47 4 -47v43z" />
<glyph unicode="2" horiz-adv-x="1947" d="M1894 23q-8 -10 -20 -11q-4 6 -4 11h-6q0 4 6 4v6q8 -4 24 -10zM1864 393v-63.5v-61.5q-2 -12 -4 -35h-7v7h-4q1 65 15 153zM1843 109v-39h-10v6h-4v4v39h10q2 -4 4 -10zM1843 41v-8q-2 8 0 8zM1812 1610v-58h-4v4h-6q0 19 10 54zM1798 27v-9q-10 4 -10 9h10zM1794 561 q-10 -10 -61 -10v6h4v4q41 2 57 0zM1747 469q-8 -4 -25 -4v4h4v6q6 0 7 4q6 -4 8 -5t6 -5zM1692 551zM1790 1210q0 16 4 84q4 51 2 84q0 4 -2 54q0 14 4 67l-4 78q-6 63 -29 63q-10 0 -22 -12q-53 0 -62 -4q0 6 -6 10q0 10 -14 -10h-6q0 4 -10 18q-379 0 -539 -4v-4 q-4 0 -4 -24h-184q0 4 6 4q55 2 168 6l-7 14q0 -4 -14 0q-16 4 -108 4q-100 0 -121 -4l-6 -24q-2 8 -5 24h-6q0 2 -61 4q-57 2 -154 -2q-109 -6 -151 -6q-141 0 -117 0q-14 2 -45 4q-29 0 -72 -14v-45q0 -27 2 -80q2 -8 9 -45v-283q0 -6 16 -8q84 -12 135 -8q10 2 27 8 q78 2 71 2q121 -4 422 -4q111 0 244 8q53 2 154 13q0 -6 11 -14.5t15 -9.5t4 -7q-16 0 -30 -29q23 0 22 -53q0 -23 -4 -58.5t-4 -41.5q-14 0 27 -15v-14q-6 0 -7 -14l-51 10v4h-4v-14h4v-4q27 0 37 -15h-6v-10q-12 2 -35 6q-41 2 -143 10q-18 0 -58.5 -6t-62.5 -6 q-125 0 -363.5 5t-365.5 5v4h-4q0 6 14 11q0 12 -70 4v-428q0 -23 5 -105q6 -68 2 -106l-11 -68q-4 -37 2 -125q0 -18 9 -47q20 -33 129 -33q29 0 75.5 3t57.5 3q18 0 69 3q43 2 68 2q63 -4 188 -11q18 2 58 2q37 0 157 -12l72 10q14 -2 36.5 -4t74.5 -4q29 -4 55 -8 q29 -4 57 6q0 4 13 0l18 -8q37 -4 201 0q170 2 185 14.5t22 186.5q8 197 14 221l-19 10q-31 20 -73 4q0 16 -107 19v-5q6 0 6 -6q10 -2 29 -4v-10q-45 0 -131 20q-23 -6 -72 -14q-86 -2 -168 0q-39 0 -258 8q-158 6 -256 0q0 8 -10 21q0 4 -24 0q2 39 4 86h6q0 4 4 4 q0 -4 5 -10t5 -11q6 -18 0 -51q49 0 66 4h-4q0 4 -11 15h-6q2 4 6 14q0 6 -12 21.5t-12 31.5h-6q0 6 -31 6v4h-4v19h4v6q12 0 42 -7t40 -7v4h4q0 4 -10 14h6q0 4 14 2q37 -4 209 -6q33 -2 150 -6q92 -6 151 -4q20 2 195 10q119 6 196 4v-4h6v-6l-102 -4v-4h-4v-11l182 15 v164q-4 0 -6 47t-4 53q0 118 2 356zM1651 1604q0 2 -2 6q4 -4 2 -6zM1651 1575h-6v6q6 0 16 4zM1610 532l-51 -6v6h51zM1606 586q-23 -4 -37 -6v6h37zM1528 1663q-20 -8 -21 0h21zM1253 1128q0 4 7 5v6l18 -6zM1198 565q-18 -12 -74 -14q-37 -2 -104 2q-78 4 -88 4v8h10 q10 4 62 4q33 0 96 -2t98 -2zM907 479h-106v4q61 8 106 -4zM328 1690q-14 -6 -47 -19q4 0 -66 0zM389 1114q-16 -10 -41 -10v10h41zM297 1133q-25 -8 -31 -9q6 -2 21 -6v-8q-51 -12 -51 -6h-5q4 20 9 35zM221 70v-4q-6 -10 -10 -11q0 20 -6 21q-4 -12 -4 -21h-11q0 37 15 49 q4 1 16 -34zM215 1389l-4 -97q8 -20 0 -20v-4h-10v4h-6q2 8 0 102q-2 78 12 86zM215 1196q-2 -20 -4 -39h-6q0 8 3 26.5t3 12.5h4zM211 1546q-23 -53 -31 -53q10 39 10 96q4 0 5 6q6 -6 10 -6zM205 911l-2 -100l-8 -43h-5q0 158 11 158q0 -5 4 -15zM201 422zM201 393v-43h-6 q0 25 6 43zM164 889h-4h4zM150 1575zM63 100q-2 -45 -10 -45v6z" />
<glyph unicode="3" horiz-adv-x="1947" d="M1786 438l-4 -100h-6q0 123 4 127q-2 -4 6 -27zM1767 -27q-2 -12 -4 -22h-10q-8 18 -18 18v8h6v7h4zM1763 55q-4 -23 0 -22v-8q-10 4 -10 8t2 17t2 5h6zM1731 297q-18 0 -19 -4zM1681 -23q-16 -4 -137 -4v4q110 4 137 0zM1333 913zM1776 1378l-9 86q-2 10 -4 37 q0 47 -24 53l-90 2q-12 0 -78 5q-23 -2 -68 -5q-119 0 -248 5l-34 -2q-35 -10 -29 -11q-45 6 -135 15h-37q-29 -2 -37 -2h-74v-5q-31 8 -131 9v-4q-6 0 -6 -50q-18 0 -8 45q0 4 -4 5v4q-55 0 -165 2t-165 2q-135 0 -139 -2q-10 -2 -17 -13q-14 -18 -12 -53q4 -57 4 -59 q-8 -72 -16 -213q0 -37 -6 -111q14 -2 37 -8h90q39 4 110 8q31 -2 97 -4h186q47 -6 141 -12q186 -10 410 12v-4h6v-10q-2 0 -21.5 -9.5t-25.5 -9.5l-150 -8v-10l131 2l56 14q39 2 45 -84q6 -78 -4 -104q0 -6 -9 -10q0 10 -22 14q-20 2 -29 -2l-22 -25q-10 0 -28.5 8.5 t-31.5 8.5q-182 -6 -450 0q-225 4 -453 8q-12 6 -41 14q-12 0 -21 -8t-12 -154q-2 -90 -4 -178l52 -10q61 -2 182 -8q39 0 102 4q72 4 103 4q53 0 174 -2q113 -4 172 -4q70 2 241 2h7q0 -14 11 -43t11 -43q0 -18 -14 -33v-4q-2 0 -2 -4q0 -20 24 -33q0 -8 -12 -26 q-12 0 -39 3t-39 3h-78q-6 0 -151 6l-82 -8l-119 4l-108 -8v8l55 10v4q-72 0 -107 -2q-16 2 -49 4q-27 -2 -82 -2q-14 2 -26 19q-12 0 -47 -15q0 8 -13 6q-12 -2 -33 -6q-51 4 -126 -4h-7v-94.5v-93.5q0 -12 -6 -56.5t-6 -68.5q0 -45 19 -62q8 -8 94 -10q57 0 162.5 3 t115.5 3q20 0 55 4t52 4q170 4 336 7q115 0 229 -2q39 0 227 -7q141 -4 228 -2q2 49 6 146q6 92 0 106v4q-6 0 -6 4q6 0 14 45q4 27 4 134v215q4 35 6 71q2 49 -6 70q2 90 8 272q4 39 11 115q-4 67 4 182zM907 1528q0 2 2 2q-2 2 -1 2t1 -2zM1317 481q-8 -68 -6 -84v-4 q-6 0 -10.5 30t-8.5 34v32h11q4 0 2 9q-4 16 -35 32q0 33 30 33q14 0 25 -14h4q-4 -9 -12 -68zM1251 899v-8q-10 -4 -18 -4v16h10q6 -2 8 -4zM1251 397h-4h4zM1233 539q-8 -8 -19 -9q-4 4 -4 9h-4v4q17 -2 27 -4zM1229 995q-8 -8 -15 -8v4q6 0 7 4h8zM1174 -23 q-10 -8 -68 -8v8h68zM1083 1597q-12 -10 -22 -10v6h4q6 0 18 4zM1038 1597q-12 -4 -37 -10v6h5v4q14 2 32 0zM1020 426q-16 -6 -55 -6v6h55zM938 1606q-10 -8 -25 -9v5h7q6 2 18 4zM754 1575zM512 1575zM485 -27q-18 -8 -137 -4q-8 0 -8 4h-4v11q6 0 51 2h53q29 -5 45 -13z M418 1630q-16 -12 -45 -12q-18 0 -53 6t-50 6v4h11v4q39 -8 137 -8zM326 1583q-10 -4 -33 -4q-27 0 -27 8h-4v6h4v4q37 -2 60 -14zM322 539q-55 -16 -56 0h-4v4q37 0 60 -4zM248 1552l-4 -55h-4q0 41 8 55zM211 1214zM211 1192v-33h-8zM211 1145q-2 -23 -8 -23zM211 244 l-4 -156h-4v4q-16 23 -19 23q14 41 13 112q-4 90 0 117q2 23 6 23q0 -43 8 -123zM207 1587v-8q-18 16 -19 23h11v-5q2 -4 8 -10zM207 1565q-8 -25 -8 -23q-4 0 -4 4h-11q0 10 4 10q8 14 15 15q2 -2 4 -6zM207 918q0 -23 -4 -63t-4 -60h-4v4h-7q2 33 4.5 67t14.5 52zM195 51 q0 -23 -7 -22v-4h-4q-4 86 4 86q1 -21 7 -60zM180 371v-70h-4v10q-6 40 4 60zM166 1501v-26h-4q2 8 4 26z" />
<glyph unicode="4" horiz-adv-x="1947" d="M1780 1305v-5q-4 -4 -4 -8h-9q0 8 5 27zM1776 1274v-10q-8 4 -9 10h9zM1776 1231q-14 -82 -15 -125h-4v6h-4l6 96q2 10 8 29zM1776 459q0 -57 -2 -170q0 -20 -7 -84q-6 -53 -6 -88q4 -8 6 -35q0 -29 -6 -29v-6h-4q0 -33 -2 131q-2 111 2 174q5 93 19 107zM1761 1102v-27 h-4zM1735 1399v-139l-4 -37h-7q-2 27 -4 82q0 18 2 51t2 47q6 0 7 -4h4zM1735 451v-19h-4q0 7 4 19zM1735 408zM1735 381q-4 -25 -13 -174q-2 -6 -6 -6v96q-1 70 19 84zM1731 1448v-37h-7v10q-12 33 -2 49q1 -2 9 -22zM1724 1546q0 -47 -18 -47v-250q4 -8 4 -67 q0 -39 -2 -111t-2 -108v-93q0 -12 4 -41v-41q0 14 -4 -208h14v-11q-14 -8 -14 -350q10 -18 6 -82q-2 -45 -6 -90q0 -4 -4 -4v-4h-383q-6 0 -76 4q-2 119 14 125q10 -55 11 -84q4 0 4 6q2 0 4 4q8 14 8 41q-2 45 -2 47q6 14 12 43l-2 45l19 88q4 27 10 82q2 12 11 42t9 42 q-29 20 -28 51h-8v-10q-14 -41 -15 -63q-14 12 -16 35q2 -45 2 43h-19q-18 -23 -57 -27t-76 -6q-16 -6 -55 -12q-139 -8 -403 4q-10 0 -306 22v-18h15v-4q-102 -6 -115 12q0 2 -2 6q-6 29 -2 74q6 70 6 74q0 57 2 169q4 61 10 177q-2 37 -4 106q0 74 4 143q2 23 9 70 q-2 39 2 117q-4 39 8 106q4 8 31 11l327 -2q12 0 36 -5.5t34 -5.5q0 -4 -4 -4v-8h4q8 -53 4 -137q-4 -139 -4 -142q0 -55 0 -40q0 -20 -4 -97q-4 -59 -2 -98q2 -23 13 -65t11 -68q6 0 6 4q8 12 17.5 26.5t21.5 14.5q16 0 17 -14l-19 -5v-14h4v-4h269q12 0 36.5 3t36.5 3 q27 -2 78 -6q20 2 41 4q14 2 25 6v13q-25 10 -29 36q2 25 2 52q0 10 -3 39.5t-3 44.5h4v-5q14 -10 14 -43q2 -6 -1 -34.5t1 -28.5v-14h11q8 23 14 39q2 8 18 118q6 23 15 74q0 8 -5 24.5t-5 26.5q4 37 2 111q-6 10 -17 33q2 18 4 59q0 12 -16 29.5t-12 36.5q2 2 4 8l2 2v2 q8 12 28 14q20 0 56.5 -3t48.5 -3h49q33 2 49 2t78 -4q51 -2 80 0q41 2 41 0q12 -8 22 -33zM1724 788zM1724 760q-2 -23 -8 -23q4 13 8 23zM1724 709v-82h-8q0 29 8 82zM1720 608zM1716 6q-8 -8 -37 -10q-20 -2 -55 0l-47 2v4q137 4 139 4zM1559 2q-23 -10 -97 -10v6z M1456 -8q-12 -4 -106 -4v4h106zM1286 492v-15q-4 9 0 15zM1253 1444l-4 -101h-6v97q4 2 10 4zM1253 1264zM1253 1241v-29h-10zM1243 502q-8 -10 -22 -10v4h4zM1239 440q-8 -70 -27 -69v6h-6q8 34 33 63zM1165 492q-6 -4 -16 -9q-10 -2 -10 4h-6v9q12 0 32 -4zM1118 981 q-12 -10 -133 -12q-4 0 -4 4h-4v8h8q10 4 66 4q57 0 67 -4zM938 981q-10 -8 -37 -8v4zM897 977q-6 -4 -18 -6q-14 -2 -14.5 4t-4.5 16h19zM834 987q-2 -14 -29 -14v14h29zM791 1587v-14q-2 6 0 14zM764 1087l-6 -55h-8q-8 10 -23 10q-2 23 6 56q6 0 7 -23.5t10 -23.5 q2 43 8 43v-7h6zM758 1597q0 -49 -4 -143q-2 -25 -4 -74h-5l-4 148l-10 63q13 6 27 6zM735 1171v-47h-8q0 18 8 47zM735 514q-8 -8 -25.5 -16.5t-50.5 -5.5q-39 0 -38 18q14 2 45 4q8 -6 18 -8q14 -2 14 8h37zM573 514q-18 -8 -65 -8v4h6v4h59zM573 496q-6 -4 -36 -9 q-33 -4 -33 5h-4v4q65 2 73 0zM551 1616q-57 -18 -158 -2q-8 0 -8 6h4q10 -2 23 -2q14 0 45.5 4t46.5 4q29 0 47 -10zM430 1638q-14 -4 -92 -4v4h92zM264 1606v-9l-18 -6v11q6 2 18 4zM231 782l-10 -161q4 -6 4 -21q0 -16 -8 -16v-4h-4q0 66 10 194q2 2 4 8h4zM195 1487 q-8 -92 -11 -232h-4v5h-4q0 45 2 137q3 63 17 90zM180 1038q-8 -33 -14 -32q4 22 14 32zM180 668q-4 -18 -4 -107h-4v4h-6q-13 72 14 103zM172 510q0 -23 -6 -23q2 9 6 23z" />
<glyph unicode="5" horiz-adv-x="1947" d="M98 1651q10 -29 29 -29q0 4 -4 4v4l4 21q-8 0 -8 -6q-9 2 -21 6zM109 12q8 -10 18 -10q6 6 6 10h4q0 4 -4 4v4q-8 -2 -24 -8zM137 377v-62.5v-60.5q2 -12 4 -33h6v4h5q-1 66 -15 152zM156 96v-37h10v4h4v7v36h-8q-2 -4 -6 -10zM156 31v-11q2 9 0 11zM184 1575v-57h6v4h5 q-1 18 -11 53zM199 16v-10q10 6 10 10h-10zM248 453q8 -6 24 -7v7h-6v4q-4 0 -4 4q-6 -4 -8 -5zM209 831q-2 -8 -3 -54t-7 -46v-160l174 -14v8h-4v6l-97 4v5h4v4q74 4 187 -4q164 -8 184 -9q55 -2 144 2q111 6 139 7q68 0 196 6q16 2 17 -2h4q-10 -8 -10 -13h6v-6q8 2 39 8 q25 6 37 7v-5h4v-18h-4v-6q-29 0 -29 -4h-4q-2 -16 -13.5 -31.5t-11.5 -19.5q2 -8 4 -15h-4q-10 -12 -10 -14h-4q16 -6 61 -6q-4 35 0 51q2 4 6.5 10t4.5 10q4 0 4 -4h6q2 -49 4 -86q-25 4 -25 0q-8 -10 -8 -18q-92 6 -244 0q-207 -10 -241 -10q-78 0 -160 2q-23 6 -68 14 q-82 -20 -125 -20v10q10 0 29 4q0 4 6 4v6q-102 -4 -102 -20q-39 18 -70 -2q-16 -12 -16 -13q6 -23 14 -215q6 -172 23 -186q10 -10 172 -12q154 -4 190 2l17 6q12 4 12 0q27 -10 53 -6q27 4 51.5 6t73.5 4q18 4 33 6l67 -10q115 12 150 12q18 -2 53 -2q59 4 178 10 q23 0 64 -2q49 -2 65 -2q10 0 55.5 -3t71.5 -3q102 0 121 33q6 8 8 45q4 86 2 125l-10 65q-2 39 2 105q4 82 4 104v420q-66 8 -65 -4q14 -4 14 -10h-6v-4q-119 0 -344 -4.5t-342 -4.5q-23 0 -60.5 5.5t-56.5 5.5q-45 -4 -133 -8q-12 -4 -35 -9v11h-4q8 14 33 14v4h6v14h-6 v-4l-47 -10q0 14 -6 14v15q39 14 24 14q0 6 -3 41t-3 55q0 55 21 56q-14 29 -29 28q0 4 3 5t14.5 10.5t11.5 13.5q14 -4 145 -12q125 -8 229 -9q285 0 400 5q-6 0 67 -3q14 -4 25 -8q49 -4 129 8q14 2 14 9v278q2 14 8 43q0 27 3 80v43q-14 14 -68 16q-14 -2 -43 -6 q23 2 -111 2q-39 0 -143 4q-90 4 -145 3q-57 -2 -58 -5h-6q0 -8 -4 -22q-2 6 -4 22q-20 6 -117 7q-86 0 -100 -7q-14 -4 -15 0q-2 -4 -4 -14l158 -4q6 0 6 -4h-174q0 23 -4 22v5q-152 6 -510 6q-10 -14 -10 -21h-4q-14 23 -15 10q-6 -4 -6 -10q-8 6 -57 6q-12 10 -21 11 q-23 0 -26 -62q-2 -39 -6 -78l6 -65q-2 -16 -4 -51q0 -33 2 -84q4 -66 4 -82q0 -25 2 -351zM340 1572v0v0zM330 1550q8 -4 14 -4v-6h-4zM383 565q18 -2 33 -4v4h-33zM455 1626q18 -6 18 0h-18zM690 1106v-57h4v4h6q-4 47 15 47q0 6 -6 6v4q-7 -2 -19 -4zM715 1063v-10h8 q6 -4 6 0h4v6q-10 0 -10 4h-8zM748 1063v-14q10 0 10 4h4q-4 4 -14 10zM762 936q12 -10 18 -10v4h6v6h-24zM780 1063q10 -18 74 -19v5h-6v4q-29 -4 -41 0zM854 461l68 -4v4h-11q-4 2 -57 0zM979 1073q29 -4 47 -6v6h-47zM987 457q35 -12 35 0h4v4q-25 -2 -39 -4zM1040 461 h103v6q-60 6 -103 -6zM1286 1669q18 -16 141 -16q166 0 162 0q14 -6 43 -19q-2 2 64 2q-4 16 -23 37q-18 -4 -59 -6l-164 8q-96 4 -164 -6zM1532 1085q14 -8 37 -8v8h-37zM1618 1106q23 -10 29 -10q-6 -2 -19 -4v-11q47 -10 47 -4h4l-8 33zM1636 1034q10 -10 29 -10v6h-4v4 h-25zM1690 59v-4q6 -10 10 -10q0 18 4 18l6 -18h8q0 37 -14 47q-4 0 -14 -33zM1696 1356l4 -94q-10 -18 0 -19v-6h10v6h4q-2 8 0 100q2 76 -10 84zM1696 1167q2 -23 4 -39h4q0 8 -2 27t-2 12h-4zM1704 887l2 -99q2 -14 8 -43h4q0 156 -8 156q-2 -4 -6 -14zM1710 406z M1710 377v-43h4q0 27 -4 43zM1839 88q2 -43 10 -43v4z" />
<glyph unicode="6" horiz-adv-x="1947" d="M1788 1397q-2 -10 -4 -19h-4q2 6 4 19h4zM1784 1217zM1751 1102q-6 -6 -41 -6v6h4q12 8 37 0zM1737 1120q-23 -10 -23 0h-4v4q17 -2 27 -4zM1700 313zM1706 291q-2 -8 0 -8q-6 4 0 8zM1706 236h-6v4q-6 -16 2 -21q0 5 4 17zM1669 1135q-53 -6 -39 -7q23 -3 39 7z M1593 930q-14 -8 -41 -10q-18 -2 -49 0q-39 2 -47 2q-14 -2 -14 4h-6v4h157zM715 1087h-4v0h4zM1405 438q-14 -18 -139 -18v6q14 6 51 18q29 -4 88 -6zM1399 481q-12 -12 -13 -14h-32q-4 6 -4 10h-7v4q48 2 56 0zM1335 1606l-37 -4v4h37zM1288 922q-6 -10 -24 -15 q-12 0 -35 2q-29 2 -33 2v4h4v7q25 6 88 0zM1284 485q-16 -14 -88 -14v14h4v4zM1280 1606q-14 -4 -76 -4h-125v8q72 -4 140 -4h61zM1061 426v-6l-184 10v8q133 0 184 -12zM918 926l-41 -4v4h4v4q12 -2 37 -4zM854 449q-8 -4 -14 -5q4 1 14 5zM836 489q-6 -4 -19 -8 q-14 -2 -14 4h-6v4h39zM1757 846q-2 8 -6 14q-18 14 -129 12q-45 -2 -119 -2q-94 2 -117 2q-12 0 -36 -4q-334 18 -432 15v-4q33 0 95 -6.5t91 -8.5v-8q-20 0 -57 4q-45 4 -60 4q-96 2 -282 19q2 -4 6 -19h-6q0 -10 -23 10h-4q0 4 8 9v6q4 0 -22 8v6h4q0 4 10 8q0 4 18 -4 q0 6 4 27q2 41 -36 51q0 61 -5 70v47q8 0 24.5 -7.5t27.5 -7.5q-2 4 -6 9h-5q0 18 84 26q70 8 107 4q29 -2 246 -2q162 0 364 11q94 4 107 0h10v-11l-283 -8v-6h8q0 -2 29 0q82 0 166 -2q131 2 139 20q4 0 11 11h-11q-20 -2 78 -4l2 188q0 113 -6 125l10 139q-27 10 -71 4 q-61 -6 -72 -6q-35 2 -102 6q-131 0 -394 2q-43 -2 -125 -4q-20 2 -59 2q-4 0 -7 -2t-6 -5t-7 -5q-25 0 -76 4t-72 4q-154 4 -385 4q-131 0 -145.5 -9t-14.5 -28q0 -6 6.5 -17t8.5 -15q0 -20 4 -64q0 -8 6 -33.5t4 -40.5q2 -115 0 -344q-6 -29 -14 -88q-2 -23 12 -192 q0 -41 18 -113v-4q-6 0 -6 -4q-6 0 -10 14l-8 23l-4 41q0 35 -4 47q0 72 -3.5 84t-7.5 41q0 -6 -4 -6q0 -18 2 -65.5t2 -72.5l-6 -172q0 -6 4 -17t6 -15q0 -27 2 -70q-6 0 -6 10q-4 0 -4 -47h4v29h11q0 -27 4 -66q4 -49 4 -65q4 -61 6 -185q-8 -31 -4 -79q0 -2 2 -5 q8 -8 24 -12q39 -6 105 -4q102 2 104 2q-57 2 639 2h365q172 0 185.5 2t19.5 21h4q0 -31 41 -19q14 0 6 23q0 -4 -10 0q-4 0 -4 4h4q0 12 9 31.5t9 29.5t-4 19l8 84l6 411q0 169 -4 189zM821 852q-74 -23 -92 4q16 0 47 -2t45 -2zM1427 481q0 -39 48 -55q0 -6 -7 -6 q0 -12 -24 -12q-25 0 -35 8v4q-20 -4 -61 -17l-258 -8q-59 4 -242 8q-70 0 -74 -1t-6 -3l-8 -6q-10 0 -22.5 11.5t-14.5 13.5q-8 0 -27 2v-27h-10q0 4 -4 4v4l14 37q-4 0 -10 11q0 2 -18 -5q-2 8 -9 27q0 8 5.5 29.5t11.5 23.5q10 4 44 -2t44 -6q86 10 336 2q43 -2 184 -4 q-4 0 102 4l56 -8q16 0 45 -2q-15 -25 -60 -27zM741 1087q-2 -20 -4 -36h-4v4h-4q-2 8 0 16q4 12 4 16h8zM696 1051q-10 -29 -24 -29v10q10 14 10 33h4v-6h4q2 -2 6 -8zM678 971h-6q0 6 -2 8t-6 2v-10q-6 -8 0 -8v-15h8q2 9 6 23zM664 893q-14 -18 -15 -29q-4 0 -4 -4h4v-4 q9 8 15 37zM635 12q-27 -23 -379 -22q-41 0 -41 4h-6v6h6v4q133 0 420 8zM575 1634q-18 -6 -49 -4l-49 4v4zM311 1606q-6 -4 -4 -4zM293 1597zM201 129q-4 -70 -15 -70v4h-4q0 113 4 201q0 18 4 19v-11h7q-14 -77 4 -143zM190 313v-26h-4q0 4 2 13t2 13zM182 0v-6h-24v6h24z M172 133v-74h-4v4h-4q-2 76 2 111q2 -14 6 -41z" />
<glyph unicode="7" horiz-adv-x="1947" d="M1794 399q-8 -18 -16 -18q-2 0 -2 4h-7v25h11zM1776 197q0 -31 -3.5 -88.5t-3.5 -85.5q-18 0 -18 4h-4v102q8 2 15.5 32t13.5 36zM1751 1657q-23 -10 -59 -10v10q33 10 32 4q-6 0 -6 -4h33zM1733 -41q-12 -4 -74 -6q-12 0 -43 -4t-51 -4q-2 0 -99 10v4q45 0 131 2 q122 4 136 -2zM1487 1767h-72v7q43 -1 72 -7zM1487 1696v-10q-2 8 0 10zM1436 1696q-14 -2 -25 -4v4h25zM1653 1606q-20 -2 -60 -7q-33 6 -98 15q-74 -2 -219 -2q-94 0 -219 -2q-23 0 -66 2t-63 2q-180 0 -350 -8h-195q-158 0 -172 -15.5t-14 -40.5q0 -2 2 -71q0 -8 8 -45 q6 -29 6 -48q0 -2 -16 -256h4q0 -6 18 -6q66 2 201 0q59 -2 182 -8q86 -2 229 0q170 4 232 4h59v-4q-8 0 -8 -10q0 -6 8 -21v-4h4q2 14 7 35q-6 0 -7 8q6 0 15 -4v4l6 -4q4 0 0 -14h4v-4h8q0 27 29 26q20 0 45 -12q14 -4 27.5 -8t11.5 -21q0 -2 -10 -108q2 -18 -7 -242 q4 -25 7 -82q-6 -100 -15 -299l6 -53q-2 -80 -2 -88q0 6 -6 -100q-4 -78 4 -92q2 -2 2 -3q6 -8 478 -8v6q6 0 4 48q0 47 -4 59q0 178 26 629q0 8 8 469q2 51 6 184q6 117 7 182q-41 9 -123 17zM1360 -16q-10 -10 -19 -11v7h-4v4h23zM1323 -16q-18 -6 -18 0h18zM1221 950v-43 q-14 20 0 43zM1221 442v-32h-11q5 18 11 32zM1206 1053zM1006 1647q-14 -14 -15 -5q6 0 6 5h9zM954 1642l-2 -2t-6 -2q4 10 4 4h4zM918 1642v-4q-4 -6 -9 -6q-6 6 -6 10h15zM852 1642q-12 -10 -23 -10v10h23zM778 1638q-8 -10 -47 -18l-201 -2q-74 -2 -147 -6q-90 -4 -150 2 q-12 2 -30.5 13t-30.5 11v9q37 2 117 2q14 0 49 -6.5t53 -4.5q27 2 80 9q4 -4 4 -9q37 18 88 7q8 -2 25 -7q14 14 92 11q71 -3 98 -11zM238 1102q-33 -16 -33 -6h-8v10h8q13 4 33 -4zM182 1503q0 -139 -6 -215v-57l-10 -86q0 -39 -3 -41t-9 -2q12 78 8 356q0 8 -4 20.5 t-4 18.5q27 14 22 14q2 -2 6 -8zM176 1550q4 -2 2 -6q-4 4 -2 6zM176 1518z" />
<glyph unicode="8" horiz-adv-x="1947" d="M1862 1569q0 -29 -4.5 -82t-4.5 -78q0 -12 2 -68q-2 -23 -6 -22v-4h-10v4h-4q2 94 8 141q0 18 -4 58.5t-4 58.5q9 -2 27 -8zM1849 758v-123q-2 -37 -6 -109h-12q-2 -10 -2 80v123q0 18 2 19v10q4 2 12 4q2 -2 6 -4zM1839 827q0 -8 -4 -8q-4 -6 -4 0h-6q8 4 14 8z M1839 465q-6 -4 -4 -4zM1839 432v-22h-4v4h-4q4 12 8 18zM1821 -90q-14 0 -15 -6h6v-4zM1776 371h-4v10h-7v-25zM1776 328h-4v6q-6 -16 -3 -29q3 0 7 23zM1776 244l-4 28h-7v-4h-4q4 -76 11 -75q0 16 4 51zM1776 70q-12 8 -19 8v-12h4q4 -10 11 -11q0 5 4 15zM1761 178z M1765 154l-8 -66q8 11 8 66zM1716 1659q-41 -16 -41 4h8zM1602 1602q-51 0 -52 -5q19 1 52 5zM1536 1602q-27 0 -27 -5q9 1 27 5zM1473 1602q-12 -2 -23 -5q7 1 23 5zM1325 475q-8 -18 -37 -18v14q21 8 37 4zM1303 -29q-12 -6 -101 -6v10q31 0 101 -4zM1284 1597zM1288 578 l-4 -41q-4 0 -4 -7h-10q6 53 14 54q2 -2 4 -6zM1247 471v-10v10zM1233 1645q-23 -10 -70 -13q-33 -2 -88 0q-72 2 -80 2q-23 0 -22 4h-4v7h264zM1233 1597q-23 0 -23 -6q9 2 23 6zM1188 1597zM1180 1597q-66 0 -66 -6q23 0 66 6zM1087 1597q-47 0 -47 -6q37 0 47 6z M973 1597q-2 2 -2 5q-2 -3 2 -5zM950 1645q-6 -6 -43 -7v7h43zM762 1724q-14 -14 -14 -6h-5v6h19zM588 573h-6v5zM629 537q-12 8 -4 8zM592 1624q-20 -8 -57 -8q-59 0 -62 -2q-18 -2 -55 -8q6 0 -162 0v6q25 2 70 8q127 10 266 4zM582 1667q-8 -8 -13 -8q5 2 13 8zM555 1667 q-10 -8 -123 -18q-102 -8 -139 -9l-49 9v4h4v6q145 8 307 8zM1790 418l-6 24q-10 0 -8 -43h-4v-4q-4 0 -11 4v29q0 51 -4 61v5q-2 0 2 28q10 66 4 186.5t9 147.5h-7q0 10 -4 29l6 33q2 55 9 165q0 -14 -2 174l6 48l-2 94q-2 23 -6 65q0 31 -11 47q0 55 -8 86h-133 q0 4 12.5 6.5t24.5 2.5h-6q0 4 -13.5 9t-68.5 7q-18 0 -72.5 2t-83.5 2q-47 0 -134 -3t-132 -3q-215 0 -311 -4h-109q-78 0 -94 -14q-10 0 -29.5 2t-30.5 2q-12 -2 -41 0q0 8 -4 -4q-78 0 -110 -9q-2 0 -60 -14q-57 -2 -114 -2q-88 -2 -103.5 -15.5t-15.5 -31.5 q-2 -8 5 -23.5t9 -23.5l-2 -37v-62q2 -41 6 -75q4 -43 7 -37q-4 -18 -11 -58q0 -47 2 -141q-2 -18 -6 -55q6 -182 -2 -438q8 -14 14 -43q-10 -51 -12 -113q0 -12 6 -28.5t6 -24.5l-2 -37q2 -23 7 -58q0 -6 -2 -36q-2 -27 0 -43q2 -20 10 -33q0 -20 -4 -55q-8 -41 -9 -54h-6 q0 -4 -22 -4q0 -31 16 -39q4 -2 84 -2q115 -2 295 -2h381q27 0 119 4q74 4 119 2q2 0 92 -6q74 4 73 4q184 -2 251 0t126 0q6 0 49 -2q18 8 60 17q-2 23 -4 65q4 55 8 166q-2 146 2 160zM999 1597q-2 -4 -8 -10q0 4 -4 4q0 6 12 6zM889 1591q-10 0 -31 -4q0 4 31 4z M848 1591l-37 -4q0 4 37 4zM788 1591q-8 0 -26 -4q-1 4 26 4zM748 1591q-8 0 -23 -4q0 4 23 4zM647 1591v-8q-6 0 -10 8h10zM582 1587l-19 -4q1 4 19 4zM541 1587q-12 -2 -37 -4q0 4 37 4zM399 1577v10h19q-7 -4 -19 -10zM461 1585q16 2 35 2q-31 -10 -35 -2zM549 1182 q12 4 57 10q29 -4 90 -4l80 14q25 0 78 2l78 10l192 7q76 2 86 -7h7v-14h-7q0 -2 -41 -18v-11q47 0 74 15h4q0 2 -22 10h-4q57 16 75 16q29 0 43 -28q2 -12 9 -39q0 -35 -17 -94v-7q-16 6 -47 -4q0 -4 2 -9t8 -9q37 0 41 -39l-43 6q-14 -6 -45 -16l-45 2q-18 -2 -55 -8 q-86 -10 -160 2v-4h-6q0 -2 14 -15l-88 -4q-25 2 -78 4l-49 -6q-106 0 -110 1t-18.5 5t-22.5 2q-18 0 -54 -6t-36 -4q-8 6 -25 19q0 12 5 38.5t5 40.5q0 16 -6 29q0 33 -14 84q18 13 45 29zM1339 430l-88 -22q-37 2 -114 0q-72 -6 -60 -7q-41 2 -123 9q-43 -4 -129 -9 q-37 4 -110 9q-39 -6 -109 4h-6q0 2 25 10h-7q0 6 -12 18q0 6 -14 -10q-16 0 -29 39q-12 0 0 -43q6 0 6 -10h-6q0 -18 -35 10h-6q4 12 8 29q10 84 11 135q6 0 22 -4q104 6 84 6q49 0 64 4l-37 4q-147 0 -153.5 2t-6.5 8h4q0 12 41 9v4q4 0 8 11t6 13v4q37 -14 70 -6h31 q51 0 155 4q90 6 267 15q20 -6 65 -11q8 0 29.5 6.5t34.5 4.5q12 -4 37 -11q12 0 26 2q20 -4 25 -45q8 -4 26 -10v-4q4 0 4 -6q-4 0 -4 -4q-14 -2 -41 -4q0 -6 19 -33v-6q8 0 14 20h4l6 -24q2 -47 -10 -76v-4q4 0 23 -15zM104 59q0 -37 0 -36v-11h-8q-6 14 -10 101 q-2 53 -2 65q2 4 8 37q4 -10 4 -51q6 -18 5 -53.5t3 -51.5z" />
<glyph unicode="9" horiz-adv-x="1947" d="M1872 1141v-27h-4q2 9 4 27zM1853 104v-36h-8q0 11 8 36zM1817 1298q-6 -20 -11 -20v6h-4v4q10 25 8 25q3 -7 7 -15zM1817 1161q0 -86 -7 -86v-4h-4q-1 33 11 90zM1817 72v-33h-11v4h-4q5 19 15 29zM1665 1638q-10 -10 -25 -10v6h7zM1618 1628zM1608 -12zM1763 461 q0 47 7.5 143t7.5 139v394v133q0 55 -4 65v66q4 70 14 209q-20 10 -86 10q-154 2 -279 0q-84 4 -252 4q-25 -2 -75 -4q-2 0 -88 2q-147 -10 -152 -10q-12 0 -47 5t-53 3q-45 -4 -133 -12l-52 2q-18 -2 -57 -4q-25 0 -61 6q-45 6 -62 6q-29 0 -84 -2q-12 0 -56 4t-69 4 q-43 0 -57 -14q0 -2 -2 -6q-4 -10 0 -25q8 -23 8 -25q0 -33 -2 -81q-4 -145 -4 -142q0 -2 6 -71l-6 -84l8 -48l-8 -49l6 -32q-6 -49 4 -95h6q0 -2 -2 -4q-8 -63 2 -90l-20 -6q0 -31 14 -47v-44v-46l-4 -37q0 -53 90 -47q0 -4 -39 14h-4q2 2 2 4q16 4 53 -2q47 -6 54 -6 q29 -2 162 -2q20 0 69 -2q43 -2 68 -2q2 0 65 4q68 -10 137 -8q295 10 314 8q35 0 69 2q37 -2 68 -16q0 8 23 14q0 -2 10 -13.5t10 -19.5q4 -18 -2 -43l-8 -41h4q2 6 6 15h4q0 -33 -10 -43q-29 -27 -189 -21h-65q-8 2 -29 8q-33 2 -90 -6q-63 -8 -86 -8l-57 6l-51 -6l-91 2 q-16 -2 -43 -6q-78 0 -235 2q-53 4 -109 6q-72 2 -100 -16h-4q0 -4 14 -15q0 -80 -14 -94q2 -12 8 -37l2 -71q-4 -14 -10 -43q0 -18 12 -91q0 -16 6 -47h-4v-8q-14 2 -43 8q-4 10 -10 33h-14v-4q-14 0 4 -29q6 -10 18.5 -19t100.5 -9h299q356 0 678 4h282q90 0 141 2 q23 2 68 2q-6 0 51 -4q35 -4 48.5 5t15.5 124q2 113 -6 133q0 96 -3.5 111.5t-7.5 54.5zM1333 985q0 -4 -4 -10h-10q0 -4 -80 2h-53l-47 6l-80 -4q-20 2 -62 6l-43 -6q-74 2 -221 6q-166 -4 -158 -4v-6q-4 0 -4 6h-4q0 6 34 14.5t36 8.5h6v10q-16 0 -25 10h-57q-4 0 -4 4 q-2 35 0 98q-2 0 -18 15h-7v20q14 -2 39 -2q76 14 76 15q68 -4 199 -13q-16 0 119 0q25 0 68.5 -3t68.5 -3q8 4 28 8q47 10 99 6q18 -6 61 -14q16 6 43 0q6 -12 19 -37q0 -4 -13 -55q-8 -39 -8 -57q0 -13 2 -21zM1323 1065q-4 -10 -18 -8q-14 0 -15 14h6v4q9 -4 27 -10z M1309 1126q-8 -8 -19 -8v4h6v4q4 0 4 7q7 -5 9 -7zM1309 1004q-12 -8 -41 -9v4h-6v15h10q8 2 37 -10zM1257 541q-12 -29 -47 -29q2 6 18.5 26.5t18.5 20.5q4 -6 10 -18zM1210 1151h-39v4q14 -2 39 -4zM1206 1114q-14 -6 -57 -6v10h4v4zM1206 502q-10 -2 -39 -8v4h-4v4 q27 4 43 0zM1139 1051q-14 -8 -15 0h15zM1069 1141q-12 -4 -61 -4v4h61zM969 1122q-18 -8 -45 -8q-18 0 -53 2t-50 2v4h148zM784 1141q-12 -10 -39 -11q-18 0 -50.5 5.5t-43.5 5.5v6q98 2 133 -6zM709 1057q-43 -14 -43 4h10zM604 1133q0 -25 -4 -25v-4h-4v4h-10 q0 10 5 12.5t13 12.5zM506 -61q-6 -12 -37 -15q-20 -2 -61 2t-46 4v4q50 -1 144 5zM141 -55q-29 -20 -28 -6h-7v6h35zM88 -61z" />
<glyph unicode=":" horiz-adv-x="1163" d="M160 1077q0 -23 -2 -49h-2q0 16 4 49zM158 1010v6v-6zM158 1008l-2 -13h-2q0 5 4 13zM156 971q-2 -8 -4 -17l-5 2zM125 679v0v0zM123 672q0 -6 -1 -8t-5 -2q2 4 6 10zM117 541v-9v9zM117 516q-4 -12 -8 -12q2 4 8 12zM88 580q0 -4 -4 -13h-2q2 3 6 13zM152 1376 q20 -4 57 -33q29 -23 55 -43q53 -33 154 -100q51 -39 55 -39v-4q-4 2 -10 4v-4h4q18 -18 39 -18v6q6 0 8 -2t8 -4v-4q-8 -4 -4 -5q0 -2 6 -8q35 -23 103 -69q31 -18 30.5 -20.5t4.5 -2.5q-2 4 -25 23q-10 6 -10 10q51 -27 49 -27v-6q-4 2 -12 4q16 -41 57 -41q2 -10 10 -18 q23 -14 68 -43q53 -35 82 -55q18 -12 20 -13q-6 -6 -6 -10q14 -6 37 -18v-7q-4 0 -55 -20q-10 -4 -22.5 -8t-80.5 -33l-37 -23q-53 -23 -157 -63q-78 -29 -88 -27q-14 2 -91 176l-100 232q-20 39 -59 117q-8 16 -41 92q-16 34 -49 104zM197 1169q45 -94 143 -280 q20 -53 66 -156q12 -25 24 -49q20 -37 19 -47q-2 -6 -9 -10l-299 -144q-2 55 2 71.5t6.5 49.5t8.5 94q4 12 10 35l16 133v64q6 117 6 92l-2 14q4 0 5 11h-3q0 -2 0 8q2 12 5 18l-5 25q1 26 7 71zM197 1128q0 -18 2 -18q0 6 -2 18zM543 1122h6q-4 -6 -6 -6v6zM549 1116 q2 -2 12 -4v-2q-6 2 -12 6zM193 1106q0 -14 4 -14q-2 6 -4 14zM580 1098q25 -12 24 -19q-18 7 -24 19zM604 1079q20 -10 17 -10v-2q-6 0 -7 2zM676 1030l26 -14v-6h-2q-8 6 -24 20zM784 1018h4q0 -2 3 -2q-2 -4 -7 -4v6zM731 985q43 -12 43 -27q-27 9 -43 27zM784 975h7 q-2 -4 -7 -4v4zM803 965h4q0 -4 2 -4q-2 -2 -6 -3v7zM821 952h4q0 -4 2 -4q-2 -2 -6 -2v6zM883 909h2q0 -4 4 -4q-4 -2 -6 -2v6zM889 903l2 -4q-2 2 -2 4zM909 891l41 -25v-2q-6 0 -6 2q-23 11 -35 25zM856 885q0 -2 2 -2v-4q2 4 0 4t-2 2zM901 860q2 -4 2 -2zM920 860h2 q0 -2 4 -2q-4 -4 -6 -4v6zM1085 852h5q-6 -10 -39 -25.5t-43 -15.5v4h2v2q28 8 75 35zM1071 831q12 -2 12 -6q6 -14 -10 -118q-14 -82 -22 -179q-6 -35 -7 -34v-2h-6q0 6 2 6l-2 14h-4q0 -10 -10 -27.5t-35 -29.5q-41 -18 -41 -21q-31 -18 -92 -59q-10 -8 -37 -19 q-27 -4 -76 27q-31 18 -30 47q0 -6 -2 -12q-8 -29 -44 -48.5t-75 -19.5t-82 29q-18 12 -21 12q-4 12 -10 39h-6v-6q-6 -16 -29 -43l-45 -27q-45 -14 -82 0q-78 31 -77 80q0 2 -2 6q-2 -4 -5.5 -12t-15.5 -27q-29 -35 -61 -34q-14 0 -31 8q-25 10 -25 18q-4 4 0 4 q6 8 102.5 54.5t104.5 46.5q0 2 2 2l35 14l84 39q20 10 64 25l12 -3v5q-2 6 28 20q88 39 267 113q6 0 18 -2q-6 16 0 16v-2q0 -2 6 -4q0 4 -4 4q16 25 150 70q8 4 8 6l18 -6v4q37 7 76 32zM170 829l2 -28h-2v28zM997 811q10 0 11 -2h-4v-4h-13q2 4 6 4v2zM979 801 q-6 -10 -2 -10v4q8 0 8 2q-2 2 -6 4zM164 770v-55h-4q0 39 4 55zM883 758q0 -6 2 -6v2q0 2 -2 4zM852 745v-4q-8 -2 -8 -6h2v4h12zM834 733zM1067 690v-12h4q-2 4 -4 12zM1061 653l1 -3q1 -3 -1 3zM1055 625q-4 -41 0 -41q2 37 0 41zM1049 582l-7 -50h5zM1010 399zM475 387 h6q-4 -2 -6 0zM727 369q10 -2 10 -7zM731 338q8 -2 12 -2v-4q-6 4 -12 6z" />
<glyph unicode=";" horiz-adv-x="1163" d="M160 1077q0 -23 -2 -49h-2q0 16 4 49zM158 1010v6v-6zM158 1008l-2 -13h-2q0 5 4 13zM156 971q-2 -8 -4 -17l-5 2zM125 679v0v0zM123 672q0 -6 -1 -8t-5 -2q2 4 6 10zM117 541v-9v9zM117 516q-4 -12 -8 -12q2 4 8 12zM88 580q0 -4 -4 -13h-2q2 3 6 13zM152 1376 q20 -4 57 -33q29 -23 55 -43q53 -33 154 -100q51 -39 55 -39v-4q-4 2 -10 4v-4h4q18 -18 39 -18v6q6 0 8 -2t8 -4v-4q-8 -4 -4 -5q0 -2 6 -8q35 -23 103 -69q31 -18 30.5 -20.5t4.5 -2.5q-2 4 -25 23q-10 6 -10 10q51 -27 49 -27v-6q-4 2 -12 4q16 -41 57 -41q2 -10 10 -18 q23 -14 68 -43q53 -35 82 -55q18 -12 20 -13q-6 -6 -6 -10q14 -6 37 -18v-7q-4 0 -55 -20q-10 -4 -22.5 -8t-80.5 -33l-37 -23q-53 -23 -157 -63q-78 -29 -88 -27q-14 2 -91 176l-100 232q-20 39 -59 117q-8 16 -41 92q-16 34 -49 104zM197 1169q45 -94 143 -280 q20 -53 66 -156q12 -25 24 -49q20 -37 19 -47q-2 -6 -9 -10l-299 -144q-2 55 2 71.5t6.5 49.5t8.5 94q4 12 10 35l16 133v64q6 117 6 92l-2 14q4 0 5 11h-3q0 -2 0 8q2 12 5 18l-5 25q1 26 7 71zM197 1128q0 -18 2 -18q0 6 -2 18zM543 1122h6q-4 -6 -6 -6v6zM549 1116 q2 -2 12 -4v-2q-6 2 -12 6zM193 1106q0 -14 4 -14q-2 6 -4 14zM580 1098q25 -12 24 -19q-18 7 -24 19zM604 1079q20 -10 17 -10v-2q-6 0 -7 2zM676 1030l26 -14v-6h-2q-8 6 -24 20zM784 1018h4q0 -2 3 -2q-2 -4 -7 -4v6zM731 985q43 -12 43 -27q-27 9 -43 27zM784 975h7 q-2 -4 -7 -4v4zM803 965h4q0 -4 2 -4q-2 -2 -6 -3v7zM821 952h4q0 -4 2 -4q-2 -2 -6 -2v6zM883 909h2q0 -4 4 -4q-4 -2 -6 -2v6zM889 903l2 -4q-2 2 -2 4zM909 891l41 -25v-2q-6 0 -6 2q-23 11 -35 25zM856 885q0 -2 2 -2v-4q2 4 0 4t-2 2zM901 860q2 -4 2 -2zM920 860h2 q0 -2 4 -2q-4 -4 -6 -4v6zM1085 852h5q-6 -10 -39 -25.5t-43 -15.5v4h2v2q28 8 75 35zM1071 831q12 -2 12 -6q6 -14 -10 -118q-14 -82 -22 -179q-6 -35 -7 -34v-2h-6q0 6 2 6l-2 14h-4q0 -10 -10 -27.5t-35 -29.5q-41 -18 -41 -21q-31 -18 -92 -59q-10 -8 -37 -19 q-27 -4 -76 27q-31 18 -30 47q0 -6 -2 -12q-8 -29 -44 -48.5t-75 -19.5t-82 29q-18 12 -21 12q-4 12 -10 39h-6v-6q-6 -16 -29 -43l-45 -27q-45 -14 -82 0q-78 31 -77 80q0 2 -2 6q-2 -4 -5.5 -12t-15.5 -27q-29 -35 -61 -34q-14 0 -31 8q-25 10 -25 18q-4 4 0 4 q6 8 102.5 54.5t104.5 46.5q0 2 2 2l35 14l84 39q20 10 64 25l12 -3v5q-2 6 28 20q88 39 267 113q6 0 18 -2q-6 16 0 16v-2q0 -2 6 -4q0 4 -4 4q16 25 150 70q8 4 8 6l18 -6v4q37 7 76 32zM170 829l2 -28h-2v28zM997 811q10 0 11 -2h-4v-4h-13q2 4 6 4v2zM979 801 q-6 -10 -2 -10v4q8 0 8 2q-2 2 -6 4zM164 770v-55h-4q0 39 4 55zM883 758q0 -6 2 -6v2q0 2 -2 4zM852 745v-4q-8 -2 -8 -6h2v4h12zM834 733zM1067 690v-12h4q-2 4 -4 12zM1061 653l1 -3q1 -3 -1 3zM1055 625q-4 -41 0 -41q2 37 0 41zM1049 582l-7 -50h5zM1010 399zM475 387 h6q-4 -2 -6 0zM727 369q10 -2 10 -7zM731 338q8 -2 12 -2v-4q-6 4 -12 6z" />
<glyph unicode="&#x3c;" d="M1647 1409v-37h-13q5 25 13 37zM1634 1526q0 -41 -5 -41t-13 -4v4l2 26q2 18 10 19q2 0 6 -4zM1628 1450v-55h-4v6h-4q0 16 8 49zM1624 1575q-16 -2 -27 -4v4h27zM1612 995q-2 -6 -6 -243q0 -14 -4.5 -41t-4.5 -39h-8q0 49 3 146t3 145q4 29 6.5 28.5t10.5 3.5zM1606 334 v-96q-2 -70 -4 -95q0 -4 -5 -4v-4h-8l4 31q-10 12 -10 31q0 12 6 35.5t6 29.5q3 25 11 72zM1593 1571zM1593 1518q-10 -18 -18 -19q-20 23 -80 23v4q41 12 64 12q31 0 30 -20h4zM1544 1638q-18 -6 -18 0h18zM1526 1481zM1522 1634zM1507 -35h-41v-10q18 -6 19 -12h10 q6 10 12 22zM1473 1526q-14 -4 -109 -4v4h4v4q78 6 105 -4zM1473 1481zM1454 -35h-10q4 -10 10 -10v10zM1440 -41q-6 2 -19.5 3t-21.5 3q-4 -6 -4 -10h-4v-4q35 -2 49 8zM1364 -31q4 -2 -59 -4q-55 0 -170 -6v-12q49 -8 49 4q8 -2 135 -6l45 -8v32zM1354 1638q-6 -4 -68 -4 q-2 0 -80 -4l-76 4v4h224zM1341 1526q-14 -4 -98 -4v4q49 4 98 0zM1124 -41q-51 16 -80 12l-32 -12v-4h6q18 -10 55 -12q41 0 51 16zM1004 -41q-45 10 -46 0h-4v-8h13q25 -4 37 8zM944 -41l-57 4l-27 4l-55 -6q-29 4 -74 -4q0 -4 31 -8t31 -12q10 6 34 12l33 -8q8 0 33 5 t39 3q8 -2 9 1zM846 1004zM702 1499q-10 -10 -22 -10v10h22zM698 -41q-18 6 -18 0h-4v-8q12 0 22 8zM455 1616q-14 -2 -23 -4v4h23zM432 1620q-25 -2 -41 -4v4h41zM203 1450h-10q6 -10 10 -10v10zM188 1450q-57 0 -57 -4q49 0 57 4zM121 1530zM72 969q-2 -14 -9 -41h5v-4 q4 8 4 45zM27 -4q-2 -27 -7.5 -28t-15.5 -3v4h-4v4q2 2 10 37q8 29 8 23q-5 -25 9 -37zM27 -63q-4 -16 -13 -17v17h13zM23 1427v-32h-5q-8 37 -4 37q0 4 4 4q3 -3 5 -9z" />
<glyph unicode="=" horiz-adv-x="1163" d="M160 1077q0 -23 -2 -49h-2q0 16 4 49zM158 1010v6v-6zM158 1008l-2 -13h-2q0 5 4 13zM156 971q-2 -8 -4 -17l-5 2zM125 679v0v0zM123 672q0 -6 -1 -8t-5 -2q2 4 6 10zM117 541v-9v9zM117 516q-4 -12 -8 -12q2 4 8 12zM88 580q0 -4 -4 -13h-2q2 3 6 13zM152 1376 q20 -4 57 -33q29 -23 55 -43q53 -33 154 -100q51 -39 55 -39v-4q-4 2 -10 4v-4h4q18 -18 39 -18v6q6 0 8 -2t8 -4v-4q-8 -4 -4 -5q0 -2 6 -8q35 -23 103 -69q31 -18 30.5 -20.5t4.5 -2.5q-2 4 -25 23q-10 6 -10 10q51 -27 49 -27v-6q-4 2 -12 4q16 -41 57 -41q2 -10 10 -18 q23 -14 68 -43q53 -35 82 -55q18 -12 20 -13q-6 -6 -6 -10q14 -6 37 -18v-7q-4 0 -55 -20q-10 -4 -22.5 -8t-80.5 -33l-37 -23q-53 -23 -157 -63q-78 -29 -88 -27q-14 2 -91 176l-100 232q-20 39 -59 117q-8 16 -41 92q-16 34 -49 104zM197 1169q45 -94 143 -280 q20 -53 66 -156q12 -25 24 -49q20 -37 19 -47q-2 -6 -9 -10l-299 -144q-2 55 2 71.5t6.5 49.5t8.5 94q4 12 10 35l16 133v64q6 117 6 92l-2 14q4 0 5 11h-3q0 -2 0 8q2 12 5 18l-5 25q1 26 7 71zM197 1128q0 -18 2 -18q0 6 -2 18zM543 1122h6q-4 -6 -6 -6v6zM549 1116 q2 -2 12 -4v-2q-6 2 -12 6zM193 1106q0 -14 4 -14q-2 6 -4 14zM580 1098q25 -12 24 -19q-18 7 -24 19zM604 1079q20 -10 17 -10v-2q-6 0 -7 2zM676 1030l26 -14v-6h-2q-8 6 -24 20zM784 1018h4q0 -2 3 -2q-2 -4 -7 -4v6zM731 985q43 -12 43 -27q-27 9 -43 27zM784 975h7 q-2 -4 -7 -4v4zM803 965h4q0 -4 2 -4q-2 -2 -6 -3v7zM821 952h4q0 -4 2 -4q-2 -2 -6 -2v6zM883 909h2q0 -4 4 -4q-4 -2 -6 -2v6zM889 903l2 -4q-2 2 -2 4zM909 891l41 -25v-2q-6 0 -6 2q-23 11 -35 25zM856 885q0 -2 2 -2v-4q2 4 0 4t-2 2zM901 860q2 -4 2 -2zM920 860h2 q0 -2 4 -2q-4 -4 -6 -4v6zM1085 852h5q-6 -10 -39 -25.5t-43 -15.5v4h2v2q28 8 75 35zM1071 831q12 -2 12 -6q6 -14 -10 -118q-14 -82 -22 -179q-6 -35 -7 -34v-2h-6q0 6 2 6l-2 14h-4q0 -10 -10 -27.5t-35 -29.5q-41 -18 -41 -21q-31 -18 -92 -59q-10 -8 -37 -19 q-27 -4 -76 27q-31 18 -30 47q0 -6 -2 -12q-8 -29 -44 -48.5t-75 -19.5t-82 29q-18 12 -21 12q-4 12 -10 39h-6v-6q-6 -16 -29 -43l-45 -27q-45 -14 -82 0q-78 31 -77 80q0 2 -2 6q-2 -4 -5.5 -12t-15.5 -27q-29 -35 -61 -34q-14 0 -31 8q-25 10 -25 18q-4 4 0 4 q6 8 102.5 54.5t104.5 46.5q0 2 2 2l35 14l84 39q20 10 64 25l12 -3v5q-2 6 28 20q88 39 267 113q6 0 18 -2q-6 16 0 16v-2q0 -2 6 -4q0 4 -4 4q16 25 150 70q8 4 8 6l18 -6v4q37 7 76 32zM170 829l2 -28h-2v28zM997 811q10 0 11 -2h-4v-4h-13q2 4 6 4v2zM979 801 q-6 -10 -2 -10v4q8 0 8 2q-2 2 -6 4zM164 770v-55h-4q0 39 4 55zM883 758q0 -6 2 -6v2q0 2 -2 4zM852 745v-4q-8 -2 -8 -6h2v4h12zM834 733zM1067 690v-12h4q-2 4 -4 12zM1061 653l1 -3q1 -3 -1 3zM1055 625q-4 -41 0 -41q2 37 0 41zM1049 582l-7 -50h5zM1010 399zM475 387 h6q-4 -2 -6 0zM727 369q10 -2 10 -7zM731 338q8 -2 12 -2v-4q-6 4 -12 6z" />
<glyph unicode="&#x3e;" d="M1647 1409v-37h-13q5 25 13 37zM1634 1526q0 -41 -5 -41t-13 -4v4l2 26q2 18 10 19q2 0 6 -4zM1628 1450v-55h-4v6h-4q0 16 8 49zM1624 1575q-16 -2 -27 -4v4h27zM1612 995q-2 -6 -6 -243q0 -14 -4.5 -41t-4.5 -39h-8q0 49 3 146t3 145q4 29 6.5 28.5t10.5 3.5zM1606 334 v-96q-2 -70 -4 -95q0 -4 -5 -4v-4h-8l4 31q-10 12 -10 31q0 12 6 35.5t6 29.5q3 25 11 72zM1593 1571zM1593 1518q-10 -18 -18 -19q-20 23 -80 23v4q41 12 64 12q31 0 30 -20h4zM1544 1638q-18 -6 -18 0h18zM1526 1481zM1522 1634zM1507 -35h-41v-10q18 -6 19 -12h10 q6 10 12 22zM1473 1526q-14 -4 -109 -4v4h4v4q78 6 105 -4zM1473 1481zM1454 -35h-10q4 -10 10 -10v10zM1440 -41q-6 2 -19.5 3t-21.5 3q-4 -6 -4 -10h-4v-4q35 -2 49 8zM1364 -31q4 -2 -59 -4q-55 0 -170 -6v-12q49 -8 49 4q8 -2 135 -6l45 -8v32zM1354 1638q-6 -4 -68 -4 q-2 0 -80 -4l-76 4v4h224zM1341 1526q-14 -4 -98 -4v4q49 4 98 0zM1124 -41q-51 16 -80 12l-32 -12v-4h6q18 -10 55 -12q41 0 51 16zM1004 -41q-45 10 -46 0h-4v-8h13q25 -4 37 8zM944 -41l-57 4l-27 4l-55 -6q-29 4 -74 -4q0 -4 31 -8t31 -12q10 6 34 12l33 -8q8 0 33 5 t39 3q8 -2 9 1zM846 1004zM702 1499q-10 -10 -22 -10v10h22zM698 -41q-18 6 -18 0h-4v-8q12 0 22 8zM455 1616q-14 -2 -23 -4v4h23zM432 1620q-25 -2 -41 -4v4h41zM203 1450h-10q6 -10 10 -10v10zM188 1450q-57 0 -57 -4q49 0 57 4zM121 1530zM72 969q-2 -14 -9 -41h5v-4 q4 8 4 45zM27 -4q-2 -27 -7.5 -28t-15.5 -3v4h-4v4q2 2 10 37q8 29 8 23q-5 -25 9 -37zM27 -63q-4 -16 -13 -17v17h13zM23 1427v-32h-5q-8 37 -4 37q0 4 4 4q3 -3 5 -9z" />
<glyph unicode="?" horiz-adv-x="1306" d="M1178 1047h-9v-17h5q0 -8 6 0q6 6 6 10q-2 3 -8 7zM1153 844v-72h4q0 -4 12 -4q0 20 2.5 61t2.5 64q-5 -22 -21 -49zM1133 1642q0 4 4 5q0 2 -25 -5v-8q27 0 45 8h-24zM1044 723h-94v-4q25 -2 72 -6q14 -2 35.5 1t32.5 5q18 -2 53 4q-11 4 -99 0zM965 1722q-20 4 -52 4 v-4h52zM965 1669q-2 0 0 -6v6zM909 1669v-2q8 0 19 2h-19zM1159 1100q2 49 6 229q0 37 4 133q4 84 5 131q-29 6 -89 13q-14 -2 -43 -4q-25 4 -71 8h-158q-70 0 -160 -2q-16 0 -47 2h-47q-129 0 -252 -6q-72 2 -141 2q-115 0 -125 -11.5t-10 -29.5v-52q10 -80 12 -67 l-12 -184h2q0 -4 14 -5q47 2 146 0q43 -2 131 -6q63 -2 165 0q123 4 168 4h43v-4q-4 0 -6 -6q0 -4 6 -14v-4h5q2 10 4 24q-4 0 -4 6q4 0 10 -2v2l4 -2q2 0 0 -10h2v-4h6q0 35 53 10q10 -2 20.5 -5t8.5 -15q0 -2 -6 -72q-2 29 -2 45q-2 20 -4 -4q4 -18 4 -59q-2 -31 -8 -101 q-6 6 -21 11v18l14 6h-32v-6h4v-6q2 2 12 6q-2 -8 -4 -18q-57 10 -346 -2q-18 2 -64 4v-6q-4 0 -6 -58q-2 -129 -4 -108q2 -59 6 -179l-4 -53l4 -65q0 -14 -1 -12.5t1 3.5q0 2 2 -7t21 -15v-4h-4q0 -4 -19 0v-113h133q109 10 88 10h125q4 0 11 5v38q-4 16 -4 41l-3 234 q33 -4 437 -4v4q6 0 4 35q0 35 -4 43q0 84 8 131q8 68 12 127zM750 735h2v-2q6 0 14 6h-16v-4zM725 739q0 -4 14 0h-14zM772 1212v31q-10 -17 0 -31zM616 1634h-6q0 -2 -4 -2q0 -8 10 2zM580 1632h-5q0 4 -2 -4q3 0 7 4zM553 1628v4h-10q0 -4 4 -8q2 0 6 4zM489 1632v-8 q8 0 17 8h-17zM272 1614l146 2q12 2 33 12q-18 6 -70 8q-55 2 -68 -8q-6 2 -18 4q-37 10 -64 -4q0 4 -2 6q-20 -2 -57 -6q-14 0 -38.5 4t-37.5 4q-25 -2 -84 -2v-6q8 0 22.5 -8t22.5 -8zM37 1245h-6v-8h6q0 -6 22 4q-14 6 -22 4zM16 1538q2 0 -16 -10q0 -6 2 -14.5t2 -14.5 q4 -201 -4 -258q2 0 5 2t3 29l8 63q-2 20 -2 41q6 53 6 154q-2 2 -4 8zM16 1565q-2 -2 2 -4q0 4 -2 4zM727 123q2 4 6 20q-6 -10 -10 -20h4zM727 193l-4 -27q4 0 4 27zM723 236v69q-4 -12 -4 -69h4zM709 242v92h-7q0 4 -32 4h-314q0 6 4 -84q4 -68 0 -70q-8 8 -8 74 q-10 0 -8 -74l8 -94h4q2 6 4 16v7h7q0 -18 8 -39q-4 0 -8 -11q-6 0 -7 21q-4 0 -4 -86h4v22h7q0 -4 4 -22q0 -4 18 -4h213v-10l-100 4v-11l211 -6q0 12 -29 17q0 6 35 6v90q-6 25 -3 78t-7 80zM737 1096q39 0 54 6h-54v-6zM680 420h-25v-6h11q0 -8 14 6zM645 424h-182v-4 q6 0 59 -4q47 -2 74 0q39 0 49 8zM410 365q68 0 82 6h-82v-6zM346 289q-2 -4 -10 -15h6v-6q4 1 4 21zM342 150v36l-6 -36h6zM322 1026h6v-6q6 0 8 22q0 4 -4 11q-4 0 -4 -6q-6 -1 -6 -21zM336 530q0 8 -4 27q-10 0 -8 23q0 29 4 16v-4q4 0 6 -32t2 -30zM328 500q4 0 8 16 q-4 -4 -8 -16zM328 709q2 12 4 36q-8 29 -6 84q2 82 2 89q-2 25 -6 24q0 -102 -5 -233h11zM317 643h11v-6h4v22q-2 -2 -8.5 -4t-6.5 -12zM332 623h-15q1 -14 15 0zM317 567h5v6q8 0 10 27h-10v6q-5 0 -5 -39zM317 14v6q-4 0 -4 -22q4 0 4 -4h11v10q-4 0 0 10h-11zM322 41 q-2 -8 0 -14v14z" />
<glyph unicode="@" d="M1647 1409v-37h-13q5 25 13 37zM1634 1526q0 -41 -5 -41t-13 -4v4l2 26q2 18 10 19q2 0 6 -4zM1628 1450v-55h-4v6h-4q0 16 8 49zM1624 1575q-16 -2 -27 -4v4h27zM1612 995q-2 -6 -6 -243q0 -14 -4.5 -41t-4.5 -39h-8q0 49 3 146t3 145q4 29 6.5 28.5t10.5 3.5zM1606 334 v-96q-2 -70 -4 -95q0 -4 -5 -4v-4h-8l4 31q-10 12 -10 31q0 12 6 35.5t6 29.5q3 25 11 72zM1593 1571zM1593 1518q-10 -18 -18 -19q-20 23 -80 23v4q41 12 64 12q31 0 30 -20h4zM1544 1638q-18 -6 -18 0h18zM1526 1481zM1522 1634zM1507 -35h-41v-10q18 -6 19 -12h10 q6 10 12 22zM1473 1526q-14 -4 -109 -4v4h4v4q78 6 105 -4zM1473 1481zM1454 -35h-10q4 -10 10 -10v10zM1440 -41q-6 2 -19.5 3t-21.5 3q-4 -6 -4 -10h-4v-4q35 -2 49 8zM1364 -31q4 -2 -59 -4q-55 0 -170 -6v-12q49 -8 49 4q8 -2 135 -6l45 -8v32zM1354 1638q-6 -4 -68 -4 q-2 0 -80 -4l-76 4v4h224zM1341 1526q-14 -4 -98 -4v4q49 4 98 0zM1124 -41q-51 16 -80 12l-32 -12v-4h6q18 -10 55 -12q41 0 51 16zM1004 -41q-45 10 -46 0h-4v-8h13q25 -4 37 8zM944 -41l-57 4l-27 4l-55 -6q-29 4 -74 -4q0 -4 31 -8t31 -12q10 6 34 12l33 -8q8 0 33 5 t39 3q8 -2 9 1zM846 1004zM702 1499q-10 -10 -22 -10v10h22zM698 -41q-18 6 -18 0h-4v-8q12 0 22 8zM455 1616q-14 -2 -23 -4v4h23zM432 1620q-25 -2 -41 -4v4h41zM203 1450h-10q6 -10 10 -10v10zM188 1450q-57 0 -57 -4q49 0 57 4zM121 1530zM72 969q-2 -14 -9 -41h5v-4 q4 8 4 45zM27 -4q-2 -27 -7.5 -28t-15.5 -3v4h-4v4q2 2 10 37q8 29 8 23q-5 -25 9 -37zM27 -63q-4 -16 -13 -17v17h13zM23 1427v-32h-5q-8 37 -4 37q0 4 4 4q3 -3 5 -9z" />
<glyph unicode="A" horiz-adv-x="1724" d="M440 1669zM1319 1176zM1325 1155zM1331 1141zM1331 1126q14 -16 15 -26h-7v6q-2 6 -8 20zM1346 1100q14 -16 14 -29h-8v6q-2 9 -6 23zM1487 694l-60 142q-39 98 -108 270q-45 115 -41 160q-18 0 -29 18q-20 41 -59 127q-20 39 -57 115q-10 31 -41 73q-20 10 -54 15 q-25 2 -65 2q-57 -2 -60 -2h-446q4 -31 20 -43v-12q-18 0 -97 -125t-79 -154q-16 0 -69 -111q-12 -16 -45 -63q-10 -29 -35 -86q-14 -20 -43 -64q-14 -35 -45 -104q-18 -25 -45 -80q-4 -20 -4 -90q2 -78 6 -236q2 -145 4 -432h459q0 -18 -13 189q2 90 -14 256q6 0 15.5 7 t17.5 9q61 4 213 2q174 -2 192 -18h8q2 8 7 22v6h6v-6q10 0 14 -49h6v-8h6v63q8 0 15.5 -3t5.5 -25v-6q31 0 47 -7q0 -8 -3 -26.5t-3 -30.5q-12 0 -10 -24q0 -117 4 -351q113 2 338 4q31 -2 61 -2q39 0 56.5 10.5t17.5 335.5q0 39 8 120t8 122q0 49 -10 90zM981 786 q0 -6 -8 -14q8 0 8 -14q-8 0 -8 -6q-16 0 -62.5 8t-70.5 8q-29 0 -49 -10q-14 0 -43 12t-43 12q-8 0 -15 -2q-88 0 -123 -8v-6q-8 0 -16 12.5t-4 22.5q27 45 78 135q27 57 82 172q8 23 32 57q10 8 39 4q0 8 -7 25.5t-7 30.5q35 -12 47 -33q14 -45 51 -133q39 -68 76 -135 q41 -80 55 -144q-6 0 -12 6zM1495 1001zM41 932q0 -41 -21 -41v14h7q4 9 14 27zM676 891zM885 862q29 -6 28 -20q-10 6 -28 20zM0 537q10 -29 0 -29v29zM614 453h29v-7zM520 446h15q-6 -14 -15 -14v14zM520 418q14 0 17.5 -3t3.5 -12q-13 9 -21 15zM643 412zM0 389 q4 -25 6 -41h-6v41zM629 389q14 -25 14 -67h-8v12q-2 18 -6 55zM14 322zM1583 203q4 -39 6 -64h-6v64zM561 139h14q-8 -12 -14 -12v12zM561 84q14 -16 14 -41h-14v41zM926 57z" />
<glyph unicode="B" horiz-adv-x="1828" d="M623 1624q20 -2 61 -6v-14q-70 4 -70 12q3 4 9 8zM760 1624q25 -14 14 -14v-6q-4 8 -14 20zM0 1589v-12v12zM1444 1141q12 -14 20 -15q-6 7 -20 15zM961 1126h14q0 -6 -8 -6q0 -6 -6 -6q-6 -8 -15 -8v14q7 2 15 6zM1479 969q-6 -8 -6 -15q14 6 14 15h-8zM1534 616 q-29 8 -88 29q-242 90 -291 90q-10 0 -14 -2h-8v6h-7q0 8 29 21q113 51 236 102q37 14 102 51q18 14 18 56q0 -20 -4 192q0 41 3 123t3 119l9 92q4 55 -9 88q0 12 -55 14v-8q-25 4 -76 8q-10 0 -34.5 -3t-34.5 -3q-41 0 -47 33q-33 0 -90 14q-31 -12 -31 -16q0 -6 27 -13 l26 -7q-47 -4 -72 -5q-104 -6 -262 -4q-266 4 -262 4q-10 0 -65 2q-45 2 -72 0q-39 -2 -57 -10h-7q0 -6 -14 0q-29 12 -82 13q-33 0 -96.5 -6.5t-83.5 -6.5v-6q-8 0 -8 -6q-2 -39 -11 -117l-14 -43l-2 -192l-4 -561l-8 -76q0 -8 4 -152q-4 -43 -6 -131q2 -51 6 -151v-62 q2 -33 14 -51q8 -8 142 -10q94 -2 260 2q182 2 180 2h565l152 -2q14 6 43 14q27 0 67 12q12 8 19 33q0 57 4 170q2 18 10 119q6 80 6 129q0 63 -10 106zM614 1167l99 2q0 -8 -15 -8v-6l131 27l78 -15l82 7q41 -2 123 -5v-8h-6q0 -14 -31 -31q-59 -29 -178 -86 q-39 -12 -113 -47q-31 -18 -94 -57q-25 -8 -69 -31q-25 -16 -31 -12h-2q-12 18 -15 59l-4 66q-10 98 -22 154zM850 829v9q6 0 6 6q4 -6 8 -21h-8q0 6 -6 6zM1120 381q0 6 -49 16q-45 -2 -131 0q-4 0 -84 11h-309q2 10 8 43q8 166 4 192q39 -2 88 -25q41 -20 80 -38 q160 -70 309 -138q0 -6 -14 -6q0 -8 8 -8l42 -14q42 -13 54 -33h-6zM870 492zM905 477q25 -14 29 -14v-6h-23q-2 6 -6 20zM657 451zM1604 256zM1679 166q4 -31 7 -47h-7v47z" />
<glyph unicode="C" horiz-adv-x="1624" d="M1090 883h47v-6zM1403 795h14q-12 -4 -14 0zM1008 774q20 -4 34 -8v-6h-6v-6h-28v20zM954 713zM498 684q4 -23 12 -68h-12v68zM1417 569q0 12 3 45t1 52q-2 25 -12 39t-41 14q-29 2 -47 -6q-231 0 -313 4q-14 -2 -19 -17q-4 -14 4 -28q-12 0 -26 -8q6 -6 34 -7 q0 -12 -20 -27.5t-20 -39.5h-7v-6q12 2 41 6q0 -8 6 -15q0 -6 -20 -12q-2 -37 -6 -110q-2 -8 -14 -21q0 -6 -7 -4q-23 12 -84 6q-63 -6 -79 -22q-29 8 -62 14q-27 -2 -76 -10q-45 6 -135 4q0 6 -8 6q0 2 -6 76q-4 43 6 73q-6 0 -6 15q10 0 20 -15h6v27h-47q0 41 21 275 q-2 23 -6 59q4 16 10 49q0 16 -4 51t-4 49q0 31 10 50h-6q0 8 -7.5 22t-7.5 23q0 8 5 18q12 25 112 25q80 0 129 -11q14 -8 56 -20l135 -4v8q-6 0 -13 12h7q0 20 47 0q8 0 14 -12q-6 0 0 -20q4 -10 4 -82q0 -18 3 -59.5t3 -63.5q-2 -33 -10 -62q53 0 160.5 -10t167.5 -10 q74 0 90 8q8 4 18 33h-8q0 8 -20 0l10 61q0 147 6 443q2 14 6 51q6 31 4 51q-4 29 -12 88q-6 -2 -21 -6v-6q-90 23 -141 22q-59 0 -96 -22q-20 0 -60.5 7t-60.5 7q-25 0 -42 -5t-48 -9q-35 0 -82 8q-70 14 -76 16l-143 2q-25 -18 -86 -10q-68 6 -90 -4h-232q-43 4 -84 8 q-57 2 -80 -14q-4 0 -2 -27v-336.5v-74.5q2 -53 2 -72q0 -311 15 -477q-8 -381 -6 -395q4 -25 10 -76q2 -35 8 -103q-6 0 -27 -26q-6 0 -6 -6q-10 0 23 -15q16 -2 45 -6q174 -8 340 2l102 19l103 -21l518 2l63 -2q49 -4 80 -2q41 4 55.5 14.5t30.5 219.5q16 186 17 251 q0 14 -7.5 40t-7.5 42zM442 481q0 33 35 68v6q6 -20 6 -35q0 -31 -41 -39zM524 473q35 0 35 -6q-12 2 -35 6zM682 412q12 -8 12 -13h8v7q-8 2 -20 6zM0 250q10 -14 14 -60q2 -33 2 -88q-2 -78 -2 -71h-8q-6 106 -6 219zM1417 98q12 -14 13 -82h-13v82zM1458 98zM1450 78 q20 -47 -6 -47v14q2 10 6 33zM61 57zM272 -16h68v-7q-52 -9 -68 7zM995 -23q33 0 33 -8q-10 2 -33 8zM348 -37zM1341 -37z" />
<glyph unicode="D" horiz-adv-x="1611" d="M354 1638h191v-14q-16 2 -62.5 0t-70.5 0q-35 2 -58 14zM1063 1612q16 -4 29 -8v-7q-15 7 -29 15zM1438 1243q8 -8 8 -6q-2 2 -8 6zM1466 1100q-2 31 -16 82q-18 29 -64 59q-57 41 -67 51q-57 47 -166 142q-53 53 -106 104q-63 63 -121 76q-37 8 -90 8q-37 0 -101 -2 q-70 -2 -94 -2h-565q-14 -2 -41 -6v-8q-6 0 -6 -33l-2 -1514h927q96 0 114.5 5.5t41.5 29.5q16 20 33 41q98 96 237 262q33 37 78 115q10 27 8 72q-4 74 -4 75q6 111 11 222q3 131 -7 221zM1044 672q-92 -109 -182 -219q2 2 4 2q-57 -4 -61 -2v-9q-10 0 -27.5 -8t-27.5 -8 q-23 4 -68 8q-57 2 -115 2q-68 0 -104 21q-4 0 0 69q4 63 0 164q-4 82 -8 162q0 45 2 137q-2 51 -6 156q-10 2 -29 8v6q20 0 22 31q-2 -16 -2 45q18 -14 29 -70q10 0 75.5 5.5t102.5 5.5q76 0 88 -17q45 0 58 -6q45 -49 139 -143q23 -14 67 -47q45 -57 46 -76q0 -10 -7 -19 q8 -25 17 -63l-10 -41q-8 -100 -7 -100q2 2 4 6zM573 1135h27q-15 -4 -27 0zM483 997q10 -27 0 -26v26zM1016 739q2 -8 0 -8v8zM6 698zM498 698q10 -29 0 -28v28zM1432 438h14q-6 -14 -14 -14v14zM35 43h115v-6h-13q-67 -21 -102 6z" />
<glyph unicode="E" horiz-adv-x="1644" d="M6 1137zM590 1096zM1341 920zM1206 643zM1335 649zM1151 635zM1503 209v121q4 31 15 96q-47 0 -82 6q0 -8 -35 -6q-41 2 -45 0q-14 0 -59.5 4t-67.5 2q-35 -2 -58 -12q-49 0 -147 7t-150 7q8 0 -59 6q-37 2 -57 -8q-12 -6 -13 -12h-6q0 18 -71 20q-84 2 -93 6h-6 q0 -8 -6 -8v-6q-2 0 -32.5 12.5t-32.5 30.5v45l-11 41q4 16 11 35l4 59h6v9l41 -13l115 -4q25 -4 67 -10q100 0 299 -4q18 0 67.5 -5t76.5 -5q47 0 79 12q8 0 11 14q6 35 4 158q-2 131 -15.5 141t-43 12.5t-60.5 4.5t-389 10q-2 0 -176 8q-16 0 -49 -16v8q-8 0 -9 12 q0 10 5.5 30.5t3.5 24.5l-15 50q-2 29 -6 86q0 35 121 34q-2 0 205 -14q-14 2 243 6q18 0 129 -8t166 -8q76 0 90 12q23 23 23 184q0 147 -14 187q0 6 -62 26q-31 10 -88 13q-47 2 -94 2q-195 12 -475 18q-29 2 -58 6q-39 4 -57 -4h-80q-150 2 -143 2q-2 0 -162 -6 q-150 10 -170 10q-8 -12 -18 -47q6 -66 12 -202q-2 -20 -7 -92t-5 -109q0 -61 12 -92q-14 0 0 -121q0 -8 -6 -23.5t-6 -23.5q-6 -84 -15 -252q0 -8 -8 -596h47v-6q-6 -2 -20 -8q49 0 146 4t147 4v6h-15v6q-23 -6 -190 -6v6q70 0 203 4t204 4v-8h-26q0 -6 26 -6q20 0 59.5 5 t55.5 5q16 -4 47 -8l96 -2v-6q-10 -2 -30.5 -5t-54 -9.5t-50.5 -6.5q-41 -2 -258 0q-29 2 -55 4q-35 2 -53 -4q-109 0 -123 -14h-129q0 -6 -6 -6v-6h6q0 -8 8 -7l147 7q0 6 -12 12v8q61 0 182 -4t185 -4q147 0 194 14q0 -6 29 -4q41 2 39 2q193 -12 645 -12v8q6 0 6 33 q6 131 6 129zM455 473v6h-9v8h15q0 -8 -6 -14zM1051 459zM827 47zM711 33h231v-6q-23 0 -80 -4q-49 -2 -78 -3q-40 3 -73 13zM1315 27h94v-9q-78 -5 -94 9z" />
<glyph unicode="F" horiz-adv-x="1517" d="M268 1632h70v-8zM1354 1632q41 0 41 -8h6q6 -219 6 -389q0 -35 -6 -35v-6q-217 -8 -570 -8q-18 0 -111 7t-147 7q-98 0 -120 -20q-2 -2 -4 -37q-2 -12 -9 -35l19 -84h243q61 0 188.5 3t190.5 3q76 0 76 -6h6v-156l8 -77l-14 -78q-88 -4 -373 -8q-47 -2 -150.5 -8.5 t-160.5 -6.5v-12q0 -8 6 -8v-13q-2 -4 4 -4q-29 -53 -12 -241q4 -61 6 -84q0 2 -4 -60q0 -10 6 -131t6 -139q-281 0 -327 4q-16 2 -46 -3t-42 -5q-18 0 -31 6l-10 10q-4 16 -4 285v629q2 27 10 389q4 195 2 219q-8 72 2 72v6l1051 2q156 -2 137 -2q80 2 127 22zM-2 1468 q4 -23 6 -34h-6v34zM520 1186zM1468 1016zM1204 776zM1374 748zM514 578q12 -16 12 -43h-6q-2 14 -6 43zM412 244q20 -4 61 -13q-12 11 -61 13z" />
<glyph unicode="G" horiz-adv-x="1703" d="M563 1638h39v-6q-12 2 -39 6zM721 1626q35 0 35 -8q-12 2 -35 8zM317 1618h41v-6q-14 2 -41 6zM1489 1618q35 -2 35 -12h6v-15h-47q0 8 6 8v19zM973 1591q18 -6 33 -2q-6 -8 -33 2zM1059 1591q72 -23 76 4q-2 -4 -76 -4zM1212 1591q18 -6 33 -2q-6 -8 -33 2zM1278 1585z M1530 1348zM1524 1280q6 -6 6 -12q-14 6 -6 6v6zM1524 1247q6 -33 -8 -33v7q2 10 8 26zM1106 1194v-6h-14q6 2 14 6zM483 1176h6q6 -8 7 -15q-6 -6 -13 -6v21zM1100 1122q6 -18 6 -86h-6v6h-8q4 27 8 80zM1489 1096zM471 1096q6 -8 6 -54h-6v54zM1497 1090q8 -14 19 -15 q-7 5 -19 15zM1477 918zM6 838zM1524 1167q-8 25 -21 80q-2 45 19 174q4 29 8 164q-158 0 -111 -2q-82 4 -88 23h-14v-21q-6 0 -15.5 7t-13.5 7l-90 13l-98 -6q-2 0 -5 -1t-67 1q-61 4 -82 6v-21v-6q-16 -2 -53 -6q-4 0 -82 8q-59 6 -76 -2q-43 0 -70.5 13.5t-56.5 27.5 q-10 -33 -39 -39q-104 2 -106 2q-129 -2 -264 -6q-106 -4 -133 2v-6q-31 0 -35 -154q2 -98 2 -196q0 -43 -2 -127q0 -12 -6 -58q-4 -37 -5 -61q0 -41 9 -174q6 -109 4 -176q-10 -344 -2 -457q2 -6 6 -119q4 -25 31 -37q16 -8 92 -6l104 2q223 -10 557 -6q588 6 555 6 q74 0 93.5 6.5t27.5 30t4 66.5q-4 61 -4 69q0 25 7 78t7 82q0 10 -8 66v198q2 281 4 133q-2 88 -24 121q-10 18 -53 21q-35 0 -60 -10h-457q-10 0 -219 -7l-71 21q0 -8 20 -8q0 -6 -16 -13l-25 -6h-6q0 -35 -5 -88t-5 -71q0 -53 31.5 -76t123.5 -17q20 0 55 -4t50 -4 q49 0 47 2q-2 -2 -8 -4q2 -4 71 -2q72 2 84 12q31 0 45 -39h7q0 2 20 25q12 4 33 8q0 -37 -19 -180q0 2 -8 -6q-18 -2 -59 -8q-29 2 -125 -6q-39 4 -107 -7q-10 0 -53 9q-35 4 -53 0q-195 0 -232 18v-6q-10 0 -18 -33q-12 0 -14 66q-4 262 0 477q-4 47 0 139h-6q0 10 -7 -6 q-8 0 -8 6q4 16 13 47q-4 33 8 86q0 4 24 0l35 -6q72 -4 221 2q141 6 215 0q35 -2 107 -8q25 -8 86 -23q-2 -10 -15 -39l-12 -118h-12v20h-6q-2 -14 -8 -47h8q0 -6 6 0l12 12v-18q-6 0 -6 -4t14 -12q8 -4 66 -5q55 0 238 2l59 -14l8 78q2 8 6 20v7h6v-7q2 0 0 -53h15 q0 109 -15 133q21 0 15 45zM231 764q0 8 7 14h8q-1 -8 -15 -14zM12 758zM483 731q2 -10 6 -33h-6v33zM6 725q4 -20 6 -33h-6v33zM999 625q-23 -4 -38 -7v-6h53zM504 618h6q12 -8 12 -12q-37 6 -18 6v6zM590 612q33 -4 33 -14q-19 8 -33 14zM913 606zM489 506zM47 -4h27v-6 q-11 2 -27 6zM145 -10z" />
<glyph unicode="H" horiz-adv-x="1726" d="M1233 1638zM1042 1489q8 -18 9 -121h-9v121zM1511 68q-4 319 -4 317q16 205 37 616q-2 86 -2 259q2 74 -6 190q-10 145 -28.5 165.5t-63.5 16.5q-10 -2 -29 -8h-127q-78 0 -137 14q-51 -12 -109 -34v-54q20 0 33 -34q10 -25 8 -70q-2 -88 -2 -72q0 -100 -10 -352l-381 -2 q-74 0 -88 -4q-18 0 -55 3t-53 3h-19q0 -10 -2 12v29q0 57 -2 199v200q0 4 8 72q4 45 -4 70q0 6 -35 10q-55 6 -188 6q-121 2 -184 12v-8h-27v-6h-6q0 10 -7.5 -4.5t-9.5 -22.5q0 -193 -10 -626q-8 -406 -8 -627v-191q0 -80 6 -99t29 -25q37 -6 92 -9q37 0 104.5 3t94.5 3 q94 0 110 7q8 4 25 47q0 6 -15 12q10 0 9 12q-2 10 -9 17q0 33 6.5 101.5t6.5 102.5q0 39 -4 72q4 0 -9 21q10 0 19 67q8 61 6 82q-2 20 -16 68q-2 25 -9 61q-14 0 70 -6q51 -2 59 6q12 0 26.5 7.5t23.5 7.5q12 0 26 -9h19q0 2 22 -2q49 -12 162 -10q106 2 162 -14 q0 18 8 18q6 0 6 -18q12 4 41 14q0 -8 -8 -14q0 -10 -9.5 -34t-9.5 -40q6 -61 13 -184q0 -16 -6 -101q-4 -90 -4 -139q0 -129 30 -145q0 -6 47 -4q106 0 320 4q27 0 76 8q10 6 18 39q-6 -2 -20 -6h-7zM1042 1360q14 -16 15 -27h-6v-6h-9v33zM1042 1307q8 -2 9 -27z M1042 1251q14 -18 0 -18v18zM1042 1225l9 -41h-9v41zM1004 1184h6q0 -2 6 -6v6h8q0 -39 -8 -39v12h-6q-2 11 -6 27zM1016 1137q8 -18 8 -88h-8v88zM528 1075q0 -6 -7 -16t-7 -17h-12v7q-8 6 -8 14zM1071 1057v-15q12 6 12 15h-12zM1016 1042l8 -47h-8v47zM475 1008 q14 -12 33 -13v13h-33zM514 1008q10 -12 21 -13q-7 5 -21 13zM995 831q0 -47 9 -47zM406 737v-14q14 8 14 14h-14zM575 711v-15q14 6 15 15h-15zM745 711q-6 -2 -20 -6v-9q61 4 61 15h-41zM793 705q6 2 10 -7zM848 705q2 -2 8 -5q-4 -3 -8 5zM414 635zM514 494q12 -27 0 -27 v27zM1524 440q4 -39 8 -61h-8v61zM1524 291zM1524 223q4 -41 8 -67h-8v67zM1016 53zM1071 18q29 -6 94 -6v-6q-37 -4 -102 6h8v6zM1321 -20q41 0 41 -9h6v-6q-10 0 -32.5 3t-14.5 3v9z" />
<glyph unicode="I" horiz-adv-x="1603" d="M250 1638q154 -20 551 -14q121 2 317 -2q231 -4 320 -4q8 2 26 6v-229l-10 -68q4 -14 6 -43q-2 -16 -2 -104q-2 0 -12 -2t-12 -2q-25 8 -68 2q-63 -6 -72 -7q-45 0 -161 9q-106 8 -156 6l33 -27q-10 -2 -24.5 -12t-22.5 -10v-15h6v-6h35v-6q-88 -14 -74 -14v-21h6v-6 q10 2 33 6v-6h8q-6 -59 -12 -176q0 10 4 -150q-2 -31 -4 -94q-2 -35 12 -35v7q-8 35 6 34q0 -33 2 -53q-4 -6 -10 -22.5t-4 -42.5q6 -43 6 -45h20v20h13q20 -12 108 -12h299q14 6 27 -13q10 -10 10 -204q0 -195 -8 -225.5t-111 -34.5q43 2 -141 2v6h6v8h74v12q-76 0 -215 -6 q-147 -6 -211 -6h-88q-59 2 -88 2q-303 -2 -355 2l-79 -4q-59 0 -170 -6q-20 -2 -21 6q-8 18 -6 49q4 49 4 51q-2 41 -4 123q-4 168 8 189.5t193 21.5h225q18 2 49 8q8 27 4 150q2 92 2 274q0 16 -2 92v93q-2 31 2 88q-266 -16 -420 -7q-49 4 -51 4.5t-11 2.5t-13 2 q0 16 7 38.5t7 41.5h-6v-103h-8q0 37 18 217q-2 61 0 182q0 -6 -4 25q0 16 6 16q6 20 14 21v-6q57 12 115 12zM0 1618q14 -14 14 -47h-8q-2 16 -6 47zM68 1585q0 -29 6 -29q-2 11 -6 29zM1444 1427q2 -59 14 -59q-8 34 -14 59zM455 1096zM969 717q12 -27 0 -27v27zM68 506z M475 506h12q-10 -6 -12 -6v6zM217 500h68v-15q-53 -2 -117 4zM6 51zM983 18h94v-8q-33 0 -94 8zM1092 18h47v-8q-16 4 -47 8zM516 10h27v-6q-11 2 -27 6zM53 -37h8v-6h7q-33 -14 -62 -14v8h8q12 4 39 12z" />
<glyph unicode="J" horiz-adv-x="1703" d="M1020 1632zM1026 1632q14 0 14 -8q6 0 7 -6q-13 8 -21 14zM993 1239zM444 799q33 0 33 -6q-10 2 -33 6zM492 799h26v-6q-8 2 -26 6zM1520 35q0 55 -6.5 161.5t-6.5 161.5q-8 0 -8 -6q0 -238 0 -237q-6 0 -6 -6h-6q0 8 -6 66t-8 63q0 29 14 32q0 12 -14 15l12 41 q10 90 2 135q-6 0 -6 6q12 0 12 25q0 31 -12 71q4 0 5 1l3 3q0 59 2 178q0 -6 -10 488q0 78 -2 235q-4 49 -13 144h-6v6q-8 -2 -20 -6q-8 0 -70 16q-37 10 -94 10q18 -6 51 -24q-8 -6 -104 -4q-213 2 -224.5 -22.5t-11.5 -61.5q0 -20 6 -58q6 -45 6 -55q6 -61 7 -289 q0 -109 -13 -129q0 -12 5.5 -35.5t5.5 -37.5q2 -94 2 -279q-2 -33 -9 -102q10 -39 2 -121q0 -6 -6 0l-28 -23q-168 0 -189 -4v6q-8 0 -14 -20q2 0 -27 20q0 -4 -21.5 -8t-25.5 -4h-156q0 4 5 27q-8 18 -17 61q-2 66 -2 303h-67v-6q-49 0 -68 6v-6h-12v-6l-88 12h-9 q0 -6 15 -12v-8q-16 0 -40 8t-36 10q-59 0 -168 17v6h-6q-10 -20 -10 -60q0 -31 7 -88t7 -76q2 -129 0 -155q-2 -20 -6 -62q0 -23 4 -75t2 -80q-2 -43 -6 -86q-4 -57 9 -86t325 -23q819 12 784 12h188q102 0 120 8.5t18 73.5h18v-67h21zM776 238q-8 0 -20 67q16 -16 20 -67z M788 129h-18v53q31 -10 31 -18q-1 8 -13 -35zM1061 670v-21h-8q2 9 8 21zM1053 596v47q23 -29 0 -47zM1296 1401v14h15q-1 -6 -15 -14zM1061 575v-6h6v-6q6 6 6 12h-12zM4 440q6 -18 6 -73h-6v73zM580 426q74 -4 73 -12h9v-6q-76 4 -76 12zM4 358q14 -33 16 -92 q2 -43 0 -114q-2 -88 -2 -105h-8v14q-4 12 -6 89q0 29 -4 174q-4 23 4 22v12z" />
<glyph unicode="K" horiz-adv-x="1576" d="M946 1579q6 -6 6 -14q-14 6 -6 6v8zM705 1524zM905 1511zM825 1444q6 -6 6 -14q-12 8 -6 8v6zM516 1430q10 -27 0 -27v27zM793 1403h12q-20 -27 -21 -33h-6q0 20 4.5 22.5t10.5 10.5zM510 1229q10 -27 0 -27v27zM657 1229q6 -2 9 -10q0 -10 -9 -11v21zM651 1208h6 q-6 -12 -40.5 -62t-38.5 -50v-9h-9v29q14 8 25.5 29.5t20.5 30.5t36 32zM987 967q59 63 137 174q123 172 127 180q29 25 80 82q2 4 58 90q6 14 16 43q20 23 51 76q-63 0 -82 -15q-39 0 -129 6.5t-135 6.5q-94 0 -158 -19q0 -6 15 -6q0 -16 -45 -78q-18 -25 -54 -73 q-37 -39 -104 -123q-6 0 -6 2q0 12 20 24q0 6 -6 6v21h-8v-8q-4 0 -42 -50.5t-44 -62.5q-6 0 -6 -14q6 0 20.5 12t18.5 14v-6h6v-6q-6 0 -15 -12q-57 -74 -139 -217h-26q2 14 6 41h-6v6q-8 0 -21 -27q-4 0 8 -39h-28q0 31 -4 76q-6 57 -9 72q-20 344 -14 448h8l12 -221h7 v236h-7v6h-12v-15q-8 0 -23.5 9.5t-23.5 9.5q-45 2 -135 2q0 6 14 14h-8q0 6 -33 6l21 -20q-240 0 -256.5 -20.5t-16.5 -61.5q0 -20 5.5 -59t5.5 -54q0 -135 -2 -186q-8 -111 -9 -317q-2 -225 -6 -320q-10 -203 -10 -383v-121q2 -20 20 -51q16 -12 56 -12q55 0 71 22h7 q0 -8 17 -13t118 -5l215 -2q-4 219 -4 215q2 98 6 196q0 141 -23 172v9h6v6q18 0 35 -19.5t31 -35.5l41 -31l66 -127l18 -25l16 -47q33 -57 66 -112q37 -70 43 -127h-6q0 6 -29 56t-33 58q-8 0 -4 -12q20 -74 78 -156v-6h8q-4 23 -8 53h14q0 -43 62 -61q18 -4 160 -4l348 -2 q0 49 -39 121q-31 55 -64 110q-86 168 -256 443q-6 18 -18 57l-45 82v6h-6q0 -6 -15 -14v-13h-6v7q-4 0 -4 4q0 6 16 36q6 0 7 3l-19 18q-8 0 -4 12q0 11 45 60zM188 311v13h13q-1 -7 -13 -13zM725 1270v-15h-8q0 16 20 41q6 0 15 7q-9 -13 -27 -33zM778 1190v6h-6v6h12 q0 -6 -6 -12zM551 1163h12q-6 -14 -12 -14v14zM1014 928q18 -8 18 -21q-6 -6 -12 -6v-6h-14q4 21 8 33zM1067 881q10 -27 0 -27v27zM551 498q12 -16 12 -33h-12v33zM537 424q8 -6 14 -6v-68h-8v15q-2 20 -6 59zM672 350zM537 344h14q-12 -2 -14 0zM672 330q12 -10 12 -19h-6 q0 6 -6 6v13zM684 311q14 -16 14 -26h-14v26zM705 285zM711 270zM711 256q14 -16 14 -33h-8zM1389 182zM1421 102zM643 90h14q-6 -14 -14 -14v14z" />
<glyph unicode="L" horiz-adv-x="1392" d="M256 1612q25 -8 31 -6l12 10q-14 -2 -43 -4zM53 1597l8 -32h-8v32zM0 1585h14q-12 -4 -14 0zM53 1556q4 -37 8 -65h-8v65zM53 1483q10 -27 0 -27v27zM61 1436zM53 1415v-26h-6q2 10 6 26zM47 1376q14 -20 0 -20v20zM47 930zM41 823q2 -12 6 -35h-6v35zM41 782l6 -41h-6 v41zM588 573q39 -6 59 -8v-6q-22 0 -59 14zM41 506q6 -14 6 -109h-6v109zM47 383zM47 356zM1303 438h-9q0 6 15 27h6v6h-6q0 8 -88 8q-76 0 -267 4q-166 2 -260 2q-33 0 -100 -2q-25 -2 -49 -6q-25 -2 -45 8q-12 0 -13 25q0 8 15 84q8 41 6 108q-2 88 0 107q16 346 4 647 q0 2 -12 150h-150v6h150v26h-135v-6q-104 0 -142 -26q0 -2 -65.5 -8.5t-70.5 -9.5t-5 -64q0 -14 2 -58v-57q-4 -145 -10 -438q-6 -260 0 -606q-4 -100 2 -291q4 -31 23.5 -45.5t420.5 -8.5q154 4 463 11q14 2 23 16h26q0 -8 -14 -14v-6q139 0 141 20l53 -6q10 2 48 8 q29 6 49 4v6q6 0 6 29q2 162 0 209q-4 33 -12 100l18 -6h8v21q-1 -1 -26 26zM1247 174v14h15q-1 -8 -15 -14zM47 106l6 -65h-6v65zM1094 41zM236 12h26v-6zM297 12h27v-6zM88 6q20 0 21 -6q-9 2 -21 6zM115 6q33 0 32 -6q-9 2 -32 6z" />
<glyph unicode="M" horiz-adv-x="2041" d="M1782 1702zM1305 1614zM1167 1339q-8 12 0 13v-13zM1161 1331zM809 1298zM1077 1190q0 -4 -4 -14q-4 -8 -4 2q6 8 8 12zM926 1143h6q0 -6 8 -6q-8 -6 -14 -7v13zM874 1049zM1012 1036zM907 954q18 -20 19 -39h-6q-9 23 -13 39zM991 922zM940 840q12 -14 12 -27h-6v8 q-2 7 -6 19zM1337 713zM1298 592v-41h-6q4 25 6 41zM1292 545zM612 330q2 -2 6 -2q-4 0 -6 2zM1853 221q0 10 -14 47q-4 0 -2 21q2 199 12 301q6 63 6 139q0 72 -6 195q-8 137 -8 186q-2 72 -2 309q0 -14 -6 105q-4 70 6 98v6h-6q0 6 -6 6q-53 2 -119 35q-2 -8 -10 -24 q-27 -18 -217 -7q-88 6 -102.5 -3t-20.5 -60h-8q-2 12 -7 39h-12q0 -29 -20 -70q-18 -33 -35 -65q-35 -86 -107 -252q-25 -47 -73 -144q-29 -68 -86 -204q-12 -33 -52 -93q0 -6 -6 -6v6q-6 0 -26 41q-92 190 -140 320q-8 29 -26 90q-35 72 -103 219q-18 45 -34 90 q-25 61 -45 78q-12 10 -170 12q-156 0 -172 -8h-230q0 -6 -6 -6v-8q4 0 27 -12l-9 -35q8 -72 9 -201q0 -137 6 -420q6 -264 6 -422q0 -240 -2 -303q2 -39 -4 -115q4 0 6 -79h20q0 23 3.5 68.5t3.5 64.5h6l6 -121l196 -21q68 -6 254 -6q0 72 4 264q4 168 3 269q0 35 -7 119 q-4 78 -4 118q0 90 17 152h8v-6h12l-4 -60l29 -102q41 -150 170 -436v-8h-6h4q33 -12 114 -7q61 2 123 7q53 -4 148 8q27 8 88 198q39 119 76 236q16 25 38 78q10 47 2 86h7v14h8l10 -61q4 -45 10 -136q0 -98 6 -294q4 -45 11 -136q0 6 -2 -149q-2 -111 12 -135 q8 -12 37 -17l248 -2q123 0 129 2q16 2 25 18.5t5 49.5q-4 27 -8 51q0 12 -2 109q6 0 6 -21h8zM326 254v-6q-6 0 -13 6q-6 0 -12 8q10 -2 31 -8h-6zM743 322h7q-7 4 -7 0zM711 141zM1729 0h45v-14q-10 0 -32 3t-13 3v8zM1833 0h20v-14h-14q-2 4 -6 14z" />
<glyph unicode="N" horiz-adv-x="1816" d="M68 1632h530q61 0 61 -8h7q-2 -27 16 -72q16 -33 31 -67q25 -70 78 -209q20 -49 43 -96q23 -57 22 -109q23 2 23 -6h8q-2 -8 -2 -18q0 -47 43 -162q35 -96 63 -146q4 -8 53 -67q33 -41 33 -78h6v-8h9v8h8q8 39 22 113q2 29 -2 84q-6 66 -6 86v501q-31 -6 -31 0h-6 q2 8 6 23h9q8 -8 8 -15q4 35 6 52h-6v-23h-17v23q23 10 23 14h-6q-37 72 -25 141q2 6 9.5 16.5t7.5 14.5h378q18 8 48 10q20 2 53 0q43 -2 53 -2q-10 -94 -22 -284q-4 -131 2 -330q10 -281 12 -328q0 -51 -8 -139q-6 -94 -9 -137v-359q0 -37 -6 -37v-8q-74 0 -188 -2 q-147 -4 -184 -6q-47 0 -131 4t-119 4v8h-8q2 45 -39 138q-33 74 -90 213q-16 63 -66 182q-16 27 -33 27q0 16 8 16v37h-16q2 -10 8 -31h-8v8q-18 29 -18 47q0 6 4 7v-9q8 -14 14 -14v6q4 16 -9 47t-13 43h-15q0 8 -8 8v-22q-39 45 -39 90h23v6h-7v8q-31 -14 -30 -14 q-8 29 -15 59h7v-8q16 -14 16 -22h6q-4 14 -24.5 40.5t-21.5 38t-7 42.5h-6v-17q-12 -25 -15 -92q-2 -51 -2 -102q-20 -455 -14 -650q0 -14 7 -45.5t7 -52.5l-534 18q-27 12 -27 58h8q14 10 15 14q-16 43 -23 189q0 14 8 14v-8h6q16 -16 17 -23h14l-33 62q-14 57 -14 131 q0 57 12.5 171.5t12.5 166.5h8v-7q14 -8 14 -16h17q-18 23 -41 76q4 35 8 104q0 98 10 289l-6 55q4 49 10 150q-6 49 -4 147q9 12 23 39zM674 1632h8q0 -8 8 -8q-8 -6 -16 -6v14zM1061 1565zM1055 1505q4 -27 6 -45h-6v45zM1083 1319h17q-8 -16 -17 -16v16zM1092 1288 q4 -27 8 -45h-8v45zM1083 1237q8 -10 9 -8q-3 2 -9 8zM872 1147q14 -14 15 -23q-5 9 -15 23zM887 1102q14 -16 14 -31h-6q-4 11 -8 31zM909 1012zM1061 915q6 -45 8 -67h-8v67zM659 795q14 -47 15 -37h8v8q-10 14 0 14q-9 5 -23 15zM690 721zM690 705q14 -23 15 -37h-9v8 q-2 11 -6 29zM1122 668q0 -29 8 -29q-4 9 -8 29z" />
<glyph unicode="O" horiz-adv-x="1814" d="M328 1657h92v-8h-8v-7q-14 0 -53.5 3.5t-30.5 3.5v8zM260 1649zM428 1649q37 0 37 -7q-12 3 -37 7zM481 1649h76v-7zM1636 1239q0 76 2 227l15 146h-8q0 8 -31 8h-342q-39 0 -124 7t-126 7h-983q-14 -29 -19 -78q-2 -35 3 -92q4 -70 4 -88q-2 -66 -4 -260 q-2 -156 -3 -260q0 -156 -4 -188q-8 0 0 -31q2 -18 9 -57q-23 0 0 -60q-16 0 -13 -71q4 -66 13 -91q-8 0 -11 -12q0 -31 -2 -88q-8 -147 -4 -192q-8 0 0 -7q0 -4 17 -22q2 0 45 22q0 4 2 4q6 0 13 -10t7 -16h8q0 -8 43 -8q43 2 56 8q0 10 16 -14l53 6q10 0 43 -4.5t49 -4.5 q37 0 52 17h16q-4 -10 -8 -23q37 0 106.5 7.5t106.5 5.5q98 -4 297 -13q80 0 205 4q166 4 206 5q61 -2 123 -3q92 0 110.5 15.5t18.5 146.5q-2 -260 -2 170h8q0 8 7 -8q0 -2 2 -6h14v14q-6 0 -2 23q0 94 2 284q4 78 8 236q0 -16 -2 213l14 72q-2 20 -6 59zM139 645q0 8 6 14 h9q-1 -8 -15 -14zM1143 725q-4 -39 -6 -117q6 -39 -2 -112q-4 -8 -38 -11.5t-46 -15.5q-82 8 -336 8q-31 -4 -90 6q-8 0 -15 -22q-35 0 -43 82l-2 110q-8 0 -8 -67h-16v8q-10 0 -11 20q0 61 27 97q-23 0 -27 67q-6 57 0 86q8 27 27 82v66h-8v6q-8 0 -8 -43q-12 0 -15 76v100 q16 0 31 -14h8v43q0 20 101 26q117 6 127 11q115 -6 176 -29q0 6 -8 14q25 -4 75 -10q25 6 72 6l35 -24l-13 -60l-2 -94q1 -16 15 -295zM1608 1313v14h14q0 -8 -14 -14zM633 1188q92 0 92 -14h6v-9q-53 5 -98 23zM618 1143q29 -23 29 -37h-6v-6h-8v6h-8q-3 12 -7 37z M565 1128zM647 1034q8 -4 10 -12q0 -10 -10 -10v22zM526 961q4 -23 9 -37h6q-3 12 -15 37zM678 901zM549 858q12 -31 0 -31v31zM588 844q6 -23 6 -82h-6q-6 53 0 82zM541 813q27 -20 8 -20v-9h-8v29zM549 770zM907 756h15q-13 -4 -15 0zM557 739zM1075 645q25 -23 6 -22v-7 h-22v15q8 0 9 5t7 9zM526 580v-103h31q-4 25 -8 88q-15 9 -23 15zM1636 506q16 -12 17 -23h-8v15q-5 6 -9 8zM1653 389zM1645 330q6 -29 8 -43h-8v14h-9q5 11 9 29zM61 131zM168 51v-6h8v-8q8 8 8 14h-16zM238 51q14 -14 30 -14q-18 8 -30 14zM274 51q14 -14 31 -14 q-17 8 -31 14zM8 45zM389 29zM434 37v-14q16 6 17 14h-17zM496 -125q23 -6 22 -14q-6 4 -22 14zM762 -131z" />
<glyph unicode="P" horiz-adv-x="1720" d="M-4 1612zM18 1284zM1538 567q-6 90 2 176h-8v-14q-10 0 -6 35q4 23 8 45q6 158 2 397q-4 367 -4 391h-6q0 8 -31 9q-61 0 -156 6q-121 6 -147 6h-223q-418 10 -537 8q-25 -2 -104 2q-90 4 -133 4q-106 0 -140 -20v-6h-8q0 10 -22 22q-2 -59 -7 -125q12 0 23 37h14 q-4 -47 -8 -139q4 -113 8 -336q0 -4 -6 -80q0 -25 4 -76t4 -80l-8 -86q0 -41 6 -172q6 -109 4 -172q0 -82 -2 -247q-4 -29 -8 -56q-2 -35 6 -55v-14h15v57h8q2 -16 6 -51h8q0 -6 133 -6q0 -12 -57 -15h-76q0 -14 107 -16q102 0 131 8h14v8h-65v15h274q0 84 -4 254t-4 258 l104 -13q23 4 68 11q96 0 289 2q33 6 104 14q111 2 393 -8l8 139h15q-2 -43 -8 -139h14v8q8 0 6 14zM1102 1116q-2 -57 -23 -82q8 -18 15 -37q8 -41 -15 -86v-8q-16 0 -48 11.5t-48 11.5t-29 -8q-51 0 -104 14q0 -10 -37 -10q-25 0 -104 8q-66 6 -74 2h-8q0 6 -29 -4 t-39 -17h-6q0 20 -7 83t-7 98q0 84 36 112v6q4 0 -8 23q68 -41 164 -47q23 2 66 8q53 4 157 -2q123 -6 136.5 -19.5t11.5 -56.5zM618 1182h31v-8q-11 2 -31 8zM25 1122q6 -27 8 -43h-8v43zM1630 1079q2 -29 -8 -28q0 6 8 6v22zM1042 1051h15q-13 -4 -15 0zM33 1034zM686 991 h14q-10 -8 -14 -8v8zM25 963q12 -31 0 -31v31zM25 889q23 -74 0 -74v8h-7q0 6 7 6v60zM-4 866q10 -29 0 -28v28zM18 786l-8 -43h-6q2 23 14 43zM1325 524l148 -8q10 2 30 8v-16q-229 0 -235 4q14 -4 57 12zM4 186q14 -35 14 -159h-14v159zM567 55q2 -6 8 -22h7v-6h-15v28z M242 27v-9q4 4 12 5q0 2 -12 4zM10 12zM33 12h37v-8h-7q-16 -14 -16 -22q-8 8 -14 8v22zM397 12q37 0 37 -8q-12 2 -37 8zM440 12q39 0 39 -8q-12 2 -39 8z" />
<glyph unicode="Q" horiz-adv-x="1755" d="M1575 1583q6 -16 6 -41q0 -33 -14 -33v17q6 32 8 57zM1575 1481q10 -29 0 -29v29zM1575 1438q10 -29 0 -29v29zM1583 1335zM1583 1313zM1561 111q6 -18 6 -95h-6v95zM82 16h45v-8q-16 4 -45 8zM133 16h31v-8q-11 4 -31 8zM252 16h29v-8q-9 4 -29 8zM621 8h8q0 -6 8 -6 q-8 -8 -16 -8v14zM1520 16q18 242 22 523q2 197 0 514q-4 416 -4 538h-8q0 6 -51 6q-74 0 -191 5q-145 4 -186 4l-62 4q-37 4 -57 -4q-162 6 -487 14h-473q-2 -8 -9 -131q-14 -319 -14 -369q0 -117 8 -351t8 -351q0 -360 -2 -209q2 -164 22.5 -175t78.5 -14q39 -2 109.5 2.5 t86.5 4.5q25 0 428 -2v-11q-8 0 4.5 -55t51.5 -72q18 -8 129 -10h303q0 10 -6 10q0 23 -23.5 63t-21.5 64q70 -2 172 0q139 2 172 2zM459 483q0 8 -8 15q0 6 6 12t7 13t5 89q2 63 18 82q-4 31 -16 94q-18 254 10 351q27 -23 29 -125h8q0 117 0 116q25 0 77 -6t79 -6 q35 -2 97.5 -1t92.5 1q125 0 142 6h8q-4 8 -8 6v9q16 -6 45 -15q6 0 0 -37q-6 0 -7 -2q0 -4 21 -20q-4 -16 -14 -51q0 -6 7 -19.5t7 -23.5q0 -55 -8 -131l20 -109q2 -49 2 -98q2 -59 15 -92q-8 0 -19 -11q-14 -16 -16 -18q-14 -6 -45 -23v-6q-27 0 -82 66q-16 0 -29 -14h-8 v-17q18 -4 66 -14v-15q-14 -4 -43 -12q-135 -2 -142 -2q-35 2 -111.5 8t-117.5 6q-49 0 -88 -6zM1434 2h30v-8zM1507 -6h31v-6q-11 2 -31 6zM754 -20v-7h8v-8q8 8 8 15h-16zM1257 -20zM1450 -43zM1634 -63z" />
<glyph unicode="R" horiz-adv-x="1646" d="M-63 1776h22q-6 -8 -22 0zM1497 1585q6 -25 6 -168h-6q-6 143 0 168zM1497 1409q6 -6 6 -14q-14 8 -6 8v6zM1497 1343v-94h-8q0 57 8 94zM1421 1604q-2 0 -20 8q-47 0 -139 2h-248q-125 0 -362.5 4t-356.5 4v8h309v6q-68 0 -202 4.5t-201 4.5v-9h-8q4 -2 10 -4h35 q-4 -8 -25 -12q-16 -2 -43 0q-37 2 -43 2q-43 0 -29 0h-73v-8q-8 0 -7 -29q4 -43 9 -315q6 -125 14 -381q-2 -170 0 -512q0 -2 12 -197q-20 0 -20 131q-8 0 -8 -14q0 -39 -2 -117q0 -16 -4.5 -40.5t-4.5 -37.5q0 -29 19 -61v-8h219q59 -4 119 -10q80 -2 108.5 13t28.5 197 q0 238 -23 312h9v16q14 0 40.5 -14.5t38.5 -14.5l91 11l34 -19q0 -4 29 6q0 -39 27 -88q23 -41 47 -80q12 -23 76 -155q16 -29 34 -55q20 -35 17 -66q-12 -18 -31 -53h-14v-6q23 0 65 14q0 6 10 2t19 -8q43 -12 100 -12q39 0 99 6q78 6 96 8q33 -2 94 10q4 0 -2 21 q-10 29 -10 30q-49 117 -154 332q-14 43 -61 123q-8 0 -9 8l52 12q43 4 184 2h66h6q0 18 7 261t7 395q0 344 -31 373zM946 969q-10 -8 -28 -21v-8h-15q-82 0 -102 -6q-33 -4 -103 -8q-98 -2 -67 -2q-41 0 -58 16h-6q-2 -6 -8 -20q-8 0 -26.5 10t-24.5 10q0 -6 -6 -14v8 q-8 0 -8 14q0 121 -9 197l17 45q20 -6 49 -8q18 -2 53 -1t51 1l117 -6q63 2 191 0q-1 -174 -17 -207zM582 1161h14q-6 -14 -14 -14v14zM655 1161q41 -6 66 -8v-6q-96 -8 -96 6q10 2 30 8zM567 1147q6 -8 6 -23q-6 0 -6 -8h-14v14q6 0 6 9zM522 999q14 -16 15 -43h-15v7h-6 q2 11 6 36zM866 999q8 -8 17 -8q0 -6 6 -6v-14h-29v14q4 8 6 14zM897 991q20 -10 21 -20zM559 985h8q0 -8 6 -8q-6 -6 -14 -6v14zM545 963q-8 -29 -8 -15q4 5 8 15zM25 647zM1241 487zM33 334zM772 326q16 -23 0 -23v23zM795 201zM809 201q51 -10 51 -21h-14v-8q-8 0 -8 8 q-11 7 -29 21zM39 164q4 -33 8 -58h6q0 21 -14 58zM522 61q14 -18 15 -34h-15v34zM25 18h28v-14q-8 2 -28 6v8zM1020 10q37 0 37 -6q-12 2 -37 6z" />
<glyph unicode="S" horiz-adv-x="1712" d="M539 1632zM559 1640q51 -18 68 -4zM690 1640q12 -4 15 -8q-7 4 -15 8zM799 1632zM842 1632zM870 1640q8 0 19 -2q-7 0 -19 2zM973 1640q20 -8 35 -6q-6 -8 -35 6zM1118 1632zM1321 1624zM1567 1602q6 -6 6 -15q-14 8 -6 8v7zM479 1184q80 -8 103 -8v-23h-15 q-25 2 -49.5 2t-38.5 29zM653 1139q29 -4 29 -15q-11 7 -29 15zM711 1139h73v-6q-26 -2 -73 6zM596 1065q14 0 14 -8q8 -8 0 -8v-7q-4 7 -14 23zM639 1065h23q-11 -4 -23 0zM1501 1065h23q-11 -6 -23 0zM508 1034h102v-8h8v-14q-45 2 -110 14v8zM748 1006q23 -27 57 -27 q14 0 20 8zM1473 983q18 -16 28 -16zM1008 541q51 -4 51 -23q8 0 8 -6h-8v-8q-14 0 -15 8q-24 15 -36 29zM176 481h14q-23 -20 -22 -6q2 2 8 6zM96 475q0 -6 -8 -12q-6 -6 -6 4h14v8zM2 467h72v-8h-15q-34 -6 -57 8zM205 422zM481 1192q35 10 92 8q47 -4 95 -6q188 2 565 -4 q2 0 88 -6q66 -4 106 -4q66 0 97 12q6 0 6 37q0 12 5 103t5 147q0 129 -24 145q0 10 22 31q-10 -2 -29 -8h-391q25 0 -211 8q2 0 -100 -4q-61 -4 -96 10q-41 -16 -129 -12q-61 4 -74 -2q-45 4 -137 8q-43 2 -111 -2q-82 -6 -106 -6q-16 2 -35 -7h317q41 0 41 -6h-10l-320 -2 q-45 2 -122 -8q-4 -14 -21 -119v-194q-6 -63 -10 -187q-6 -315 -6 -299q0 2 4 -84q2 -51 -4 -79q6 0 20.5 -9.5t22.5 -11.5q49 -2 145 -6h189q72 -4 217 -12q510 16 551 -21q-8 0 -7 -8v0q12 -119 -16 -150v-8q-10 0 -28.5 6.5t-28.5 8.5q-49 -4 -146 -9q-51 4 -104 9 q-72 6 -98 -7l-138 -4q-66 -10 -61 -10q-6 2 -12 14q-8 -2 -29 -8q-23 4 -57 8q-29 -4 -72 -10l-160 10v-8h-14q0 -6 18 -10l17 -4q-12 -2 -35 -8q-72 0 -88 -6h-58q0 4 15 28q-18 0 -29 -28v-105v-299h1514l-3 561l9 66q0 76 2 225q2 109 0 119q0 16 -37 12q-33 -2 -43 -12 h-29q-53 0 -135 10q-100 12 -135 14q-123 2 -369 15q-94 8 -94 0q-2 -4 51 -8v-17q-6 0 -71 8q-51 6 -66 0q-92 0 -117.5 30t-19.5 126h-23q0 25 45 39zM2 -4q29 -14 29 -29h-6v6h-9q-6 3 -14 23zM516 -4zM567 -4h152v-6q-54 -4 -152 6zM864 -4h51v-6zM922 -4h94v-6 q-33 -2 -94 6zM102 -94q23 0 23 -6q-9 2 -23 6zM25 -109z" />
<glyph unicode="T" horiz-adv-x="1617" d="M29 1659h127v-8h-127v8zM1458 1659zM-31 1628l8 -74h-8q-4 54 0 74zM1485 1612q-18 18 -72 20q51 -2 -84 -4q-117 -4 -350 -10q-133 8 -164 -4q-80 0 -235.5 7t-235.5 7q-106 0 -121 -8q-59 0 -178 8q-10 -6 -22 -14q-8 0 -9 -37v-383h9q2 10 6 31v14h22q0 -41 125 -47 q-39 2 168 2q0 -14 -54 -14t-61 -11q6 0 47 -4l127 2q2 0 31 9q20 6 35 4q10 -8 31 -23h8q0 -6 10 -2t21 10v-8q4 0 4 -8q0 -6 -21 -59q8 -55 6 -66q-4 -33 0 -94q6 -66 4 -94q-4 -100 -10 -308q-4 -76 -14 -231l31 16q0 -31 6 -100.5t6 -103.5q0 -39 -6 -66v-14 q-6 0 -37 14v8q-12 0 7.5 -19.5t477.5 -19.5q-2 29 -6 84q4 184 6 559q-2 57 -4 171t-10 331h14q0 -12 17 -14q35 -6 86 -2q43 4 88 6t139 4q88 2 109 -8q6 -6 18 -23v-8l45 -8q0 4 -31 22h-6q0 8 6 9v22q10 -2 31 -8h8q0 14 3 113.5t3 160.5q1 164 -24 189zM903 872 q8 -4 23 -22q-13 -1 -23 22zM1069 1538q-10 0 -8 23q2 -4 8 -15v-8zM133 1135q8 -23 -6 -23q4 15 6 23zM389 1135h37v-9h-8v-6q-17 9 -29 15zM-8 1120zM1331 1120h60v-8q-21 2 -60 8zM1024 1090q14 -37 14 -119h-6v14q-12 29 -8 105zM1114 1090h6q16 -20 17 -29q-16 0 -17 6 q-18 16 -6 16v7zM1360 1061q37 0 37 -8zM1038 805q12 -29 0 -29v29zM1481 784q14 -16 14 -39h-8v9zM1038 745q12 -29 0 -28v28zM1047 709q4 -31 6 -45h-6v45zM508 283q14 -16 14 -90h-14q2 70 0 90zM516 178q4 -14 6 -65q4 -55 -6 -56v-6h-8l-4 66q-2 36 12 61z" />
<glyph unicode="U" horiz-adv-x="1673" d="M1163 1638l137 -8q23 8 99 4q80 -6 88 -18q2 -6 6 -14q6 -25 2 -60q-8 -51 -8 -57q-6 -217 -6 -211q0 -35 4 -106.5t4 -106.5q0 -41 -4 -119q-4 -84 -4 -121q4 -135 -2 -403q0 -20 -9 -336q-2 -37 -8 -37v-8q-37 6 -233 8q-74 2 -389 -6q-25 0 -72 2q-53 4 -74 4 q-59 0 -166 -4q-115 -4 -170 -4h-321q-29 0 -29 8h-8q-6 190 6 1075q2 72 2 299q0 141 11.5 173t86.5 36q-41 -2 107 -4q70 0 211 -2q29 0 29 -12h8q-16 -59 -15 -168q4 -119 -4 -168q-6 -23 -10 -23q8 -20 6 -57l-2 -59q2 -82 -6 -541q0 -68 2 -68v-14q4 0 100 -2 q33 -6 97 -12q70 4 213 6q27 -2 80 -6l51 -15q0 23 6 23q-2 111 10 315q14 217 15 320q0 20 3 54t3 48q2 92 0 213q0 16 -11.5 56t-11.5 61q0 20 10 37q6 10 79 16t87 12zM14 23h66v-7q-21 3 -66 7zM1434 16q29 -6 28 -16h-8q-12 10 -20 16z" />
<glyph unicode="V" d="M37 1655l102 -6v-9h-88v-8h6v-6q55 2 111 4q88 6 88 19h-82q27 12 92 10q61 -2 92 -12q51 6 119 -5l2 -2q12 -16 13 -65q0 -29 -5.5 -83t-5.5 -69l-2 -422q-8 -18 -22 -61l-4 -82q8 4 28 8l-14 -82q35 -12 82 -89t66.5 -77t19.5 -8q-12 -14 0 -14q8 -8 59 -82 q39 -55 78 -53q8 0 13.5 11t9.5 11q14 16 123 135q78 84 110 146q8 12 14 12q-14 31 -8 31q25 37 45 37l-22 33q-8 23 -2 61q8 57 8 63q-4 63 -4 197l24 150l-8 202l-12 90q31 8 31 15q66 -8 172 -4l176 4q37 0 37 -6h8q25 -211 29 -492q0 43 0 -493q-27 -10 -64 -66 q-29 -41 -57 -82q-96 -117 -297 -352q-29 -41 -94 -105q-8 -6 -50 -6v-6l-6 -31h-336q16 0 -71 -6q-45 -2 -64.5 8.5t-73.5 85.5q-16 23 -229 371q-14 20 -86 117q-53 72 -74 123q-12 33 -8 90q2 45 6 92q0 41 11 391q0 2 -3 21q-2 18 0 26q0 12 9 13q-12 45 -6 45 q4 33 2 133q-2 86 12 129zM276 1640zM322 1649q-2 -2 -9 -2q7 4 9 2zM1057 1640zM635 965zM561 903zM823 739zM815 618q4 -10 -5 -24t-9 -21h-6zM766 565q6 -2 6 -37h-6v37zM23 543zM641 520v-14q14 6 14 14h-14zM8 498zM1493 461zM1376 422zM1501 197q29 -4 29 -15 q-13 7 -29 15zM473 61q12 -14 23 -14q-9 4 -23 14zM889 47zM1028 47z" />
<glyph unicode="W" horiz-adv-x="2117" d="M1378 1260zM893 1087q57 0 57 -14h15v-6q-35 2 -39 4q-21 4 -33 16zM819 1073h15q-6 -14 -15 -14v14zM1298 1022q4 -23 7 -39h-7v39zM551 977zM1290 924q14 -14 15 -29h-7v6q-2 9 -8 23zM559 774v-8h-8q-6 53 8 84v-76zM588 760zM1364 616q4 -29 14 -28zM1892 1575v14 q-6 0 -6 -28h-8q0 27 -37 43q-23 12 -231 10q-207 -2 -217 -12v-13l20 -268q-2 -41 -6 -121q-2 -68 -4 -82q-4 -45 -19 -74q0 -14 -3 66t-3 113q-8 0 -8 -45q0 -31 2 -164q2 -27 6 -68l-12 -104l18 -90v-9q-6 0 -14 17h-6v-113q-8 0 -8 8h-6q0 -8 -15 -16l-92 123 q-61 117 -143 250q-27 41 -29 43q-18 27 -39 28q-6 -2 -18 -4q6 -2 16 -6q0 -8 -51 -16q-59 -10 -66 -13q-55 0 -86 7q-74 -123 -231 -359q-16 -25 -51 -67q-10 0 -15 -37q-16 0 -36 37q-2 0 -7 2q2 18 18.5 58t16.5 63q0 16 -6 34l-14 -67q-14 0 -10 82q8 109 2 411 q-4 260 14 412h-508q-18 -57 -18 -137q0 -49 9 -144.5t9 -138.5v-911q4 -10 10 -29q4 -4 6 -8t7 -8q-6 -20 -23 -68q-4 -18 0 -149q51 0 117 -17q82 -23 108 -26q33 -4 84 4q59 8 84 8q106 0 130 8t59 76q25 47 47 92q82 121 250 356v7q8 0 26 -33q29 -59 178 -305 q27 -47 57.5 -98.5t67.5 -82.5q20 -18 107 -18q41 0 303 27q33 -6 100 -9l109 19v6q6 0 8 22l10 299q29 201 25 285q-4 66 -10 195q4 43 10 127v239q0 90 -2 181q2 102 24 163q10 0 0 23zM827 543l21 -23q-11 0 -21 23zM1841 662q0 8 8 16h6q0 -8 -14 -16zM1841 1194v14h14 q0 -8 -14 -14zM1864 348q10 -31 6 -84q-6 -90 -6 -88h-9q1 57 9 172zM879 289h14q-12 -4 -14 0zM1769 117v-82h7v6q14 6 10 37q-5 31 -17 39zM1855 117q8 -14 13 -39q6 -29 -4 -29v-8h-15zM1944 117q10 -31 0 -31v31zM1241 27v-9h-8q12 -4 33 -4q25 0 24 13h-49zM1327 27 q18 -16 64 -17q-78 2 73 2q12 4 13 6q0 9 -150 9zM1552 18zM88 12h29q-8 -8 -15 -8q-4 2 -14 8z" />
<glyph unicode="X" horiz-adv-x="1746" d="M834 1194h14q-12 -4 -14 0zM848 1110h14q-8 -14 -14 -14v14zM848 1096zM1561 532l-373 232q2 14 21.5 29.5t35.5 29.5q74 76 232 215q29 23 84 66q12 18 12 90q0 45 -5 127t-5 96q2 16 6 47q2 113 2 174l-84 -10q-27 4 -70 10h-90h-90q-76 0 -90 -6h-98v-8q-10 0 0 -20 q14 -31 20 -156q6 -129 -6 -162q-2 -10 -47 -59q-18 -31 -64 -84q-12 -12 -65 -45q-41 -27 -60 -58q-18 0 -34 21q0 2 -43 35q-16 20 -52 61q-43 27 -96 88q-10 27 -10 103q0 27 2 86t2 84q0 82 -14.5 98t-108.5 18q-121 4 -125 4q-27 -6 -147 -6h-195q0 -8 -6 -8v-6h6 q0 -6 29 0v-8q14 0 0 -41q0 -6 7 -22.5t7 -26.5q-4 -37 -8 -111q0 -27 4 -63q6 -49 6 -62q0 -49 2 -145q0 -31 -2 -64q2 -35 15 -57q6 -10 81 -57q70 -43 207 -130q37 -33 119 -81q-4 -8 -8 -21q-33 0 -43 -8q-12 -16 -41 -47q-14 -10 -64 -43l-63 -60q-63 -43 -100 -73 q-76 -59 -84 -86q-4 -14 0 -37q8 -29 8 -35q0 -82 -2 -164q2 -106 22 -149q0 -12 33 -13q381 -18 416 9q10 10 18 129q6 135 8 145q4 23 22.5 43t37.5 41q6 0 14 6v-14q6 0 8 8q8 31 45 72q51 59 58 67q35 0 35 21q16 0 123.5 -91.5t119.5 -113.5q6 -12 0 -31 q0 -2 14.5 -19.5t14.5 -29.5q0 -2 6 -76q-4 -20 -8 -43q0 -20 2 -57q4 -43 6 -62h6q0 -6 41 -6h438l13 90q0 51 2 154q0 10 5 74.5t5 101.5q0 80 -20 100zM750 1014q0 -2 -21 41q27 -14 35 -41h-14zM348 750q20 0 21 -9q-9 3 -21 9zM764 500h29v-8h-9q-20 -25 -20 -35h-21 v14h7q6 9 14 29zM653 346zM772 317zM647 96zM702 68l7 -50h-7v9h-8q2 14 8 41zM1292 6h29v-8q-11 2 -29 8z" />
<glyph unicode="Y" horiz-adv-x="1755" d="M14 1638l142 -6q12 -4 32 -10q35 -10 103 -2q10 2 10 10h14v-6q29 6 64 6q29 0 88 -7t90 -7q0 -176 -2 -217q0 -16 -5 -55t-5 -60q0 -33 12 -55q25 -49 158 -139q25 -20 51 -39q39 -29 53 -29v8l45 17q4 4 20.5 23.5t24.5 19.5q14 -4 23 -9q25 20 72 64l73 69l29 39 q14 16 31 17l-19 196q-12 135 -12 131q2 23 16 27q25 8 142 8q139 -2 211 -2q35 4 71 6q43 4 68 -4l4 -8q10 -29 10 -70q0 -27 -5 -74.5t-5 -66.5q-2 -47 4 -135q6 -94 6 -137q0 -57 -6 -105q-4 -16 -26.5 -48t-22.5 -34h-8q2 6 8 23h-8l-207 -150q-70 -53 -211 -155 q-53 -33 -55 -33q0 -8 -9 -8q-10 6 -18 6q-20 0 -31.5 -33t-7.5 -78q4 -39 8 -75q-4 -86 -4 -256q2 -35 6 -68q2 -43 -8 -64q-14 -35 -74 -34q-25 6 -49 15t-88 9q-23 0 -77 -2t-78 -2q-100 0 -115 21q-6 6 -6 94q0 23 8 22q4 -20 8 -36q2 8 8 126q6 137 6 324q0 45 7.5 46 t23.5 7v9q-109 76 -334 212q-12 6 -12 13q-31 -16 -31 -17v9q-14 16 -112.5 79.5t-112.5 63.5q12 61 12 147q0 43 -6 144q-4 92 -2 137q4 63 10 188zM881 1149q14 -16 14 -29h-8v-8h-15q0 14 9 14v23zM737 1120q23 -10 23 -22h-8q0 6 -5.5 9t-9.5 13zM256 864h8q0 -8 6 -8 q-8 -8 -14 -8v16zM279 848q23 -6 22 -14q-10 6 -22 14zM301 834q14 0 14 -9q8 0 9 -6q-9 5 -23 15zM1421 766zM436 713q31 -10 31 -23h-8zM1098 623h16q-14 -2 -16 0zM1083 608h15q-6 -14 -15 -14v14zM1106 563zM541 37l112 -8v-9q-41 -2 -118 9h6v8z" />
<glyph unicode="Z" horiz-adv-x="1701" d="M623 1071q27 0 26 -8h-6v-8q-6 6 -20 16zM289 1063zM670 1010q12 -4 20 -9h-6v-6q-20 -8 -20 -16h-15v8h8zM1491 979q4 -2 0 -10q-8 -12 -8 -19h-13q7 11 21 29zM514 807zM90 678h27q-6 -8 -13 -8q-20 -10 -20 0h6v8zM63 664h13q-11 -4 -13 0zM774 543h12q-10 -8 -12 -8 v8zM801 526h26q-6 -6 -14 -8t-27 -6q6 8 15 8v6zM1526 1440q10 35 16 98q-4 37 -22 55q-4 4 -7 6q-25 12 -63 17q-27 2 -72 0q-68 -2 -71 -2l-582 -2q-14 0 -70 4q-45 2 -71 0q-39 -4 -64 -17q-49 4 -149 13q-98 -8 -287 2q-14 -10 -35 -35q-23 -55 -14 -381q4 -86 0 -98 v-15q18 0 60 7.5t63 7.5q41 -4 123 -6h587v-23q-51 0 -108 -61q-6 0 6 -15q-20 0 -47 -30q-39 0 -70 -45q-12 2 -33 8v-23q-23 -10 -69 -33q-70 -43 -213 -129q-88 -49 -262 -147q-10 -6 -37 -39v-8q10 4 28 8v-14q-10 0 -15 -15.5t-9 -150.5q0 -12 -10 -379h374v-6h-26 q0 -8 26 -10h35q45 -6 129 6q104 16 131 16q84 2 254 4q147 2 295 4q244 4 256 23q20 27 23 237q-2 -168 -2 271h-54v-8q-12 0 -14 -9q0 -14 -94 -20q-109 -4 -117 -10q-8 0 -74 4q-55 2 -88 0q-47 -2 -63 -11q-369 0 -191 5q-117 -4 -172 -35v8h-14q0 25 21 53q0 8 16 10 q10 2 22 5q18 18 58 49q104 63 315 188q125 70 250 139q199 115 211 160q2 74 2 82q0 16 -2 205zM84 565v-8h-14v8l430 264q-6 -25 -193 -137q-157 -94 -223 -127zM1061 813v16h12q0 -8 -12 -16zM1552 37zM1087 -8h48v-8q-15 2 -48 8zM1196 -8zM1307 -16h143v-17 q-49 3 -143 17zM76 -25h8v-8h6v-6h-35v6q9 4 21 8zM637 -25h41v-8z" />
<glyph unicode="[" horiz-adv-x="1163" d="M160 1077q0 -23 -2 -49h-2q0 16 4 49zM158 1010v6v-6zM158 1008l-2 -13h-2q0 5 4 13zM156 971q-2 -8 -4 -17l-5 2zM125 679v0v0zM123 672q0 -6 -1 -8t-5 -2q2 4 6 10zM117 541v-9v9zM117 516q-4 -12 -8 -12q2 4 8 12zM88 580q0 -4 -4 -13h-2q2 3 6 13zM152 1376 q20 -4 57 -33q29 -23 55 -43q53 -33 154 -100q51 -39 55 -39v-4q-4 2 -10 4v-4h4q18 -18 39 -18v6q6 0 8 -2t8 -4v-4q-8 -4 -4 -5q0 -2 6 -8q35 -23 103 -69q31 -18 30.5 -20.5t4.5 -2.5q-2 4 -25 23q-10 6 -10 10q51 -27 49 -27v-6q-4 2 -12 4q16 -41 57 -41q2 -10 10 -18 q23 -14 68 -43q53 -35 82 -55q18 -12 20 -13q-6 -6 -6 -10q14 -6 37 -18v-7q-4 0 -55 -20q-10 -4 -22.5 -8t-80.5 -33l-37 -23q-53 -23 -157 -63q-78 -29 -88 -27q-14 2 -91 176l-100 232q-20 39 -59 117q-8 16 -41 92q-16 34 -49 104zM197 1169q45 -94 143 -280 q20 -53 66 -156q12 -25 24 -49q20 -37 19 -47q-2 -6 -9 -10l-299 -144q-2 55 2 71.5t6.5 49.5t8.5 94q4 12 10 35l16 133v64q6 117 6 92l-2 14q4 0 5 11h-3q0 -2 0 8q2 12 5 18l-5 25q1 26 7 71zM197 1128q0 -18 2 -18q0 6 -2 18zM543 1122h6q-4 -6 -6 -6v6zM549 1116 q2 -2 12 -4v-2q-6 2 -12 6zM193 1106q0 -14 4 -14q-2 6 -4 14zM580 1098q25 -12 24 -19q-18 7 -24 19zM604 1079q20 -10 17 -10v-2q-6 0 -7 2zM676 1030l26 -14v-6h-2q-8 6 -24 20zM784 1018h4q0 -2 3 -2q-2 -4 -7 -4v6zM731 985q43 -12 43 -27q-27 9 -43 27zM784 975h7 q-2 -4 -7 -4v4zM803 965h4q0 -4 2 -4q-2 -2 -6 -3v7zM821 952h4q0 -4 2 -4q-2 -2 -6 -2v6zM883 909h2q0 -4 4 -4q-4 -2 -6 -2v6zM889 903l2 -4q-2 2 -2 4zM909 891l41 -25v-2q-6 0 -6 2q-23 11 -35 25zM856 885q0 -2 2 -2v-4q2 4 0 4t-2 2zM901 860q2 -4 2 -2zM920 860h2 q0 -2 4 -2q-4 -4 -6 -4v6zM1085 852h5q-6 -10 -39 -25.5t-43 -15.5v4h2v2q28 8 75 35zM1071 831q12 -2 12 -6q6 -14 -10 -118q-14 -82 -22 -179q-6 -35 -7 -34v-2h-6q0 6 2 6l-2 14h-4q0 -10 -10 -27.5t-35 -29.5q-41 -18 -41 -21q-31 -18 -92 -59q-10 -8 -37 -19 q-27 -4 -76 27q-31 18 -30 47q0 -6 -2 -12q-8 -29 -44 -48.5t-75 -19.5t-82 29q-18 12 -21 12q-4 12 -10 39h-6v-6q-6 -16 -29 -43l-45 -27q-45 -14 -82 0q-78 31 -77 80q0 2 -2 6q-2 -4 -5.5 -12t-15.5 -27q-29 -35 -61 -34q-14 0 -31 8q-25 10 -25 18q-4 4 0 4 q6 8 102.5 54.5t104.5 46.5q0 2 2 2l35 14l84 39q20 10 64 25l12 -3v5q-2 6 28 20q88 39 267 113q6 0 18 -2q-6 16 0 16v-2q0 -2 6 -4q0 4 -4 4q16 25 150 70q8 4 8 6l18 -6v4q37 7 76 32zM170 829l2 -28h-2v28zM997 811q10 0 11 -2h-4v-4h-13q2 4 6 4v2zM979 801 q-6 -10 -2 -10v4q8 0 8 2q-2 2 -6 4zM164 770v-55h-4q0 39 4 55zM883 758q0 -6 2 -6v2q0 2 -2 4zM852 745v-4q-8 -2 -8 -6h2v4h12zM834 733zM1067 690v-12h4q-2 4 -4 12zM1061 653l1 -3q1 -3 -1 3zM1055 625q-4 -41 0 -41q2 37 0 41zM1049 582l-7 -50h5zM1010 399zM475 387 h6q-4 -2 -6 0zM727 369q10 -2 10 -7zM731 338q8 -2 12 -2v-4q-6 4 -12 6z" />
<glyph unicode="\" d="M1647 1409v-37h-13q5 25 13 37zM1634 1526q0 -41 -5 -41t-13 -4v4l2 26q2 18 10 19q2 0 6 -4zM1628 1450v-55h-4v6h-4q0 16 8 49zM1624 1575q-16 -2 -27 -4v4h27zM1612 995q-2 -6 -6 -243q0 -14 -4.5 -41t-4.5 -39h-8q0 49 3 146t3 145q4 29 6.5 28.5t10.5 3.5zM1606 334 v-96q-2 -70 -4 -95q0 -4 -5 -4v-4h-8l4 31q-10 12 -10 31q0 12 6 35.5t6 29.5q3 25 11 72zM1593 1571zM1593 1518q-10 -18 -18 -19q-20 23 -80 23v4q41 12 64 12q31 0 30 -20h4zM1544 1638q-18 -6 -18 0h18zM1526 1481zM1522 1634zM1507 -35h-41v-10q18 -6 19 -12h10 q6 10 12 22zM1473 1526q-14 -4 -109 -4v4h4v4q78 6 105 -4zM1473 1481zM1454 -35h-10q4 -10 10 -10v10zM1440 -41q-6 2 -19.5 3t-21.5 3q-4 -6 -4 -10h-4v-4q35 -2 49 8zM1364 -31q4 -2 -59 -4q-55 0 -170 -6v-12q49 -8 49 4q8 -2 135 -6l45 -8v32zM1354 1638q-6 -4 -68 -4 q-2 0 -80 -4l-76 4v4h224zM1341 1526q-14 -4 -98 -4v4q49 4 98 0zM1124 -41q-51 16 -80 12l-32 -12v-4h6q18 -10 55 -12q41 0 51 16zM1004 -41q-45 10 -46 0h-4v-8h13q25 -4 37 8zM944 -41l-57 4l-27 4l-55 -6q-29 4 -74 -4q0 -4 31 -8t31 -12q10 6 34 12l33 -8q8 0 33 5 t39 3q8 -2 9 1zM846 1004zM702 1499q-10 -10 -22 -10v10h22zM698 -41q-18 6 -18 0h-4v-8q12 0 22 8zM455 1616q-14 -2 -23 -4v4h23zM432 1620q-25 -2 -41 -4v4h41zM203 1450h-10q6 -10 10 -10v10zM188 1450q-57 0 -57 -4q49 0 57 4zM121 1530zM72 969q-2 -14 -9 -41h5v-4 q4 8 4 45zM27 -4q-2 -27 -7.5 -28t-15.5 -3v4h-4v4q2 2 10 37q8 29 8 23q-5 -25 9 -37zM27 -63q-4 -16 -13 -17v17h13zM23 1427v-32h-5q-8 37 -4 37q0 4 4 4q3 -3 5 -9z" />
<glyph unicode="]" d="M1647 1409v-37h-13q5 25 13 37zM1634 1526q0 -41 -5 -41t-13 -4v4l2 26q2 18 10 19q2 0 6 -4zM1628 1450v-55h-4v6h-4q0 16 8 49zM1624 1575q-16 -2 -27 -4v4h27zM1612 995q-2 -6 -6 -243q0 -14 -4.5 -41t-4.5 -39h-8q0 49 3 146t3 145q4 29 6.5 28.5t10.5 3.5zM1606 334 v-96q-2 -70 -4 -95q0 -4 -5 -4v-4h-8l4 31q-10 12 -10 31q0 12 6 35.5t6 29.5q3 25 11 72zM1593 1571zM1593 1518q-10 -18 -18 -19q-20 23 -80 23v4q41 12 64 12q31 0 30 -20h4zM1544 1638q-18 -6 -18 0h18zM1526 1481zM1522 1634zM1507 -35h-41v-10q18 -6 19 -12h10 q6 10 12 22zM1473 1526q-14 -4 -109 -4v4h4v4q78 6 105 -4zM1473 1481zM1454 -35h-10q4 -10 10 -10v10zM1440 -41q-6 2 -19.5 3t-21.5 3q-4 -6 -4 -10h-4v-4q35 -2 49 8zM1364 -31q4 -2 -59 -4q-55 0 -170 -6v-12q49 -8 49 4q8 -2 135 -6l45 -8v32zM1354 1638q-6 -4 -68 -4 q-2 0 -80 -4l-76 4v4h224zM1341 1526q-14 -4 -98 -4v4q49 4 98 0zM1124 -41q-51 16 -80 12l-32 -12v-4h6q18 -10 55 -12q41 0 51 16zM1004 -41q-45 10 -46 0h-4v-8h13q25 -4 37 8zM944 -41l-57 4l-27 4l-55 -6q-29 4 -74 -4q0 -4 31 -8t31 -12q10 6 34 12l33 -8q8 0 33 5 t39 3q8 -2 9 1zM846 1004zM702 1499q-10 -10 -22 -10v10h22zM698 -41q-18 6 -18 0h-4v-8q12 0 22 8zM455 1616q-14 -2 -23 -4v4h23zM432 1620q-25 -2 -41 -4v4h41zM203 1450h-10q6 -10 10 -10v10zM188 1450q-57 0 -57 -4q49 0 57 4zM121 1530zM72 969q-2 -14 -9 -41h5v-4 q4 8 4 45zM27 -4q-2 -27 -7.5 -28t-15.5 -3v4h-4v4q2 2 10 37q8 29 8 23q-5 -25 9 -37zM27 -63q-4 -16 -13 -17v17h13zM23 1427v-32h-5q-8 37 -4 37q0 4 4 4q3 -3 5 -9z" />
<glyph unicode="^" horiz-adv-x="1163" d="M160 1077q0 -23 -2 -49h-2q0 16 4 49zM158 1010v6v-6zM158 1008l-2 -13h-2q0 5 4 13zM156 971q-2 -8 -4 -17l-5 2zM125 679v0v0zM123 672q0 -6 -1 -8t-5 -2q2 4 6 10zM117 541v-9v9zM117 516q-4 -12 -8 -12q2 4 8 12zM88 580q0 -4 -4 -13h-2q2 3 6 13zM152 1376 q20 -4 57 -33q29 -23 55 -43q53 -33 154 -100q51 -39 55 -39v-4q-4 2 -10 4v-4h4q18 -18 39 -18v6q6 0 8 -2t8 -4v-4q-8 -4 -4 -5q0 -2 6 -8q35 -23 103 -69q31 -18 30.5 -20.5t4.5 -2.5q-2 4 -25 23q-10 6 -10 10q51 -27 49 -27v-6q-4 2 -12 4q16 -41 57 -41q2 -10 10 -18 q23 -14 68 -43q53 -35 82 -55q18 -12 20 -13q-6 -6 -6 -10q14 -6 37 -18v-7q-4 0 -55 -20q-10 -4 -22.5 -8t-80.5 -33l-37 -23q-53 -23 -157 -63q-78 -29 -88 -27q-14 2 -91 176l-100 232q-20 39 -59 117q-8 16 -41 92q-16 34 -49 104zM197 1169q45 -94 143 -280 q20 -53 66 -156q12 -25 24 -49q20 -37 19 -47q-2 -6 -9 -10l-299 -144q-2 55 2 71.5t6.5 49.5t8.5 94q4 12 10 35l16 133v64q6 117 6 92l-2 14q4 0 5 11h-3q0 -2 0 8q2 12 5 18l-5 25q1 26 7 71zM197 1128q0 -18 2 -18q0 6 -2 18zM543 1122h6q-4 -6 -6 -6v6zM549 1116 q2 -2 12 -4v-2q-6 2 -12 6zM193 1106q0 -14 4 -14q-2 6 -4 14zM580 1098q25 -12 24 -19q-18 7 -24 19zM604 1079q20 -10 17 -10v-2q-6 0 -7 2zM676 1030l26 -14v-6h-2q-8 6 -24 20zM784 1018h4q0 -2 3 -2q-2 -4 -7 -4v6zM731 985q43 -12 43 -27q-27 9 -43 27zM784 975h7 q-2 -4 -7 -4v4zM803 965h4q0 -4 2 -4q-2 -2 -6 -3v7zM821 952h4q0 -4 2 -4q-2 -2 -6 -2v6zM883 909h2q0 -4 4 -4q-4 -2 -6 -2v6zM889 903l2 -4q-2 2 -2 4zM909 891l41 -25v-2q-6 0 -6 2q-23 11 -35 25zM856 885q0 -2 2 -2v-4q2 4 0 4t-2 2zM901 860q2 -4 2 -2zM920 860h2 q0 -2 4 -2q-4 -4 -6 -4v6zM1085 852h5q-6 -10 -39 -25.5t-43 -15.5v4h2v2q28 8 75 35zM1071 831q12 -2 12 -6q6 -14 -10 -118q-14 -82 -22 -179q-6 -35 -7 -34v-2h-6q0 6 2 6l-2 14h-4q0 -10 -10 -27.5t-35 -29.5q-41 -18 -41 -21q-31 -18 -92 -59q-10 -8 -37 -19 q-27 -4 -76 27q-31 18 -30 47q0 -6 -2 -12q-8 -29 -44 -48.5t-75 -19.5t-82 29q-18 12 -21 12q-4 12 -10 39h-6v-6q-6 -16 -29 -43l-45 -27q-45 -14 -82 0q-78 31 -77 80q0 2 -2 6q-2 -4 -5.5 -12t-15.5 -27q-29 -35 -61 -34q-14 0 -31 8q-25 10 -25 18q-4 4 0 4 q6 8 102.5 54.5t104.5 46.5q0 2 2 2l35 14l84 39q20 10 64 25l12 -3v5q-2 6 28 20q88 39 267 113q6 0 18 -2q-6 16 0 16v-2q0 -2 6 -4q0 4 -4 4q16 25 150 70q8 4 8 6l18 -6v4q37 7 76 32zM170 829l2 -28h-2v28zM997 811q10 0 11 -2h-4v-4h-13q2 4 6 4v2zM979 801 q-6 -10 -2 -10v4q8 0 8 2q-2 2 -6 4zM164 770v-55h-4q0 39 4 55zM883 758q0 -6 2 -6v2q0 2 -2 4zM852 745v-4q-8 -2 -8 -6h2v4h12zM834 733zM1067 690v-12h4q-2 4 -4 12zM1061 653l1 -3q1 -3 -1 3zM1055 625q-4 -41 0 -41q2 37 0 41zM1049 582l-7 -50h5zM1010 399zM475 387 h6q-4 -2 -6 0zM727 369q10 -2 10 -7zM731 338q8 -2 12 -2v-4q-6 4 -12 6z" />
<glyph unicode="_" d="M1647 1409v-37h-13q5 25 13 37zM1634 1526q0 -41 -5 -41t-13 -4v4l2 26q2 18 10 19q2 0 6 -4zM1628 1450v-55h-4v6h-4q0 16 8 49zM1624 1575q-16 -2 -27 -4v4h27zM1612 995q-2 -6 -6 -243q0 -14 -4.5 -41t-4.5 -39h-8q0 49 3 146t3 145q4 29 6.5 28.5t10.5 3.5zM1606 334 v-96q-2 -70 -4 -95q0 -4 -5 -4v-4h-8l4 31q-10 12 -10 31q0 12 6 35.5t6 29.5q3 25 11 72zM1593 1571zM1593 1518q-10 -18 -18 -19q-20 23 -80 23v4q41 12 64 12q31 0 30 -20h4zM1544 1638q-18 -6 -18 0h18zM1526 1481zM1522 1634zM1507 -35h-41v-10q18 -6 19 -12h10 q6 10 12 22zM1473 1526q-14 -4 -109 -4v4h4v4q78 6 105 -4zM1473 1481zM1454 -35h-10q4 -10 10 -10v10zM1440 -41q-6 2 -19.5 3t-21.5 3q-4 -6 -4 -10h-4v-4q35 -2 49 8zM1364 -31q4 -2 -59 -4q-55 0 -170 -6v-12q49 -8 49 4q8 -2 135 -6l45 -8v32zM1354 1638q-6 -4 -68 -4 q-2 0 -80 -4l-76 4v4h224zM1341 1526q-14 -4 -98 -4v4q49 4 98 0zM1124 -41q-51 16 -80 12l-32 -12v-4h6q18 -10 55 -12q41 0 51 16zM1004 -41q-45 10 -46 0h-4v-8h13q25 -4 37 8zM944 -41l-57 4l-27 4l-55 -6q-29 4 -74 -4q0 -4 31 -8t31 -12q10 6 34 12l33 -8q8 0 33 5 t39 3q8 -2 9 1zM846 1004zM702 1499q-10 -10 -22 -10v10h22zM698 -41q-18 6 -18 0h-4v-8q12 0 22 8zM455 1616q-14 -2 -23 -4v4h23zM432 1620q-25 -2 -41 -4v4h41zM203 1450h-10q6 -10 10 -10v10zM188 1450q-57 0 -57 -4q49 0 57 4zM121 1530zM72 969q-2 -14 -9 -41h5v-4 q4 8 4 45zM27 -4q-2 -27 -7.5 -28t-15.5 -3v4h-4v4q2 2 10 37q8 29 8 23q-5 -25 9 -37zM27 -63q-4 -16 -13 -17v17h13zM23 1427v-32h-5q-8 37 -4 37q0 4 4 4q3 -3 5 -9z" />
<glyph unicode="`" horiz-adv-x="1163" d="M160 1077q0 -23 -2 -49h-2q0 16 4 49zM158 1010v6v-6zM158 1008l-2 -13h-2q0 5 4 13zM156 971q-2 -8 -4 -17l-5 2zM125 679v0v0zM123 672q0 -6 -1 -8t-5 -2q2 4 6 10zM117 541v-9v9zM117 516q-4 -12 -8 -12q2 4 8 12zM88 580q0 -4 -4 -13h-2q2 3 6 13zM152 1376 q20 -4 57 -33q29 -23 55 -43q53 -33 154 -100q51 -39 55 -39v-4q-4 2 -10 4v-4h4q18 -18 39 -18v6q6 0 8 -2t8 -4v-4q-8 -4 -4 -5q0 -2 6 -8q35 -23 103 -69q31 -18 30.5 -20.5t4.5 -2.5q-2 4 -25 23q-10 6 -10 10q51 -27 49 -27v-6q-4 2 -12 4q16 -41 57 -41q2 -10 10 -18 q23 -14 68 -43q53 -35 82 -55q18 -12 20 -13q-6 -6 -6 -10q14 -6 37 -18v-7q-4 0 -55 -20q-10 -4 -22.5 -8t-80.5 -33l-37 -23q-53 -23 -157 -63q-78 -29 -88 -27q-14 2 -91 176l-100 232q-20 39 -59 117q-8 16 -41 92q-16 34 -49 104zM197 1169q45 -94 143 -280 q20 -53 66 -156q12 -25 24 -49q20 -37 19 -47q-2 -6 -9 -10l-299 -144q-2 55 2 71.5t6.5 49.5t8.5 94q4 12 10 35l16 133v64q6 117 6 92l-2 14q4 0 5 11h-3q0 -2 0 8q2 12 5 18l-5 25q1 26 7 71zM197 1128q0 -18 2 -18q0 6 -2 18zM543 1122h6q-4 -6 -6 -6v6zM549 1116 q2 -2 12 -4v-2q-6 2 -12 6zM193 1106q0 -14 4 -14q-2 6 -4 14zM580 1098q25 -12 24 -19q-18 7 -24 19zM604 1079q20 -10 17 -10v-2q-6 0 -7 2zM676 1030l26 -14v-6h-2q-8 6 -24 20zM784 1018h4q0 -2 3 -2q-2 -4 -7 -4v6zM731 985q43 -12 43 -27q-27 9 -43 27zM784 975h7 q-2 -4 -7 -4v4zM803 965h4q0 -4 2 -4q-2 -2 -6 -3v7zM821 952h4q0 -4 2 -4q-2 -2 -6 -2v6zM883 909h2q0 -4 4 -4q-4 -2 -6 -2v6zM889 903l2 -4q-2 2 -2 4zM909 891l41 -25v-2q-6 0 -6 2q-23 11 -35 25zM856 885q0 -2 2 -2v-4q2 4 0 4t-2 2zM901 860q2 -4 2 -2zM920 860h2 q0 -2 4 -2q-4 -4 -6 -4v6zM1085 852h5q-6 -10 -39 -25.5t-43 -15.5v4h2v2q28 8 75 35zM1071 831q12 -2 12 -6q6 -14 -10 -118q-14 -82 -22 -179q-6 -35 -7 -34v-2h-6q0 6 2 6l-2 14h-4q0 -10 -10 -27.5t-35 -29.5q-41 -18 -41 -21q-31 -18 -92 -59q-10 -8 -37 -19 q-27 -4 -76 27q-31 18 -30 47q0 -6 -2 -12q-8 -29 -44 -48.5t-75 -19.5t-82 29q-18 12 -21 12q-4 12 -10 39h-6v-6q-6 -16 -29 -43l-45 -27q-45 -14 -82 0q-78 31 -77 80q0 2 -2 6q-2 -4 -5.5 -12t-15.5 -27q-29 -35 -61 -34q-14 0 -31 8q-25 10 -25 18q-4 4 0 4 q6 8 102.5 54.5t104.5 46.5q0 2 2 2l35 14l84 39q20 10 64 25l12 -3v5q-2 6 28 20q88 39 267 113q6 0 18 -2q-6 16 0 16v-2q0 -2 6 -4q0 4 -4 4q16 25 150 70q8 4 8 6l18 -6v4q37 7 76 32zM170 829l2 -28h-2v28zM997 811q10 0 11 -2h-4v-4h-13q2 4 6 4v2zM979 801 q-6 -10 -2 -10v4q8 0 8 2q-2 2 -6 4zM164 770v-55h-4q0 39 4 55zM883 758q0 -6 2 -6v2q0 2 -2 4zM852 745v-4q-8 -2 -8 -6h2v4h12zM834 733zM1067 690v-12h4q-2 4 -4 12zM1061 653l1 -3q1 -3 -1 3zM1055 625q-4 -41 0 -41q2 37 0 41zM1049 582l-7 -50h5zM1010 399zM475 387 h6q-4 -2 -6 0zM727 369q10 -2 10 -7zM731 338q8 -2 12 -2v-4q-6 4 -12 6z" />
<glyph unicode="a" horiz-adv-x="1787" d="M399 1634zM461 1634zM877 1634h47v-6zM141 1628h27v-8q-9 4 -27 8zM1006 1628h41v-8q-14 4 -41 8zM1184 1628h41v-8q-14 4 -41 8zM639 1599h74v-6q-27 0 -74 6zM754 1599h41v-6q-14 2 -41 6zM399 1579q4 -27 -6 -27zM1307 1573q12 -16 12 -35h-6v6zM387 1552h6 q-20 -51 -20 -49h-6q4 20 20 49zM1565 1524q14 -29 14 -56h-14v56zM1442 1489q14 -20 14 -41h-8q-2 12 -6 41zM1456 1440q12 -23 12 -35h-6v8zM66 1190q8 -2 8 -10q0 -10 -8 -11v21zM1346 1143zM1354 1120zM1360 1108zM1360 1094q14 -18 14 -29h-8v8zM1374 1065 q12 -16 12 -27h-6v6zM1518 662l-62 141q-39 96 -108 270q-47 115 -41 160q-18 0 -31 16q-20 43 -59 129q-20 37 -58 113q-10 31 -41 74q-20 12 -55 14q-25 4 -64 2q-59 -2 -61 -2h-451q6 -29 21 -41v-14q-16 0 -96 -125t-80 -154q-16 0 -72 -110q-10 -16 -43 -64 q-10 -29 -35 -86q-16 -18 -45 -61q-14 -35 -45 -105q-18 -25 -43 -80q-6 -20 -6 -90q4 -78 6 -235q2 -143 4 -432h463q0 -16 -12 188q2 90 -17 256q8 0 17.5 7t17.5 9q61 4 215 2q174 -2 195 -18h6q2 8 6 23v6h8v-6q10 0 13 -50h8v-8h6v64q6 0 14 -3t6 -26v-6q31 0 48 -6 q0 -8 -4.5 -26.5t-2.5 -29.5q-14 0 -12 -26q2 -117 6 -350q113 2 340 4q31 -2 62 -2q39 0 56 10t17 336q0 39 8.5 119.5t8.5 121.5q0 50 -8 91zM1006 754q0 -6 -7 -15q6 0 7 -14q-6 0 -7 -6q-18 0 -64 8t-71 8q-29 0 -49 -10q-14 0 -44 12.5t-44 12.5q-6 0 -14 -5 q-88 0 -123 -6v-6q-8 0 -16.5 12.5t-4.5 22.5q27 45 78 133q27 59 82 174q8 20 35 58q10 8 37 2q0 10 -7.5 26.5t-5.5 28.5q35 -10 46 -33q16 -45 53 -131q39 -68 76 -135q43 -82 57 -146q-6 1 -14 9zM1386 1030q25 -25 79.5 -139.5t60.5 -151.5l-2 -41h6v-8h-12 q-14 47 -70 168q-48 104 -62 172zM1427 1030q29 -31 29 -61h-8zM1456 969q12 -14 12 -29h-6v8zM1524 969zM1524 954q14 -20 14 -41h-8v7h-6v34zM1468 940q61 -66 62 -152h-6q-23 48 -56 152zM59 899q0 -41 -20 -41v12h6q6 11 14 29zM700 858zM911 829q27 -8 27 -20 q-9 6 -27 20zM-16 641zM-23 586q6 -20 7 -103h-7v13q-4 12 0 90zM18 504q10 -29 0 -29v29zM1626 489zM1626 475q4 -20 6 -35h-6v35zM639 420h27v-6zM543 414h14q-8 -14 -14 -15v15zM932 406q12 -16 12 -27h-6v-8q-41 10 -61 14v6h6q16 7 49 15zM543 385q14 0 17 -3t3 -11 q-12 8 -20 14zM1618 385q10 -14 12 -51q0 -25 -2 -68q-2 -51 -2 -61h-8v180zM666 379zM18 358q4 -27 7 -43h-7v43zM651 358q14 -27 15 -69h-7v12q-2 18 -8 57zM33 289zM25 246q12 -33 14 -82q4 -35 2 -92q-2 -84 -2 -90h-14v264zM-16 190q14 -41 14 -200h-6q-8 55 -8 200z M-57 176q8 -23 8 -172h-8v172zM1612 170q4 -39 6 -64h-6v64zM584 106h14q-6 -12 -14 -12v12zM584 51q14 -14 14 -41h-14v41zM1612 39q4 -14 14 -43h-8v8h-6v35zM952 25zM1225 -25h258q20 0 20 -6h6q-12 -27 -12 -14q-141 -19 -272 20zM1626 -39zM1026 -80l88 -6v-8 q-31 0 -88 14zM1143 -86h67v-8q-22 2 -67 8z" />
<glyph unicode="b" horiz-adv-x="1878" d="M229 1706q8 -4 29 -8v-15l-57 5zM1677 1683h21v-14q-43 0 -43 8q8 2 22 6zM631 1642l63 -8v-12q-72 4 -71 12q2 4 8 8zM774 1642q25 -14 14 -14v-6q-4 6 -14 20zM-14 1608v-15v15zM1597 1599q14 -14 15 -75h-21zM1649 1599q10 -20 0 -20q0 8 -9 8q5 4 9 12zM1683 1599 q4 -12 9 -40h-9v40zM1640 1559q14 -29 15 -64h-6v14q-3 17 -9 50zM1649 1434zM1583 1257q27 -35 8 -34v-6h-8v40zM1649 1208zM1483 1153q12 -14 22 -14q-8 6 -22 14zM981 1139h14q0 -6 -6 -6q0 -6 -8 -7q-6 -8 -14 -8v15q6 2 14 6zM1640 1014zM1520 979q-8 -6 -9 -14 q14 6 15 14h-6zM1425 840q23 0 23 -9h-14q-10 -2 -29 -6v6q6 3 20 9zM1325 805q20 -4 37 -8v-6l-80 -15v6h14q11 9 29 23zM29 756q4 -27 6 -43h-6v43zM1577 623q-31 10 -92 30q-250 90 -301 90q-10 0 -17 -2h-6v7h-8q0 8 31 22q117 49 243 102q39 14 107 52q18 14 20 55 q-2 -20 -4 197q-2 41 2 118q2 86 2 125q0 -2 9 92q4 57 -9 88q0 12 -57 15v-6q-25 2 -78 6q-12 0 -36.5 -2t-34.5 -2q-43 0 -52 32q-31 0 -92 15q-31 -14 -30 -19q0 -6 26.5 -12t28.5 -8q-49 -2 -76 -4q-109 -6 -272 -4q-274 4 -273 4q-10 0 -62 2t-79 2q-41 -2 -59 -10h-7 q0 -6 -14 0q-29 10 -86 10q-33 0 -99.5 -5t-86.5 -5v-9q-8 0 -9 -6q-4 -39 -10 -118l-14 -43l-4 -195l-2 -565l-10 -78q0 -6 4 -152q-2 -45 -7 -133q4 -51 7 -153v-62q2 -35 16 -51q8 -10 145 -12q98 0 271 2q188 4 186 4h588l158 -2q14 4 43 12q27 0 71 14q12 8 17 31 q2 59 6 174q0 18 10 119q6 82 6 131q0 66 -10 107zM623 1180l100 2q0 -8 -14 -8v-7l137 29l80 -16l84 8l129 -6v-8h-6q0 -14 -31 -31q-61 -29 -184 -86q-41 -14 -119 -49q-33 -18 -97 -58q-27 -8 -73 -30q-27 -16 -31 -13h-2q-14 18 -16 62q-2 33 -2 65q-12 98 -27 154z M866 840v6q8 0 8 8q2 -8 7 -23h-7q0 9 -8 9zM1147 385q0 6 -49 16q-47 0 -137 2q-4 0 -87 9l-323 2q4 10 10 41q10 170 4 196q41 -2 92 -26q41 -18 82 -39q166 -70 322 -137q0 -8 -14 -9q0 -6 6 -6l44 -14t56 -35h-6zM1526 721h22q-10 -4 -22 0zM-57 532zM-57 518 q4 -20 6 -35h-6v35zM889 498zM924 483q27 -14 28 -14v-6h-20q-2 6 -8 20zM1640 483q8 -20 9 -168h-9v168zM666 455zM-66 428q10 -14 13 -51q2 -25 -2 -70q-2 -51 -2 -61h-9v182zM1649 260zM-72 211q2 -20 6 -64h-6v64zM1726 168q6 -31 9 -47h-9v47zM-72 78q4 -14 15 -41h-9 v6h-6v35zM-8 14h14q-6 -12 -14 -12v12zM594 8h72v-6zM680 8l51 -6v-8q-22 2 -51 14zM889 8q45 -6 100 -6v-8q-201 0 -203 8q35 -2 103 6zM1290 8h49v-6zM1348 8h92v-6q-61 -4 -92 6zM-57 2zM1032 2zM-8 -6h8q0 -6 6 -6q-6 -8 -14 -8v14zM78 -6h172v-14q-45 0 -90 -3 q-55 1 -82 17zM1440 -41h37v-6q-16 -2 -52 -8q6 8 15 8v6zM215 -61q43 0 109 -7q84 -6 106 -6q45 0 135 -4q2 0 201 -18v-8h-14q-20 8 -129 8q-18 0 -97 -2h-96q-6 0 -43 4q-160 -12 -176 -12q-61 0 -94 12l-15 8q0 10 33 10q16 8 80 8v7zM723 -68q258 0 502 -8 q23 0 63.5 -7t65.5 -7v-6q-145 -8 -201 -6q-57 6 -172 12q-96 2 -258 22zM1511 -82q18 -4 29 -8v-14q-106 0 -106 12q2 2 2 4q32 -6 75 6zM774 -96h64v-8q-21 4 -64 8zM129 -117h164v-8h-164v8z" />
<glyph unicode="c" horiz-adv-x="1681" d="M643 1733h88v-7q-70 1 -88 7zM799 1733h157v-7h-14q-71 -22 -143 7zM1071 1733h62v-7q-12 -29 -15 -28v-6h-12q-4 8 -35 41zM1376 1733h21v-15h-13q-4 7 -8 15zM1411 1733q33 -8 33 -35h-12q-29 18 -29 20h8v15zM1473 1733q8 -27 0 -27v27zM1145 1718q70 -25 69 -59 q-36 8 -69 59zM1323 1712q74 -33 94 -33q-2 -10 -6 -28q-25 6 -71 17t-31 11q4 10 14 33zM963 1706q94 -23 94 -61h8v6h6q10 41 14 41v-6q47 -27 48 -41h12q0 20 8 20q6 -8 6 -14h15v-13h-15q-14 -6 -74 -8q-61 0 -61 8h-8v7q10 27 0 26v8q-109 -2 -221 9q8 2 12 2 q41 2 80 2q47 2 76 14zM94 1692h6v-6q-14 -2 -14 0q2 2 8 6zM133 1692l123 -6v-7q-143 0 -143 7q8 2 20 6zM358 1692q35 -4 54 -6v-15h-6v-6q-37 12 -62 12q-6 0 -14 4q10 -9 28 11zM1479 1692zM420 1686h26v-7q-8 3 -26 7zM840 1665q49 -12 157 -14q6 0 7 -6h6v-7 q-47 -4 -97 -8q-68 -4 -88 8q7 11 15 27zM541 1645q14 -2 41 -7v-8q-27 5 -41 15zM18 1610q0 -10 -10 -26.5t-10 -27.5h-6q-2 10 -8 33zM-16 1556q10 -27 0 -26v26zM1479 1556l6 -67h-6v67zM25 1257zM18 1231q4 -27 7 -41h-7v41zM1473 1176q8 -27 0 -27v27zM657 1169h41v-6 q-14 2 -41 6zM569 1163q6 -29 -8 -28q2 10 8 28zM1473 1135l12 -68h-12v68zM569 1094q4 -31 6 -54h-14q6 36 8 54zM610 1094q182 0 183 -21h6v-6q-61 6 -183 12q-14 0 -14 8h8v7zM793 1087h26v-6q-8 2 -26 6zM596 1061h6q20 -33 21 -47h-21q-2 14 -6 47zM711 1040h20 q-8 -4 -20 0zM778 1040q82 -2 82 -26q-47 -4 -47 0q-17 6 -35 26zM12 1020q12 -37 13 -205h-7zM1473 1020h6q0 -6 6 -6q-6 -8 -12 -8v14zM670 1014q6 -23 8 -35h-8v35zM827 999h7q0 -6 6 -6q-6 -8 -13 -8v14zM1473 999q8 -10 8 -34q2 -18 0 -47q-2 -35 -2 -41h-6v14 q-8 18 -7 53q7 57 7 55zM834 918q20 -20 6 -21v-6h-6v27zM1077 870h49v-6zM561 829l8 -61h-8v61zM834 823q18 -10 18 -18q0 -2 -4 -2v-21h-14v41zM1391 782h12q-10 -2 -12 0zM848 762q16 -4 26 -6v-15h-14v-6q-6 13 -12 27zM997 762q18 -4 33 -6v-8h-6v-7h-27v21zM39 741z M670 700q29 -53 8 -53v-8h-8v61zM942 700zM487 674q4 -23 13 -68h-13v68zM848 674q27 -16 26 -27h-6v-8h-20v35zM819 618q35 -25 35 -32q-2 -8 -6 -21h-8q-6 6 -6 13q-15 15 -15 40zM670 606h14q-6 -14 -14 -14v14zM711 606q29 -6 28 -14q-14 6 -28 14zM860 592q35 0 35 -6 q-12 2 -35 6zM549 578zM834 551q27 0 26 -6h-6v-6zM1405 559q0 10 2 47q2 31 2 47q-2 27 -12.5 41.5t-42.5 14.5q-29 0 -45 -9h-238q-25 2 -74 7q-16 -2 -20 -19q-4 -14 4 -26q-12 -2 -25 -9q4 -6 33 -6q0 -14 -20.5 -28.5t-20.5 -40.5h-6v-7q14 2 41 7q0 -6 6 -13 q0 -8 -20 -14q-2 -37 -6 -109q0 -10 -15 -20q0 -6 -4 -4q-25 12 -86 6t-80 -23q-29 6 -61 15q-25 -4 -74 -10q-45 6 -135 4q0 6 -8 6q0 2 -6 76q-4 43 6 73q-6 0 -6 13q10 0 20 -13h6v27h-47q0 39 21 272q-2 23 -7 60q4 16 11 49q0 16 -4.5 51t-4.5 49q0 29 11 49h-6 q0 8 -7.5 22.5t-7.5 22.5t4 17q12 25 113 24q80 0 127 -8q16 -10 57 -22l135 -2v6q-8 0 -14 14h6q0 18 49 0q6 0 13 -14q-6 0 2 -19q4 -10 4 -82q0 -20 2 -60t2 -63q0 -33 -10 -61q53 0 160.5 -10t164.5 -10q74 0 92 8q8 6 17 33h-6q0 8 -21 0l8 61q2 147 9 442q0 14 5 48 t5 53q-4 29 -12 88q-6 -2 -21 -6v-7q-90 23 -141 23q-59 0 -96 -23q-18 0 -59.5 7.5t-61.5 7.5q-25 0 -41.5 -5t-48.5 -10q-35 0 -82 9q-68 14 -76 16l-141 2q-25 -18 -86 -10q-68 6 -91 -4h-231q-41 4 -84 8q-55 2 -78 -14q-6 0 -2 -27q0 -307 -1 -337t1 -73q2 -55 2 -73 q0 -309 15 -476q-8 -379 -9 -393q6 -25 13 -73q0 -35 8 -103q-6 0 -27 -26q-8 0 -8 -9q-8 0 25 -12q16 -2 43 -6q174 -8 340 2l102 16l102 -18h517l63 -2q49 -2 80 0q41 2 54 12t32 219q14 184 14 252q0 12 -6 39t-6 43zM432 469q0 35 35 70v6q6 -20 6 -35q0 -33 -41 -41z M848 504q33 0 33 -6h6v-9q-37 -6 -53 -6v15q4 2 14 6zM514 463q35 0 35 -6q-12 2 -35 6zM670 401q14 -8 14 -12h6v6q-6 2 -20 6zM-8 240q10 -14 14 -60q2 -33 0 -88q-2 -76 -2 -69h-6q-6 104 -6 217zM1403 90q14 -16 14 -82h-14v82zM1444 90zM1505 82v-47h-6zM1438 70 q20 -47 -6 -47v12q2 12 6 35zM53 49zM1485 23h14q-12 -4 -14 0zM45 -18q197 0 197 -15h-6q-29 8 -76 6l-80 -4q-12 2 -35 4v9zM262 -27h70v-6q-54 -8 -70 6zM983 -33q33 0 33 -6q-10 2 -33 6zM338 -47zM793 -47l67 -6v-6q-10 0 -46 3t-21 3v6zM1268 -47h14q-6 -12 -14 -12 v12zM1329 -47zM412 -59q18 -2 82 -4q51 -4 81 -5v-6l-114 -4q-16 -4 -49 -10v8q-6 6 -6 12q2 5 6 9zM596 -59h74v-9h-74v9zM1444 -59q14 -16 14 -47q-68 0 -67 6q-6 6 -7 12q44 6 60 29zM1479 -68q16 -4 47 -12q0 -8 6 -8v-12h-6v-6q-10 2 -33 6zM242 -74q29 -4 49 -6l80 6 v-6h-6v-8h-64q-39 2 -59 14z" />
<glyph unicode="d" horiz-adv-x="1736" d="M1571 1632q35 -2 35 -14q-23 10 -35 14zM668 1626h69v-8q-51 0 -69 8zM752 1626q113 -2 213 -8v-6q-37 0 -112 -3t-110 -3v6q-6 0 -6 6q5 2 15 8zM406 1618h194v-12q-16 0 -68 -2q-45 -2 -67 0q-36 2 -59 14zM1081 1618q18 -4 29 -6v-6q-15 6 -29 12zM1468 1597 q47 -10 48 -20q8 -6 8 -14q-42 16 -56 34zM1550 1597q20 -10 21 -20zM1122 1591q16 -4 29 -6v-8q-15 6 -29 14zM1364 1591q76 -31 76 -55q-14 0 -15 6q-41 24 -61 49zM-49 1577q20 -16 20 -55h-26q4 32 6 55zM1524 1563q6 -8 6 -7zM1282 1550zM1282 1536q14 0 17.5 -3 t3.5 -11zM1440 1536q31 -10 73 -39q51 -33 52 -57q-14 0 -15 6q-40 27 -110 90zM1323 1522q49 -33 49 -41h6v-6h-6v-9q-14 0 -14 9l-27 20q-18 12 -28 12q12 11 20 15zM-55 1507q14 -6 14 0h12v-26q-8 -6 -12 -6v-9h-8zM1378 1475h6q25 -12 50.5 -24.5t25.5 -39.5h-6 q-20 12 -41 25q-39 23 -39 28q0 2 4 2v9zM1503 1219q6 -8 6 -7q-2 3 -6 7zM1530 1075q-2 29 -17 80q-18 31 -63 62q-59 43 -70 53q-57 47 -168 143q-53 51 -106 105q-66 63 -123 75q-37 8 -90 9q-37 2 -100 0q-72 -4 -97 -5h-573q-12 -2 -41 -6v-6q-6 0 -6 -35v-1532l938 2 q96 0 114.5 4.5t40.5 30.5q16 20 35 41q98 98 240 264q33 37 80 117q8 27 6 74q-2 74 -2 76q4 111 8 223q4 131 -6 225zM1104 641q-94 -111 -184 -221q2 2 4 2q-57 -4 -64 -2v-8q-10 0 -26.5 -8.5t-28.5 -8.5q-23 4 -68 8h-114q-70 2 -107 23q-4 0 0 70q4 63 -2 166 q-4 82 -8 163q2 47 4 140q-2 51 -8 157q-8 2 -27 6v9q18 0 23 28q-2 -14 -2 47q16 -14 28 -69q8 0 75 4t106 4q76 0 88 -14q47 0 57 -7q47 -51 141 -145q25 -14 70 -47q45 -57 45 -78q0 -10 -6 -18q8 -25 16 -64l-10 -43q-8 -100 -6 -100q2 2 4 6zM627 1108h26q-14 -4 -26 0 zM784 1096h15q-6 -14 -15 -15v15zM807 997h47v-6q-29 0 -47 6zM-8 985zM537 971q10 -29 0 -29v29zM944 942h14q-12 -2 -14 0zM-41 889zM-20 889q23 -35 6 -35v-8h-6v43zM1040 805q6 -2 9 -10q0 -10 -9 -11v21zM-20 791q4 -27 6 -41h-6v41zM717 778q14 -18 14 -28 q-10 2 -29 8q0 -8 -6 -8v14q13 8 21 14zM-29 709q8 -2 9 -13q0 -8 -9 -8v21zM1075 709v-7v7zM55 668zM551 668q10 -29 0 -29v29zM696 647h6q0 -8 7 -8q-6 -6 -13 -6v14zM-29 639q8 -6 9 -12q-14 6 -9 6v6zM565 530l6 -49h-6v49zM799 508h20v-12h-12q-8 -8 -14 -9v9h6v12z M571 461q35 -4 56 -8v-7q-21 1 -56 15zM1495 406h14q-6 -14 -14 -15v15zM-35 330h6q0 -6 9 -6q-8 -8 -15 -9v15zM1591 309q8 -41 -12 -41v13q4 10 12 28zM-29 199q8 -6 9 -15q-14 8 -9 9v6zM-49 184h14q-12 -2 -14 0zM12 158q8 -23 11 -72q4 -59 -11 -59v-9q-6 0 -6 9h-6 q4 37 12 131zM-49 33q29 -4 29 -15q-13 7 -29 15zM82 6h117v-8h-13q-67 -19 -104 8zM219 -84q59 -2 174 -6h82v-8q-66 0 -198 -7.5t-201 -7.5v9h6v6zM668 -98h159v-6h7v-9h-15q-63 2 -192 2q-10 2 -11 2q1 -1 52 11zM930 -98h14v-6h6v-9q-41 0 -41 9zM971 -98zM516 -104h49 v-9zM848 -104h55v-9zM1130 -119z" />
<glyph unicode="e" horiz-adv-x="1642" d="M1432 1638h26v-6q-8 2 -26 6zM1116 1632h60q-31 -20 -60 0zM27 1599q4 -31 6 -53h-6q-6 6 -15 6q-8 27 0 27q7 6 15 20zM1247 1599h178v-8q-63 -4 -178 8zM12 1526q14 -14 15 -53h-7v8h-8v45zM20 1466q-8 -25 -8 -12q4 4 8 12zM12 1421q12 -27 0 -26v26zM20 1354z M567 1184q29 -8 74 -8v-13q-14 2 -47 7.5t-27 5.5v8zM950 1130q20 0 21 -6h6v-8q-47 0 -47 8q8 2 20 6zM6 1116zM573 1077zM1188 991h26v-6q-8 2 -26 6zM1307 905zM1532 780l6 -53h-6v53zM6 721q6 -18 6 -146h-12zM1176 635zM1300 641zM1366 641q6 -6 6 -12h14v-15 q-12 9 -20 27zM1122 629zM1464 629zM641 602h72v-6h-6v-6q-39 2 -66 12zM1024 543h39v-6q-14 2 -39 6zM1286 522zM1346 516zM1372 510h41v-6q-14 2 -41 6zM1440 510h39v-6q-14 2 -39 6zM1464 213v117q4 31 15 94q-47 0 -80 6q0 -8 -35 -6q-39 2 -43 0q-14 0 -57 4t-68 2 q-35 0 -53 -12q-49 0 -144.5 7t-146.5 7q8 0 -57 6q-37 2 -58 -8q-12 -6 -10 -12h-8q0 18 -68 20q-82 2 -90 6h-6q0 -8 -6 -8v-6q-2 0 -32 12.5t-32 28.5v45l-10 41q4 14 8 33l4 59h9v6l39 -10l112 -4q23 -4 66 -12q96 0 291 -2q18 -2 66 -7.5t73 -5.5q47 0 78 15q8 0 10 14 q6 33 4 152q-2 129 -12 137q-16 12 -45 13t-56 3q-33 2 -383 10q-2 0 -172 11q-14 -2 -45 -17v6q-10 0 -10 13q0 10 5 29.5t5 23.5l-16 47q-2 29 -4 86q0 33 116 33q-2 0 201 -12q-16 0 238 4q16 0 123.5 -7.5t162.5 -7.5q74 0 87 13q23 20 22 178q0 143 -12 182q0 6 -60 27 q-31 10 -88 12q-45 0 -90 2q-190 10 -463 16q-29 2 -57 7q-37 4 -55 -5h-78q-147 2 -139 3q-2 0 -158 -7q-147 10 -166 11q-8 -12 -16 -45q4 -63 10 -199q-2 -20 -7 -90t-5 -107q0 -59 12 -88q-14 0 0 -119q0 -8 -6 -22t-6 -25q-6 -80 -15 -243q0 -6 -6 -580h45v-8 q-6 -2 -20 -6q49 0 143 3t141 3v8h-12v6q-23 -6 -186 -6v6q68 0 197.5 3t199.5 3v-6h-27q0 -6 27 -6q20 0 57 4t56 4q14 -2 45 -8h92v-8q-8 -2 -28.5 -4t-53.5 -8.5t-47 -8.5q-43 0 -254 2q-27 2 -53 5q-35 2 -52 -5q-104 0 -118 -14h-127q0 -6 -6 -6v-6h6q0 -6 8 -6l145 6 q0 8 -14 12v8q59 0 177 -4t179 -4q145 0 193 14q0 -8 26 -4l39 2q186 -12 627 -12v8q6 0 6 33q6 127 6 125zM442 471v6h-6v6h13q-1 -6 -7 -12zM1380 477l72 -6q6 2 21 6v-6h6v-14q-106 4 -107 14h8v6zM1024 457zM805 55zM692 41h226v-6q-23 0 -78 -4q-49 -2 -76 0 q-41 0 -72 10zM1280 35h92v-6q-74 -8 -92 6zM1016 29l192 -9v-6q-63 2 -192 2q-23 7 0 13zM172 -45zM1372 -51q29 -6 80 -6v-15q-152 -8 -207 4q-16 4 -16 5q4 2 12 4q45 -2 131 8zM487 -98h54v-6q-17 2 -54 6z" />
<glyph unicode="f" horiz-adv-x="1859" d="M1274 1776q55 -8 280 -9v-6q-59 0 -176 -2q-199 -6 -217 -2q-10 0 -10 10q20 6 62.5 4.5t60.5 4.5zM1673 1761q29 0 29 -8h-6v-6q-17 8 -23 14zM225 1747h236v-8q-111 -10 -139 -10q-70 0 -97 18zM1466 1710q43 -2 43 -16q-29 10 -43 16zM1563 1710zM330 1665h73v-8z M1509 1665q45 0 45 -8h9q6 -229 6 -406q0 -37 -6 -37v-8q-238 -6 -621 -6q-20 0 -122.5 7t-157.5 7q-106 0 -134 -22q-2 0 -4 -37q-2 -12 -8 -37l19 -88h266q66 0 205 3t208 3q82 0 82 -6h9v-162l8 -82l-17 -81q-94 -2 -405 -9q-51 0 -170 -6q-109 -8 -170 -8q6 -14 14 -14 q6 -14 15 -15q-12 -23 -15 -141q-2 -109 -16 -120t-125 -11v-8q133 0 133 -8h8v-21h-14h-90v-16q96 0 96 -6h8v-23h-119v-14h119v-17h-207v-14h66q23 10 70 6q76 -6 71 -6v-14q-6 -10 -6 -45t7 -108t7 -83q-20 0 -180 -8q-113 -6 -182 2q-47 -2 -127 14l-6 6q-12 18 -17 70 q-4 37 -2 98l4 82v658q0 27 11 407q4 201 2 228q-10 76 2 75v6h1145q170 0 149 0q88 3 137 23zM33 1628q14 -16 14 -125h-6zM1776 1606q8 -8 10 -21q2 -16 -10 -16v37zM1784 1554q8 -20 8 -141h-8v141zM33 1495q6 -25 8 -37h-8v37zM1591 1296q8 -20 8 -82h-8v82zM602 1200z M625 1200h14q-6 -14 -14 -14v14zM647 1200h80v-14q-29 0 -80 14zM741 1200h45v-8h-45v8zM948 1141h60v-8q-19 4 -60 8zM1053 1133h59v-7q-20 3 -59 7zM1636 1022zM1348 772zM1532 741zM1260 682h45v-29h-17q-12 -2 -37 -8v17q7 14 9 20zM1053 662q14 -8 14 0h14 q-39 -35 -57 -13q9 5 29 13zM668 639h30v-8q-10 2 -30 8zM905 608h15q-6 -14 -15 -14v14zM594 565q16 -16 16 -45h-8q-2 14 -8 45zM1599 432h15q-13 -4 -15 0zM-4 365q12 -31 14 -154q0 -16 -6 -16v-7h-8v177zM-33 225q6 -20 6 -88h-6v15h-8zM483 217q23 -4 68 -14 q-15 12 -68 14zM1540 195q23 0 23 -7q-9 3 -23 7zM4 188q4 -37 6 -59h-6v59zM1733 188q6 -20 6 -104h-6v104zM-33 121q6 -20 6 -80h-6v80zM10 121zM4 100q4 -31 14 -90h-8v8h-6v82zM1585 92q29 0 29 -8h-8v-6q-13 8 -21 14zM1665 78zM985 33h31v-8q-11 4 -31 8zM129 -33h156 v-30l-88 -7l-74 7v22q2 2 6 8zM573 -33zM1348 -49q23 0 22 -6q-8 2 -22 6zM1430 -49q-2 -6 -9 -21h-6v15zM1473 -49q16 -2 45 -6v-15q-51 2 -52 15h7v6zM1526 -49h28v-6q-10 2 -28 6zM1563 -49q14 -2 43 -6v-8q-31 6 -43 14zM358 -55h88v-8q-31 0 -88 8zM461 -55h59v-8 q-18 2 -59 8zM1436 -152q37 0 37 -8q-12 2 -37 8z" />
<glyph unicode="g" horiz-adv-x="1687" d="M-29 1726h125v-6q-18 0 -18 -6q66 -14 379 -14q68 0 202 -3t195 -3v-6h-6l-14 -9q-18 -6 -93 -6q-27 0 -123 2q-76 2 -122 2q-57 -4 -174 -12q-33 0 -91 4q-70 4 -94 4q-66 -2 -166 6v47zM993 1726h94v-6q-33 -2 -94 6zM-70 1720q6 -10 7 -47h-13q4 31 6 47zM868 1694 l119 -6v-9h-20q-53 -12 -84 -6q-6 2 -15 8q-10 6 0 7v6zM1087 1688q43 0 127 -4.5t125 -4.5l-6 -18q12 6 13 12q88 -14 88 -20h6v-6q-61 0 -187 2q-72 4 -219 12q-41 2 -41 0h-12v12h47zM1473 1653zM528 1640h41v-6q-14 2 -41 6zM10 1634l62 -10l118 4l86 -8v-6 q-94 -6 -278 0q-8 0 -8 6h26q-2 4 -6 14zM-76 1626h13q-6 -12 -13 -12v12zM688 1626q33 0 33 -6q-10 2 -33 6zM283 1620h41v-6q-14 2 -41 6zM1460 1620q33 -2 33 -12h6v-15h-47q0 6 8 6v21zM940 1593q18 -6 33 -4q-6 -6 -33 4zM1028 1593q72 -23 76 4q-4 -4 -76 -4z M1180 1593q18 -6 32 -4q-5 -6 -32 4zM1247 1587zM1499 1348zM1493 1282q6 -6 6 -14q-12 6 -6 6v8zM1493 1247q8 -33 -6 -33v7q2 10 6 26zM1073 1194v-6h-12zM449 1176h8q6 -8 6 -15q-8 -6 -14 -6v21zM1067 1122q6 -18 6 -86h-6v6h-6q2 27 6 80zM1460 1096zM436 1096 q6 -8 6 -54h-6v54zM1466 1090q10 -14 21 -15q-9 5 -21 15zM668 1036h47v-8h-13q-11 2 -34 8zM676 1001q18 -4 18 -12h8v-6h-14v-8q-6 0 -6 8q-16 12 -6 12v6zM1008 915q33 -4 53 -6v-6q-10 0 -37 3t-16 3v6zM1446 915zM-29 836zM1493 1167q-8 25 -18 82q-2 43 16 172 q4 29 8 166q-158 0 -110 -2q-82 2 -89 23h-14v-21q-6 0 -15 6t-14 9l-90 12l-100 -6l-3 -1t-69 1q-61 4 -80 6v-21v-6q-18 -2 -53 -6q-6 0 -84 8q-59 6 -76 -2q-43 0 -70.5 12.5t-56.5 26.5q-12 -31 -40 -37h-105q-131 0 -266 -4q-109 -4 -133 2v-6q-31 0 -35 -154 q0 -100 2 -198q0 -43 -2 -127q-2 -14 -7 -54t-5 -65q0 -41 8 -174q6 -109 4 -178q-10 -346 0 -459q0 -6 4 -119q4 -25 33 -37q16 -8 92 -6l104 2q225 -12 559 -8q590 8 558 8q76 0 94 6.5t26.5 30t3.5 66.5q-4 63 -4 69q2 25 9 82q8 51 6 78q0 10 -8 68v198q2 281 4 133 q-2 88 -23 123q-12 16 -53 19q-37 2 -62 -8h-458q-10 0 -219 -9l-74 21q0 -6 20 -6q0 -8 -16 -13l-23 -8h-6q0 -33 -6 -87t-6 -73q0 -53 32.5 -75.5t125.5 -16.5q20 0 55 -4t49 -4q51 0 49 2q-4 -2 -10 -4q2 -4 72 -2q72 2 84 12q33 0 47 -41h6q0 4 20 27q12 4 33 8 q0 -37 -20 -180l-7 -6q-20 -4 -61 -8q-27 2 -125 -9q-39 6 -106 -4q-10 0 -56 6q-33 6 -51 0q-195 0 -231 21v-6q-10 0 -21 -33q-12 0 -14 66q-4 260 0 479q-4 47 0 139h-6q0 10 -6 -6q-8 0 -9 6q4 16 13 47q-4 33 8 86q0 4 24 0q35 -6 37 -6q72 -4 222 2q141 6 217 0 q35 -2 104 -8q25 -8 88 -23q-4 -10 -14 -39l-13 -118h-14v18h-6q-2 -12 -6 -45h6q0 -8 8 0q10 12 12 12v-20q-6 0 -6 -2q0 -4 15 -12q8 -4 65 -5h238l61 -14l6 80q2 6 7 20v7h6v-7q4 0 0 -53h14q0 109 -14 133q20 0 14 45zM197 764q0 6 6 12h8q0 -6 -14 -12zM-23 756z M449 729q2 -10 8 -33h-8v33zM-29 723q4 -20 6 -33h-6v33zM967 623q-23 -4 -39 -7v-6h53zM469 616h6q14 -8 14 -12q-37 6 -20 6v6zM555 610q33 -4 33 -14q-19 8 -33 14zM881 604zM449 590q12 -16 10 -37q0 -23 -23 -23q0 20 6 21q3 12 7 39zM915 530h33v-6q-13 0 -33 6z M836 516h59v-6zM901 516h14q-8 -12 -14 -12v12zM1055 516q18 -10 18 -27h-12q0 14 -6 15v12zM457 504zM1087 489zM-70 451q14 -14 15 -27h-15v27zM641 451h41v-7q-14 3 -41 7zM-76 397h13q6 -16 8 -26h-15v-13h-6v39zM-70 350zM-55 119q6 -18 6 -94h-6v14q-4 14 0 80zM10 -8 h27v-6zM111 -14z" />
<glyph unicode="h" horiz-adv-x="1730" d="M1538 1759h47v-6q-16 2 -47 6zM82 1747h41v-14q-23 -4 -60 4q1 0 19 10zM150 1747q115 0 346 -2q33 0 32 -4h15v-8q-43 0 -127 -5.5t-125 -5.5q-76 0 -135 13q-23 6 -6 6v6zM1192 1747h55v-14q-39 0 -80 6q9 2 25 8zM1280 1747q8 -6 8 -14q-14 8 -8 8v6zM1348 1692 q8 -6 8 -13q-14 6 -8 7v6zM1382 1686zM793 1638h20q-6 -8 -20 0zM1151 1632q59 -14 137 -14h127q10 2 29 6q45 6 63.5 -14.5t28.5 -167.5q8 -115 6 -191q2 -84 2 -256q-2 -106 -18 -309q-16 -211 -19 -307q0 2 4 -320h7q6 2 20 9q-4 -16 -18 -39q-8 -4 -76 -9 q-106 0 -320 -4q-47 -4 -47 2q-31 18 -30 148q0 49 5 135t5 105q0 4 -13 182q0 16 9.5 39.5t9.5 36.5q8 6 8 12q-14 -4 -41 -12q0 119 27 354q27 225 24 350q4 49 -6 141q-12 35 -33 35v53q48 12 109 35zM1233 1632zM705 1612h14q-12 -4 -14 0zM731 1612h21q-9 -4 -21 0z M549 1591q12 -27 0 -26v26zM731 1583q20 -8 21 -18h-7v-9h-14v27zM637 1544q8 -10 10 -26q2 -12 0 -33q-4 -23 -4 -29h-6q-2 76 0 88zM731 1544q8 -4 8 -12t-8 -8v20zM731 1509q8 -2 8 -10q0 -10 -8 -10v20zM1042 1483q8 -18 9 -123h-9v123zM1016 975l-12 -135q-8 0 -9 12 q2 25 9 164l-314 -2q-74 0 -88 -6q-18 0 -55 4t-51 4h-21q0 -10 -2 10v31v198q-2 127 -2 201q0 2 8 72q4 43 -4 69q0 6 -35 11q-55 6 -188 6q-121 0 -184 10v-6h-27v-6h-6q0 8 -7.5 -6.5t-9.5 -22.5v-127q0 -51 -4 -352q-2 -51 -8 -383q-6 -236 -6 -389v-191q0 -82 6 -101.5 t29 -23.5q37 -8 92 -8q37 0 105.5 2t93.5 2q94 0 110 8q8 2 25 48q0 4 -15 12q10 0 9 12q-2 10 -9 14q0 35 6.5 104t6.5 103q0 39 -4 72q4 0 -9 21q10 0 18.5 64.5t6.5 84.5q-2 18 -16 68q-2 23 -9 61q-14 0 70 -6q51 -2 59 6q12 0 26.5 6t23.5 6q12 0 26 -6h21q0 2 20 -2 q49 -12 162 -10q106 2 162 -14q0 59 6 151q6 129 8 152v8h-14zM1042 1354q14 -16 15 -27h-6v-8h-9v35zM637 1300q14 -10 14 -20h-8v12q-4 4 -6 8zM1042 1300q8 -4 9 -28q-3 10 -9 28zM555 1286q14 -16 14 -26h-6v6q-2 6 -8 20zM563 1245zM1042 1245q14 -20 0 -20v20z M866 1219q6 -10 4 -23l-4 -25h-6v7h-6q4 14 12 41zM1042 1219l9 -41h-9v41zM1004 1178h6q0 -4 6 -7v7h8q0 -41 -8 -41v14h-6zM569 1163q6 -8 6 -53h-6v53zM1016 1130q8 -18 8 -88h-8v88zM528 1069q0 -8 -7 -17.5t-7 -15.5h-12v6q-6 6 -6 13zM1071 1049v-13q12 6 12 13h-12z M1016 1036l8 -49h-8v49zM475 1001q14 -14 33 -14v14h-33zM514 1001q10 -14 21 -14q-7 6 -21 14zM995 825q0 -47 9 -47zM408 731v-14q12 6 12 14h-12zM575 702v-12q14 6 15 12h-15zM745 702q-6 -2 -20 -6v-6q61 4 61 12h-41zM793 696q6 4 10 -4zM848 696q2 -2 8 -4 q-4 -2 -8 4zM414 629zM963 596h12q-20 -20 -21 -8q5 2 9 8zM569 561h95v-6q-34 -2 -95 6zM969 541q10 -8 13 -20.5t3 -31.5q-2 -27 -2 -30h-8zM563 526q8 -18 0 -18q0 6 -8 6q4 8 8 12zM881 508q14 -27 14 -102h-14q-4 94 0 102zM766 500q12 -16 12 -27h-18v21zM840 500 q10 -27 0 -27v27zM514 487q12 -29 0 -28v28zM569 487q14 -23 15 -41h-15v41zM799 487q20 0 20 -8q-8 -6 -12 -6q-2 2 -8 14zM616 473q20 -12 21 -27q-13 7 -21 27zM711 467h14q-10 -4 -14 0zM760 467h12q-6 -14 -12 -14v14zM840 432q8 -23 8 -162h-8v162zM1524 432 q4 -37 8 -61h-8v61zM623 406q14 -23 14 -136h-14q-2 118 0 136zM760 406q6 -8 6 -7q-4 5 -6 7zM975 379q4 -23 8 -41h-8v41zM766 371q6 -23 6 -135h-6q-4 121 0 135zM-53 317q10 -27 14 -69q2 -27 0 -78q-2 -55 -2 -76q2 -23 8 -67h-20v290zM887 317q10 -27 0 -26v26z M975 291q4 -33 8 -62h-8v62zM1524 283zM1524 215q4 -39 8 -68h-8v68zM969 174q6 -18 6 -94h-12zM840 80q14 -14 14 -47h-14v47zM1016 47zM1071 12q29 -6 94 -6v-8q-37 -2 -102 8h8v6zM1321 -29q41 0 41 -6h6v-6q-10 0 -32.5 3t-14.5 3v6z" />
<glyph unicode="i" horiz-adv-x="1828" d="M137 1681h250v-8q-23 0 -77 -5t-81 -5q-57 0 -92 18zM416 1681q35 0 35 -8h-9v-6h-6q-6 4 -20 14zM256 1638q158 -20 563 -12q123 0 328 -4q236 -4 326 -4q10 2 28 8l-2 -237l-10 -70q4 -14 6 -43q-2 -18 -2 -109q-2 0 -12.5 -2t-12.5 -2q-25 8 -69 4q-66 -8 -72 -8 q-49 0 -168 10q-109 6 -160 7l35 -29q-10 0 -24.5 -11.5t-24.5 -11.5v-14h8v-6h35v-8q-90 -12 -78 -13v-22h8v-6q10 2 35 6v-6h6q-6 -61 -12 -181q0 10 6 -153q-2 -33 -6 -98q0 -35 12 -35v8q-8 35 9 35v-56q-2 -6 -9.5 -23t-3.5 -44l4 -45h21v20h14q23 -12 111 -12h307 q14 6 29 -12q8 -12 8 -211t-7 -230.5t-114 -35.5q43 2 -145 2v6h6v8h78v12q-80 0 -224 -6q-150 -6 -215 -6h-92q-59 2 -90 2q-309 -4 -362 2l-82 -4q-59 -2 -174 -6q-20 -2 -21 6q-10 20 -8 51q6 49 6 53q-2 41 -6 125q-2 172 10 197q10 18 197 20q117 0 231 -2q18 4 49 11 q8 27 4 151q2 94 5 283q0 18 -3 94q-2 53 -2 96q0 31 5 90q-274 -16 -433 -8q-51 4 -52 4t-11 2t-12 2q0 16 6 41t6 41h-6v-104h-6q0 37 16 223v188q0 -8 -2 25q-2 16 6 16q4 20 14 21v-6q57 14 117 14zM1522 1626q4 -23 14 -63h-8v6h-6v57zM-2 1618q14 -16 14 -49h-8 q-2 16 -6 49zM1606 1612q10 -29 12 -68q0 -27 -2 -71q-4 -51 -4 -70h-6v209zM1640 1612q27 -39 27 -160h-20q-7 56 -7 160zM68 1583q0 -27 6 -27zM1522 1563q2 -16 6 -50h-6v50zM1522 1507q14 -25 14 -118h-8zM1481 1423q0 -63 12 -63q-8 38 -12 63zM1536 1374zM1640 1374h7 q0 -6 6 -6q-6 -8 -13 -8v14zM1640 1354q14 -20 0 -21v21zM1612 1305zM1653 1264zM1653 1243zM1034 1096q35 0 35 -6q-12 2 -35 6zM1167 1096h41v-6q-14 2 -41 6zM465 1083zM1487 1083q4 -29 6 -43h-6v43zM33 1040q4 -18 6 -34h-6v34zM129 944h64v-8zM39 909q16 -23 0 -22v22 zM1577 901q4 -29 6 -49h-6v49zM1667 866zM96 805q14 -23 0 -23v23zM1653 776h8v-41h-8v41zM395 762zM53 692zM993 692q10 -27 0 -26v26zM465 666q10 -29 0 -29v29zM430 610q6 -10 6 -8q-2 4 -6 8zM233 553zM1473 553h14q-6 -12 -14 -12v12zM47 547l76 -6v-9q-64 -1 -76 15z M123 547h98v-6q-35 -2 -98 6zM485 541q14 -14 15 -29h-8q-3 11 -7 29zM1397 526h90v-14q-16 0 -56 3t-34 3v8zM1090 512l77 -6v-8q-28 0 -77 14zM68 498q31 -4 55 -6v-9q-76 0 -76 9zM1020 498h29v-6q-11 2 -29 6zM68 477zM485 477h15q-10 -6 -15 -6v6zM221 471h70v-14 q-55 -2 -121 4zM1661 442q4 -23 6 -41h-6v41zM1516 332q20 -39 20 -287h-8zM1577 309zM1571 262q4 -25 6 -43h-6v43zM1653 248q14 -20 16 -72q4 -35 2 -96q-4 -80 -4 -82h-14v250zM4 10zM1008 -25h96v-6q-35 0 -96 6zM1118 -25h49v-6q-16 2 -49 6zM526 -31h29v-6 q-11 2 -29 6zM1647 -72h20v-14q-49 0 -49 6q11 2 29 8zM53 -80h8v-6h7q-35 -14 -64 -14v6h8q14 6 41 14zM102 -80h50v-6zM207 -80q96 -10 96 -20h-6l-98 6q0 8 8 8v6zM1362 -80h131v-14h-6v-6q-10 2 -98 0q-78 0 -230 -6q-291 -12 -475 2h-14q10 4 51 4q18 6 78 6 q25 12 78 10q41 -2 81 -4q55 0 244 2q56 -2 160 6zM1516 -80q33 -2 32 -14q-22 4 -32 14zM367 -86q33 0 96 -4t92 -4v-6q-16 0 -66 -2q-43 -2 -67 0q-35 4 -55 16zM1481 -141q68 -2 67 -9h8v-20h-647h-374q-37 2 -109 6q-6 -2 -20 6q2 4 106 2q125 -2 332 2q240 4 323 4 q20 0 103 -2q72 -2 112 -2q62 3 99 13zM1653 -141zM1487 -164zM1626 -156h41v-8q-14 4 -41 8z" />
<glyph unicode="j" horiz-adv-x="1712" d="M1339 1729q8 -2 27 -7v-8q-15 9 -27 15zM633 1675q14 -14 14 -28h-26v14q6 0 7 4t5 10zM442 1667q14 -20 0 -20v20zM999 1634zM1006 1634q14 0 14 -8q6 0 6 -6q-12 8 -20 14zM457 1599zM633 1599q10 -20 0 -20q0 6 -6 6q2 6 6 14zM911 1599q6 -18 7 -141h-7v141z M850 1593zM850 1579q14 -18 14 -27h-14v27zM621 1567h20q0 -14 -8 -15v-6zM621 1505q12 -18 12 -35h-21v15q3 6 9 20zM911 1444l7 -68h-7v68zM844 1409zM463 1376q23 -20 8 -20q0 6 -8 6v14zM1571 1300zM918 1280zM829 1260zM973 1239zM125 1118zM668 1098q-10 12 0 12v-12z M668 1092zM864 1022zM592 1001zM932 1001q14 -39 14 -188h6q0 33 6 33q-4 -53 -20 -53l14 -109h-20v317zM8 983h68v-8q-48 0 -68 8zM858 948h21l-21 -61h-8q4 30 8 61zM483 860h29v-6q-11 2 -29 6zM524 860h21q-11 -4 -21 0zM117 854h96v-8q-35 0 -96 8zM422 799q35 0 35 -6 q-10 2 -35 6zM471 799h27v-6zM539 778q12 -18 12 -102h-6v8h-6v94zM621 725zM1550 696q6 -18 6 -88h-6v88zM1501 33q0 55 -6 161.5t-6 163.5q-6 0 -6 -8q0 -238 0 -237q-8 0 -8 -7h-7q0 8 -6 66.5t-8 63.5q0 29 14 34q0 10 -14 13l12 41q10 90 2 135q-6 0 -6 8q12 0 13 25 q0 31 -13 69q4 2 5 3t3 1q0 59 3 178q0 -6 -11 490q0 80 -2 237q-4 47 -12 144h-6v6q-8 -2 -21 -6q-8 0 -69 16q-37 10 -95 10q16 -6 50 -24q-6 -6 -105 -4q-211 2 -222 -22.5t-11 -61.5q0 -23 4 -58q6 -47 8 -55q4 -63 4 -291q0 -106 -12 -129q0 -12 5 -35.5t5 -37.5 q2 -94 2 -279q-2 -35 -6 -102q8 -41 0 -123q0 -6 -6 0l-29 -23q-168 0 -188 -4v6q-8 0 -15 -18q2 0 -26 18q0 -2 -22.5 -6t-24.5 -6h-156q0 4 4 27q-8 18 -16 61q-2 66 -2 305h-68v-6q-51 0 -68 6v-6h-14v-8l-88 14h-6q0 -8 12 -14v-6q-16 0 -39.5 8t-33.5 10q-59 0 -170 17 v6h-7q-10 -23 -10 -62q0 -29 7 -87t7 -75q2 -131 0 -155q-2 -23 -6 -64q0 -20 4.5 -73.5t1.5 -81.5q-2 -43 -6 -86q-4 -57 9.5 -86t324.5 -25q823 14 787 14h190q102 0 119.5 8.5t17.5 73.5h21v-67h18zM756 236q-8 0 -21 67q17 -16 21 -67zM768 127h-18v53q31 -10 30 -18 q0 8 -12 -35zM1040 670v-21h-6zM1034 596v47q23 -29 0 -47zM1278 1403v14h14q0 -8 -14 -14zM1040 575v-8h7v-6q8 6 8 14h-15zM1550 561q4 -20 6 -35h-6v35zM891 535q27 -14 27 -35h-7v-6h-20v6h-6v8q4 15 6 27zM539 467q12 -14 12 -21q-6 11 -12 21zM741 453q20 -6 21 -15 q-7 7 -21 15zM-18 438q6 -18 6 -73h-6v73zM559 426q74 -4 74 -14h8v-6q-76 4 -76 12q-2 2 -6 8zM-18 358q14 -35 16 -94q2 -43 0 -114q-2 -90 -2 -105h-8v14q-4 12 -6 88q0 29 -5 177q-4 20 5 20v14zM606 4h74v-6h8v-6q-150 0 -153 4q24 2 71 8zM709 4h20v-12q-39 6 -20 6v6 zM782 4h144v-6q-101 -10 -144 6zM1319 4h27v-6zM1354 4h108v-12q-75 2 -108 12zM84 -8zM741 -63h138v-13q-55 -4 -144 6h6v7zM16 -76l47 -14v-6l-55 -8v20zM389 -76q14 -4 27 -8v-6q-13 6 -27 14zM422 -76h8q6 -8 6 -14q-6 0 -6 -6h-8v-8h-6v14q2 4 6 14zM1163 -76h135v-8 h-14q-39 -12 -121 0v8zM1305 -76q20 0 20 -8q-8 -6 -12 -6q-2 4 -8 14zM1333 -76h53v-14q-18 2 -53 6v8zM287 -90h47v-14q-6 0 -6 -7q-70 0 -74 7h27q2 4 6 14zM362 -96l41 -8v-7q-29 5 -41 15zM70 -104h129v-7q-45 -1 -129 7z" />
<glyph unicode="k" horiz-adv-x="1644" d="M344 1731q39 0 109.5 -6.5t107.5 -6.5v-14q-57 2 -113.5 5.5t-103.5 21.5zM1331 1731h27v-7q-11 3 -27 7zM1370 1731q27 -4 27 -13q-15 7 -27 13zM1292 1692h6q0 -8 7 -9q-6 -6 -13 -6v15zM1343 1683h48v-6q-17 2 -48 6zM1391 1677q33 0 32 -6q-12 2 -32 6zM1436 1677 q27 -4 26 -14h-6v8h-6q-4 2 -14 6zM1423 1657q39 -8 39 -27q6 0 6 -6q-29 6 -45 33zM252 1651h65v-6h-65v6zM995 1651h27v-6zM1055 1651h26v-6q-8 2 -26 6zM745 1645q20 0 21 -9q-8 -6 -14 -6q-1 3 -7 15zM49 1616q6 -18 6 -168h-6v168zM975 1610h26v-6q-12 -12 -61 -80 t-49 -76h-6q0 12 6 12q31 50 84 150zM29 1583q10 -27 0 -27v27zM995 1583q6 -6 6 -14q-12 8 -6 8v6zM760 1528zM956 1516zM877 1448q8 -6 8 -14q-14 8 -8 8v6zM575 1434q10 -27 0 -27v27zM1450 1434q20 -20 6 -21v-6h-6v27zM864 1407q-8 14 0 14v-14zM844 1407h14 q-20 -27 -20 -33h-7q0 18 4.5 21.5t8.5 11.5zM55 1286q4 -23 6 -35h-6v35zM1489 1266q14 -20 0 -21v21zM567 1231q12 -27 0 -27v27zM713 1231q6 -2 8 -10q0 -10 -8 -11v21zM707 1210h6q-6 -12 -41 -63t-37 -51v-6h-8v26q12 8 23.5 30.5t20.5 31.5t36 32zM1036 967 q57 66 133 174q121 176 127 182q27 25 76 82q4 4 58 92q6 14 16 43q18 23 49 76q-61 0 -78 -12q-41 0 -129 5t-133 5q-90 0 -154 -19q0 -6 15 -6q0 -14 -45 -78q-16 -25 -51 -75q-35 -39 -103 -123q-6 0 -6 4q0 12 20 22q0 6 -6 7v20h-8v-6q-4 0 -42 -51.5t-42 -63.5 q-6 0 -6 -14q6 0 20.5 13t18.5 13v-6h6v-6q-8 0 -14 -12q-57 -74 -137 -217h-27q2 12 8 39h-8v8q-8 0 -19 -27q-4 0 7 -41h-27q0 31 -4 76q-6 57 -8 72q-20 348 -15 452h7l14 -221h6v236h-6v6h-14v-12q-6 0 -21.5 9t-24.5 9q-45 0 -131 2q0 6 13 12h-6q0 8 -33 9l20 -21 q-236 0 -252 -21.5t-16 -62.5q0 -20 5 -59t5 -54q0 -135 -2 -188q-8 -111 -8 -319q-2 -229 -6 -324q-10 -203 -10 -385v-123q4 -18 22 -49q14 -12 51 -12q55 0 72 22h6q0 -8 17.5 -14t115.5 -6h209q-2 221 -2 215l4 196q0 145 -20 176v7h6v8q18 0 33.5 -19.5t29.5 -38.5 l41 -28l64 -129l18 -25l15 -49q33 -57 67 -113q35 -70 41 -127h-8q0 6 -27.5 56.5t-29.5 58.5q-10 0 -7 -12q20 -76 78 -156v-8h6q-2 25 -6 55h13q0 -43 61 -61q16 -6 156 -6h342q0 47 -37 121q-33 55 -64 112q-84 168 -252 445q-6 20 -18 57l-43 82v6h-6q0 -6 -15 -12v-15 h-6v9q-4 0 -4 4t19 34q4 0 4 2t-19 19q-6 0 -4 14q2 9 45 60zM252 305v14h14q0 -6 -14 -14zM778 1272v-15h-6q0 16 21 41q6 0 12 9q-7 -12 -27 -35zM831 1190v8h-6v6h13q-1 -6 -7 -14zM23 1163q6 -16 6 -94q0 -43 -3 -123t-3 -121h-7q1 266 7 338zM608 1163h13 q-6 -12 -13 -12v12zM1337 1151q4 -29 -6 -29q2 11 6 29zM1192 1075q-8 14 0 15v-15zM1174 1069h12q-10 -2 -12 0zM1225 1001h14q-6 -14 -14 -14v14zM1233 975q12 -35 0 -35v-6h-8q4 14 8 41zM1305 975q6 -23 6 -115h-6v115zM1061 928q20 -10 20 -21q-8 -6 -14 -6v-8h-12 q4 23 6 35zM1114 881q10 -29 0 -29v29zM1311 852zM1376 825q4 -29 8 -53h-8v53zM1376 664q10 -27 0 -27v27zM608 496q12 -18 13 -35h-13v35zM594 420q8 -6 14 -6v-68h-6v14q-4 19 -8 60zM727 346zM594 340h14q-12 -4 -14 0zM727 326q12 -12 12 -21h-6q0 6 -6 6v15zM-37 305 q6 -23 6 -129h-6v129zM739 305q12 -14 13 -26h-13v26zM760 279zM766 264zM766 252q12 -18 12 -35h-6zM1430 176zM-37 164q14 -33 14 -115h-14v115zM1430 164q27 -39 26 -62h-6v7q-12 18 -20 55zM1462 96zM700 82h13q-6 -12 -13 -12v12zM174 23q78 -14 303 -5l78 -4v-12h-401 q-4 0 -41 2q2 10 22.5 13.5t38.5 5.5zM1225 14h67v-6zM1417 14h25v-6zM1350 -18q20 0 20 -9q-8 -6 -12 -6q-2 5 -8 15zM1384 -18h13q-6 -14 -13 -15v15zM1159 -27q8 -8 8 -6q-4 4 -8 6zM1219 -27h47v-6zM1260 -39q23 -14 38 -14v-6q-47 -6 -47 0h-6v6h15v14zM1325 -53z M1337 -53q33 0 33 -6q-10 2 -33 6zM1384 -53h78v-13q-29 1 -78 13z" />
<glyph unicode="l" horiz-adv-x="1361" d="M-53 1706q6 -12 12 -41q4 -35 -4 -35v-6h-14q4 47 6 82zM-12 1706q16 0 42.5 -7t39.5 -7v8h-7q12 4 31 -2q27 -6 31 -8l135 2q14 8 121 8q12 4 68 6q55 0 55 -6h6v-14h-6q-20 -8 -96 -9q-31 0 -111 2t-119 2q-182 0 -182 -43h-14q8 53 32 54v8q-8 2 -26 6zM545 1706h14 q-12 -2 -14 0zM580 1706q18 -12 18 -27q-47 4 -47 13q11 4 29 14zM627 1706q20 -14 20 -41q0 -6 -8 -6v-8h-12v8q6 14 0 47zM680 1692zM463 1624h41v-6h-6q-20 -20 -31 -21q-4 2 -4 7h6q0 8 -6 8v12zM199 1597q25 -8 30 -6q12 10 13 11q-14 -3 -43 -5zM-4 1583q2 -16 6 -33 h-6v33zM469 1583q23 -20 8 -20v-7h-8v27zM-59 1571h14q-12 -4 -14 0zM530 1571q14 -18 15 -29v-20q0 -12 -6 -13v-6h-9v68zM762 1556zM-4 1542q2 -37 6 -67h-6v67zM-4 1468q10 -27 0 -26v26zM2 1421zM-4 1401v-27h-8q2 9 8 27zM-12 1360q14 -20 0 -21v21zM510 1204 q6 -14 6 -53q-2 -43 -12 -43v8h-6v6q8 25 12 82zM707 973q14 -14 14 -41h-6v14zM551 946q14 -12 14 -20h-6v-6h-8v6l-6 6h6v14zM633 940zM-12 911zM551 911zM483 864q6 -18 6 -155h-6v155zM1102 864h6q0 -6 6 -6q-6 -8 -12 -8v14zM545 850q12 -25 26 -53q-45 20 -41 20v6 q7 11 15 27zM586 811h6q0 -8 6 -8q-6 -6 -12 -6v14zM-18 803q2 -10 6 -33h-6v33zM-18 762l6 -39h-6v39zM565 702q18 -4 33 -8v-6q-10 2 -33 6v8zM530 553q41 -6 62 -8v-6q-23 0 -62 14zM877 545zM-18 485q6 -14 6 -108h-6v108zM-12 362zM-12 336zM1251 416h-8q0 8 14 28h7v7 h-7q0 6 -88 6q-76 0 -268 4q-168 4 -262 2h-100q-25 -4 -50 -6q-27 -2 -47 8q-10 0 -10 22q0 10 14 86q8 43 7 109q-2 90 -2 109q16 348 4 651q0 2 -13 149h-149v6h149v27h-135v-6q-104 0 -143 -27q0 -2 -64.5 -8t-69.5 -9t-5 -65v-57q2 -37 2 -57q-6 -147 -13 -443 q-4 -260 0 -610q-4 -100 2 -291q4 -33 23.5 -47t423.5 -8q156 4 467 10q14 4 22 17h27q0 -6 -14 -13v-8q141 0 143 21l53 -5q10 0 47 9q29 6 49 4v6q6 0 7 26q2 164 0 211q-4 33 -13 103q6 -4 19 -8h8v20q-2 0 -27 27zM1196 152v14h14q0 -8 -14 -14zM-12 84l8 -68h-8v68z M1040 16zM178 -10h27v-8zM240 -10h26v-8q-8 2 -26 8zM29 -18q20 0 20 -7q-6 3 -20 7zM55 -18q35 0 35 -7q-12 3 -35 7zM-12 -25h8q6 -8 6 -14q-8 -6 -14 -6v20z" />
<glyph unicode="m" horiz-adv-x="2066" d="M424 1706h39v-6q-12 2 -39 6zM1833 1688zM717 1653h47v-6zM905 1653h80v-13q-29 1 -80 13zM1346 1599zM1212 1593h7q-2 -6 -9 -14q-6 -10 -6 0q2 4 8 14zM1171 1499h7q8 -6 8 -12q-8 -8 -15 -8v20zM938 1393zM1231 1386zM1204 1325q-8 14 0 14v-14zM1198 1319zM838 1286z M1112 1180q0 -6 -4 -15q-4 -10 -4 0q6 9 8 15zM958 1133h7q0 -6 6 -7q-6 -8 -13 -8v15zM-18 1071q18 -18 8 -18v-9h-8v27zM905 1038zM1044 1026zM-18 1018q8 -10 10 -39q2 -23 0 -59q-2 -43 -2 -48h-8v146zM938 944q20 -18 20 -39h-8q-6 23 -12 39zM1024 911zM971 831 q14 -14 14 -26h-8v6q-2 8 -6 20zM1378 705zM23 618l6 -67h-6v67zM1339 584v-39h-8q4 25 8 39zM1331 539zM29 518q8 -20 8 -147h-8v147zM637 324q2 0 6 -2q-4 2 -6 2zM1907 217q0 10 -15 47q-4 0 -2 21q4 197 13 299q6 61 6 137q0 72 -6 192q-6 137 -9 187q-2 70 -2 307 q0 -14 -6 102q-4 70 6 97v8h-6q0 6 -6 6q-55 2 -121 33q-4 -8 -12 -23q-27 -18 -221 -6q-90 4 -109 -6q-10 -6 -18 -57h-6q-2 12 -9 38h-12q0 -29 -22 -69q-16 -33 -35 -66q-35 -84 -109 -250q-27 -47 -76 -141q-29 -68 -88 -203q-10 -25 -21 -50t-30 -42q0 -6 -6 -6v6 q-8 0 -29 41q-94 188 -141 316q-10 31 -29 90q-35 72 -104 217q-18 45 -35 90q-25 61 -47 78q-12 10 -172 10q-160 2 -178 -6h-234q0 -8 -8 -8v-7q6 0 29 -12l-8 -35q6 -72 6 -200q0 -135 8 -416q6 -262 6 -418q0 -238 -2 -301q2 -39 -4 -113q4 0 6 -81h21q0 25 2 65 q4 51 4 70h6l8 -121l199 -21q72 -6 262 -6q0 72 4 262q2 166 2 267q-2 35 -6 114.5t-4 120.5q0 88 16 152h6v-8h15l-4 -60l30 -100q41 -147 174 -434v-7h-6l2 -2q33 -10 119 -6q63 4 125 8q55 -4 152 7q27 10 90 198q39 117 77 234q16 25 39 75q10 49 2 87h9v14h6l12 -60 q4 -47 10 -135q0 -98 4 -293q6 -45 13 -133q0 4 -2 -149q-2 -111 12 -133q8 -12 37 -17l254 -2h133q16 4 25.5 20.5t5.5 49.5q-4 25 -9 51q0 10 -2 107q8 0 9 -21h6zM344 250v-6q-8 0 -14 6q-6 0 -13 8q10 -4 33 -8h-6zM770 317h8q-8 4 -8 0zM37 190q4 -35 6 -59h-6v59z M737 137zM-51 90q4 -18 6 -33h-6v33zM1198 90q20 -20 6 -20v-7h-6v27zM1384 70q14 -14 15 -27h-6v-6h-9v33zM678 57h12q6 -20 0 -20v-14h-6q-2 11 -6 34zM598 49q10 -27 0 -26v26zM1139 37h26v-6zM1780 -4h47v-12q-10 0 -32.5 3t-14.5 3v6zM1886 -4h21v-12h-15zM-57 -70 q27 -4 26 -14q-16 8 -26 14z" />
<glyph unicode="n" horiz-adv-x="1685" d="M926 1729h28v-9q-10 3 -28 9zM975 1729q98 -2 293 -5q45 -4 135 -10v-8q-133 0 -279 8q-51 1 -149 15zM434 1706h21v-14h-15q0 2 -6 14zM475 1706q84 0 239.5 -7t239.5 -7v-15q-121 0 -356 11q-33 0 -63 2q-40 4 -60 16zM969 1692q8 -2 28 -6v-9q-16 9 -28 15zM1339 1671 q29 -4 29 -14h-8q-7 4 -21 14zM1509 1663q-14 -12 -14 -6h14v6zM1167 1649zM1204 1649zM113 1634q31 -6 129 -6q6 8 6 6q23 -12 82 -14q43 -4 114 -2q94 2 97 2q12 0 36.5 -3t34.5 -3v-6q-418 0 -274 -2q-217 1 -225 28zM612 1620h21v-12h-15zM1466 1620q43 0 43 -6h9v-6 q-12 0 -36 3t-16 3v6zM55 1593h500q57 0 57 -8h6q-2 -27 15 -67q14 -33 29 -66q25 -68 73 -199q20 -47 41 -94q20 -53 21 -100q23 0 22 -8h6q-10 -33 33 -156q35 -98 66 -156q4 -6 49 -63q31 -39 31 -74h8v-8h6v8h8q8 37 21 109q2 27 -3 77q-6 63 -6 84v478q-27 -6 -26 0h-8 q2 8 8 22h6q8 -8 8 -14q4 33 6 49h-6v-21h-14v21q20 8 20 14h-6q-37 68 -22 133q0 6 7 15.5t7 15.5h356q16 8 144 8q-10 -90 -23 -272q-2 -125 4 -315q10 -266 10 -312q0 -49 -6 -133q-8 -90 -8 -131v-342q0 -35 -6 -35v-8q-68 0 -178 -2q-137 -4 -172 -4q-43 0 -123 3 t-113 3v8h-6q2 43 -37 131q-31 70 -84 205q-16 59 -63 172q-14 27 -31 27q0 14 8 14v35h-14q2 -10 6 -29h-6v8q-18 27 -19 43q0 6 5 7v-7q8 -14 14 -14v6q4 14 -8.5 44t-12.5 42h-14q0 6 -8 6v-20q-35 45 -35 86h20v6h-6v8q-29 -14 -28 -14q-8 29 -15 57h6v-8q14 -12 15 -20 h8q-4 14 -23.5 38.5t-19.5 30.5q-2 14 -8 43h-6v-14q-12 -23 -15 -88v-96q-20 -434 -14 -621q0 -14 7 -44t7 -48l-501 16q-27 10 -27 56h8q14 8 14 14q-16 41 -22 178q0 14 8 14v-8h6q14 -16 15 -20h14l-31 57q-14 53 -14 125q0 55 12 163.5t12 160.5h7v-9q14 -6 14 -14h14 q-16 23 -37 72q2 35 7 100q2 92 10 275l-6 53q4 47 10 143q-4 47 -2 139q6 12 18 39zM627 1593h6q0 -8 8 -8q-8 -6 -14 -6v14zM641 1579q27 -23 27 -51h-6v8q-13 16 -21 43zM668 1528q14 -16 14 -29h-6v8q-2 7 -8 21zM989 1528zM696 1479zM983 1470q4 -25 6 -40h-6v40z M696 1464q14 -23 15 -34h-6q-3 9 -9 34zM725 1393q14 -12 14 -21q-4 7 -14 21zM983 1386q10 -29 0 -28v28zM748 1364zM983 1350q10 -29 0 -29v29zM1012 1292h14q-8 -14 -14 -14v14zM1018 1264q4 -25 8 -41h-8v41zM797 1229q14 -18 14 -35h-14v35zM989 1229zM1012 1214 q6 -8 6 -6zM983 1186q12 -18 16 -72q2 -39 0 -104q-2 -86 -2 -88h-8v8h-6v256zM811 1128q14 -12 14 -20q-4 6 -14 20zM825 1085q14 -16 15 -26h-6q-5 8 -9 26zM840 1059q20 -25 67 -150t47 -157h-14q-10 57 -47 153q-43 107 -53 154zM846 1001zM989 907q6 -41 8 -63h-8v63z M569 795q20 -29 21 -43h-15v6h-6v37zM612 795q14 -45 15 -37h6v8q-10 14 0 14zM641 723zM641 709q14 -23 14 -35h-8v6q-2 11 -6 29zM1047 674q0 -29 6 -29q-2 9 -6 29zM668 209q14 -20 14 -43h-20q4 25 6 43zM854 111q20 -35 20 -58h-6v6h-8q-2 17 -6 52zM782 96zM782 74 q14 -16 15 -29h-6v8zM1452 39h8q14 -8 15 -14q-51 0 -52 6q11 2 29 8zM1018 31h164v-6q-58 -4 -164 6zM1196 31h78v-6q-27 0 -78 6zM1282 31h107v-6q-37 -2 -107 6zM6 16q84 -2 256 -6q45 -2 135 -8v-6q-319 0 -215 -2q-172 2 -176 22zM420 -18h121v-9h-9v-6q-38 -1 -112 15 zM762 -18h6q0 -8 8 -9q-8 -6 -14 -6v15zM819 -18q20 -6 21 -15q-17 9 -21 15zM946 -27h51v-6q-18 2 -51 6zM840 -33h28v-8zM1452 -41h43v-6q-14 2 -43 6z" />
<glyph unicode="o" horiz-adv-x="1757" d="M39 1688h86v-9q-29 1 -86 9zM319 1645h87v-9h-7v-6q-14 0 -51 3t-29 3v9zM254 1636zM414 1636q35 0 35 -6q-12 2 -35 6zM463 1636h72v-6zM-18 1608q4 -18 8 -35h-8v35zM-98 1536q14 -16 14 -100h-6v14q-8 18 -8 86zM-18 1493q12 -29 0 -29v29zM1556 1235q-2 74 3 223 l12 144h-6q0 6 -29 6l-326 2q-37 0 -116.5 6t-118.5 6h-928q-14 -29 -18 -76q-2 -33 2 -90q2 -68 2 -86q0 -66 -2 -256q-2 -152 -2 -254q0 -154 -4 -186q-8 0 0 -29q2 -20 8 -57q-23 0 0 -58q-16 0 -13 -71q4 -63 13 -88q-8 0 -10 -13q0 -29 -3 -88q-8 -143 -2 -186 q-8 0 0 -8q0 -2 15 -21q2 0 43 21q0 4 2 4q20 0 18 -25h8q0 -8 41 -8q39 2 52 8q0 8 14 -14l51 6q10 0 41 -4t47 -4q35 0 49 16h15q-4 -10 -8 -22q35 0 101 7t101 5q92 -4 279 -12q76 0 194 4q158 4 195 4q59 -2 117 -2q88 0 105.5 15.5t17.5 142.5q-2 -254 -3 168h9 q0 8 4 -9q0 -2 2 -6h14v15q-6 0 -2 22l2 279q2 78 6 231q0 -16 0 209l13 72q-3 18 -5 57zM139 651q0 8 8 15h7q-1 -7 -15 -15zM1087 731q-2 -39 -4 -115q6 -39 -2 -112q-4 -6 -35.5 -10.5t-41.5 -14.5q-80 8 -318 8q-31 -4 -86 7q-8 0 -14 -23q-33 0 -41 80l-2 108 q-8 0 -8 -65h-15v8q-10 0 -10 21q0 59 25 94q-18 0 -25 67q-4 55 0 82q8 27 25 80v66h-7v6q-8 0 -8 -43q-12 0 -14 76v98q16 0 29 -14h8v43q0 18 96 24q109 6 119 10q111 -6 166 -28q0 6 -6 14q23 -2 71 -10q23 8 68 6l33 -25l-13 -57q-2 -92 -2 -94q0 -15 12 -287z M1528 1307v14h14q0 -8 -14 -14zM608 1184q86 0 86 -15h6v-6q-51 5 -92 21zM594 1141q29 -23 29 -37h-9v-6h-6v6h-8q-2 12 -6 37zM543 1126zM623 1032q6 -2 6 -10q2 -10 -6 -10v20zM506 961q6 -20 8 -35h6q-2 12 -14 35zM651 903zM528 860q12 -29 0 -29v29zM563 846 q8 -23 8 -80h-8q-4 51 0 80zM520 817q25 -20 8 -20v-9h-8v29zM528 774zM866 760h15q-13 -2 -15 0zM535 745zM1024 651q25 -20 8 -20v-8h-22v14q8 0 8 8zM506 588v-101h29q-2 25 -7 86q-14 9 -22 15zM1556 516q14 -12 15 -22h-6v14q-7 4 -9 8zM1571 399zM1565 342 q4 -29 6 -43h-6v14h-9q3 11 9 29zM1565 270q12 -41 6 -110q-6 -115 -6 -113h-9v14q-8 33 -2 103q5 53 11 106zM68 147zM168 70v-9h8v-6q6 6 6 15h-14zM233 70q14 -14 29 -15q-17 9 -29 15zM268 70q14 -14 31 -15q-17 9 -31 15zM18 61zM377 47zM420 55v-14q14 6 14 14h-14z M1161 27h344v-15q-18 0 -116 -4q-74 -2 -119 0q-66 5 -109 19zM1124 -31q37 0 37 -8h6v-6q-29 4 -43 14zM1262 -39q31 -6 237 -6q6 0 6 -8h8v-6q-219 0 -135 -2q-100 2 -116 22zM477 -102q23 -8 23 -15q-9 5 -23 15zM729 -111z" />
<glyph unicode="p" horiz-adv-x="1642" d="M70 1683h28v-14q-39 4 -39 6q3 4 11 8zM584 1669h71v-6q-24 2 -71 6zM-53 1612zM1489 1612q33 -14 33 -64q0 -8 -4 -8q-6 -16 -15 -51h-14q-6 80 0 123zM-31 1286zM1450 578q-6 90 2 174h-8v-15q-10 0 -6 35q4 23 8 43q4 158 2 395q-4 362 -4 387h-6q0 8 -29 9 q-61 0 -152 4q-119 8 -145 8q-74 -2 -217 0q-408 10 -522 6q-27 0 -105 4q-86 2 -127 2q-104 0 -137 -18v-6h-6q0 8 -23 20q-2 -57 -6 -123q12 0 21 37h14q-2 -47 -6 -137q4 -113 6 -334q0 -4 -6 -80q2 -23 5 -73t3 -78l-8 -86q0 -41 8 -170q4 -109 4 -170q-2 -82 -4 -246 q-4 -27 -6 -55q-4 -33 4 -54v-16h14v59h9q2 -16 6 -51h8q0 -8 131 -8q0 -12 -57 -12q-37 -2 -74 -2q0 -12 104 -15q100 -2 127 8h15v7h-66v14h268q0 84 -4 253t-4 255l103 -12q20 4 65 10q94 0 281 2q33 6 102 14q106 2 383 -8l8 137h15q-2 -43 -8 -137h14v8q8 1 6 15z M1024 1120q-2 -57 -20 -80q6 -18 14 -36q8 -41 -14 -86v-9q-16 0 -47 11.5t-48 11.5q-16 0 -28 -6q-49 0 -103 14q0 -10 -35 -10q-25 0 -102 6q-63 8 -72 4h-8q0 4 -27.5 -5t-37.5 -17h-7q0 20 -6 82.5t-6 95.5q0 84 35 110v8q4 0 -8 21q66 -41 160 -45q20 4 65 8 q43 4 152 -2q121 -8 133 -20.5t10 -55.5zM555 1186h29v-8q-11 2 -29 8zM961 1149h6q14 -20 14 -29h-6v-8h-8q-2 12 -6 37zM-25 1126q4 -25 9 -43h-9v43zM518 1098q23 -4 37 -6v-9q-2 0 -15.5 -10t-13.5 -4q-4 11 -8 29zM1538 1083q4 -29 -6 -28q0 8 6 8v20zM967 1055h14 q-12 -2 -14 0zM-16 1040zM518 1026q8 -2 23 -8h-9q-6 -6 -6 -14q-4 8 -8 22zM621 997h14q-12 -8 -14 -8v8zM-25 969q10 -29 0 -29v29zM-25 895q23 -72 0 -72v8h-6q0 6 6 7v57zM-53 874q10 -29 0 -28v28zM-31 795l-8 -43h-6q2 23 14 43zM1241 535l145 -9q10 2 29 9v-15 q-223 0 -229 4q14 -3 55 11zM621 440v-14v14zM881 375q16 -4 34 -8v-7q-11 3 -34 15zM1430 346q23 -10 22 -22h-8v-7h-6q-2 9 -8 29zM641 303h14q-6 -14 -14 -14v14zM829 229zM-45 201q14 -35 14 -160h-14v160zM678 195zM1083 195q16 -23 7 -23v-14h-21v8h-8v6zM1452 186z M707 143q6 -10 6 -8zM713 115h16q-8 -14 -16 -15v15zM547 86q6 -14 14 -45h-14v45zM504 72q2 -8 8 -23h6v-8h-14v31zM721 72h14q-6 -14 -14 -15v15zM1083 72q6 -10 7 -9q-3 3 -7 9zM186 41v-6q4 4 13 2q-1 4 -13 4zM-39 27zM-16 27h34v-7h-6q-14 -14 -14 -22q-8 8 -14 8v21z M338 27q35 0 35 -7q-10 3 -35 7zM381 27q37 0 37 -7q-12 3 -37 7zM-16 -88l491 -8v-6l-442 -2l-49 8v8zM518 -96h29v-6zM590 -96zM721 -96h14q-12 -2 -14 0z" />
<glyph unicode="q" horiz-adv-x="1726" d="M301 1731q63 0 187 -3.5t182 -3.5v-8h-15v-8q-37 12 -92 12q-25 0 -76 -3t-75 -3q-68 1 -111 17zM193 1688q20 -4 34 -9v-6q-37 2 -37 8q1 5 3 7zM250 1679q14 -2 43 -6v-8q-27 6 -43 14zM373 1673h28v-8q-8 2 -28 8zM193 1630q6 -8 6 -14q-14 6 -6 6v8zM250 1630l137 -8 v-6q-59 -4 -143 6h6v8zM1546 1571q6 -14 6 -41q0 -31 -12 -31v14q4 33 6 58zM1546 1470q10 -29 0 -28v28zM1546 1427q10 -29 0 -28v28zM1554 1325zM1554 1305zM481 1145zM541 1079h28q-6 -16 -14 -49h-8v6h-6v43zM575 1065q33 -14 29 -14v-15h-6v-6h-23q0 20 -6 21q2 6 6 14 zM641 1051l145 -7v-8q-39 0 -77 -2q-45 3 -68 17zM872 1051q29 0 29 -7h-6v-8q-15 11 -23 15zM952 1051h23v-15h-14q-3 7 -9 15zM584 1016q6 0 6 -8q2 -14 -6 -15v-14h-9q5 23 9 37zM995 942zM989 922q18 -23 6 -23v-6h-6v29zM618 899zM743 848q6 -8 7 -6q-5 4 -7 6z M684 733h14q-6 -14 -14 -14v14zM975 682h14q-8 -14 -14 -14v14zM1032 647q4 -20 8 -37h-8v37zM555 602q6 -2 8 -12q0 -8 -8 -8v20zM655 516h15q-20 -20 -21 -8q2 4 6 8zM1047 487q4 -29 14 -28v6q-2 10 -14 22zM1532 111q8 -16 8 -95h-8v95zM84 16h43v-6q-14 2 -43 6z M133 16h31v-6q-11 2 -31 6zM250 16h29v-6q-9 2 -29 6zM612 10h6q0 -8 9 -8q-8 -6 -15 -6v14zM1493 16q16 242 20 519q4 195 0 512q-2 412 -2 532h-8q0 8 -51 8q-72 0 -184 2q-145 4 -185 4q-31 4 -59 6q-37 2 -57 -6q-160 6 -478 15h-464q-2 -8 -7 -129q-16 -317 -16 -365 q0 -119 8 -351.5t8 -346.5q0 -358 -2 -207q2 -164 22.5 -175t78.5 -14q37 0 105.5 4.5t84.5 4.5q27 -2 422 -4v-9q-10 0 2 -55t49 -72q18 -8 129 -10h297q0 10 -8 10q0 23 -22.5 63t-20.5 62h170q135 2 168 2zM453 479q0 8 -7 15q0 8 5.5 14t7.5 12t4 88q2 63 18 82 q-4 31 -16 94q-18 252 10 346q25 -23 29 -122h6q0 117 0 116q25 0 76 -7t78 -7h94q63 2 94 2q121 0 137 4h6q-2 8 -6 8v6q14 -4 43 -14q6 0 0 -37q-4 0 -4 -2q0 -4 19 -18q-4 -16 -15 -51q0 -8 7.5 -21.5t9.5 -21.5q-2 -55 -9 -131l21 -109v-96q2 -57 14 -90 q-8 0 -19.5 -13.5t-13.5 -15.5q-16 -8 -47 -23v-8q-25 0 -77 66q-18 0 -31 -15h-6v-14q16 -4 65 -14v-15q-14 -4 -45 -12q-131 -2 -137 -2q-33 0 -108.5 7t-116.5 7q-47 0 -86 -8zM1409 2h29v-6zM1481 -4h30v-8q-10 2 -30 8zM743 -18v-9h7v-6q8 6 8 15h-15zM1235 -18z M1423 -41zM1606 -61zM25 -76l51 -8v-14q-33 6 -51 22zM90 -76q51 -23 51 -30q8 -6 9 -15q-6 4 -60 29v16zM612 -76q25 -16 29 -16v-6h-29v22zM199 -98l108 -8v-7h-14v-8q-33 5 -94 23z" />
<glyph unicode="r" horiz-adv-x="1624" d="M-84 1751h21q-7 -8 -21 0zM315 1745h58v-8q-19 4 -58 8zM475 1745q8 -2 29 -8v-6q-17 8 -29 14zM1470 1745q14 -10 15 -80h-15v6h-8zM518 1737h211v-6q-14 0 -72 -2q-45 -2 -71 -3q-39 3 -68 11zM743 1737q37 0 37 -6q-12 2 -37 6zM1382 1722h23q-11 -4 -23 0zM1280 1622 l131 -14v-9q-342 0 -559 7q-66 2 -66 6q12 10 177 4q225 -8 202 -8q16 8 57.5 4t57.5 10zM621 1614h114v-6q-40 -2 -114 6zM1462 1563q8 -25 8 -166h-8q-4 143 0 166zM1462 1389q8 -6 8 -15q-14 8 -8 8v7zM1462 1323v-94h-6q0 59 6 94zM1386 1581l-18 8q-47 0 -137 2h-248 q-123 0 -359.5 4t-353.5 4v9h305v6q-66 0 -198.5 4t-200.5 4v-8h-6l8 -4h35q-4 -8 -25 -13q-14 -2 -43 0q-37 2 -41 2h-102v-8q-8 0 -6 -28q4 -43 8 -312q6 -125 14 -379q-2 -170 0 -507q0 -2 13 -197q-20 0 -21 131q-8 0 -8 -14q0 -39 -2 -117l-8 -70q-2 -31 18 -67v-8h217 q59 -4 117 -9q82 -4 109.5 11.5t27.5 195.5q0 236 -20 311h6v15q14 0 41 -13.5t39 -15.5l90 12l33 -20q0 -4 30 6q0 -39 25 -88q23 -39 47 -78q10 -23 76 -155q16 -27 34.5 -58t14.5 -61q-10 -18 -31 -53h-14v-7q23 0 66 15q0 6 10 2t18 -8q43 -12 101 -13q37 0 98 6 q76 8 94 9q33 0 92 10q6 0 -2 20q-8 29 -10 31q-47 115 -150 330q-16 43 -63 121q-6 0 -6 8l51 12q41 4 180 2h66h8q0 18 6 259t6 390q0 344 -31 371zM915 950q-8 -6 -26 -18v-8h-15q-84 0 -102 -6q-33 -4 -102 -9q-96 -4 -66 -4q-43 0 -57 19h-6q-2 -6 -9 -23q-10 0 -24 10 q-20 10 -27 13q0 -6 -6 -15v9q-8 0 -8 14q0 121 -8 194l16 45q20 -8 49 -8q16 -2 52 -1t51 1q39 -2 116 -6q63 2 189 0q-1 -174 -17 -207zM555 1143h14q-8 -16 -14 -17v17zM627 1143q41 -6 65 -8v-9q-94 -8 -94 9q11 2 29 8zM541 1126q6 -6 6 -20q-6 0 -6 -8h-15v14q6 0 6 8 zM496 983q14 -18 14 -45h-14v8h-7q3 12 7 37zM838 983q8 -8 14 -8q0 -8 8 -8v-15h-29v15q5 10 7 16zM866 975q23 -10 23 -23zM532 967h9q0 -6 6 -6q-8 -8 -15 -9v15zM518 946q-8 -29 -8 -14q4 4 8 14zM2 633zM649 481q14 0 15 -8q6 0 6 -6q-7 4 -21 14zM1208 473zM541 444 q27 -4 43 -8v-6q-31 4 -43 14zM1208 444h29q0 -14 -6 -14v-14h-8v14q-7 6 -15 14zM678 430q23 -12 22 -29q-14 9 -22 29zM569 387h6q14 -33 15 -45h-21v45zM1237 387q10 -4 30.5 -17.5t35.5 -13.5v-6h-7v-8q-43 8 -59 45zM10 322zM743 313q16 -20 0 -20v20zM1280 299 q10 -2 25.5 -8t5.5 -6v-15q-14 0 -15 6q-10 15 -16 23zM541 285q14 -23 14 -37h-14v37zM1397 227h14q-6 -14 -14 -14v14zM541 219q4 -14 14 -43h-8v-8h-6v51zM766 190zM780 190q51 -12 51 -22h-16v-6q-6 0 -6 6q-11 8 -29 22zM16 154q4 -33 9 -58h6q-1 21 -15 58zM606 154 q18 -4 35 -7v-16q-43 6 -43 16h8v7zM541 147q14 -37 14 -65h-14v65zM1346 139q37 -4 36 -14h-6v-8q-16 0 -16 8zM1382 59q29 -8 29 -22h-6v-6h-8v6q-9 14 -15 22zM496 51q14 -18 14 -35h-14v35zM621 45q8 -23 0 -22q0 8 -9 8q5 8 9 14zM584 37q-8 -29 -9 -14q7 10 9 14zM2 8 h29v-14q-8 2 -29 8v6zM45 8q356 0 451 -6v-14l-123 6q-86 0 -174 -2q-131 2 -154 16zM590 8zM991 2q35 0 35 -8q-12 2 -35 8z" />
<glyph unicode="s" horiz-adv-x="1708" d="M51 1755h266v-6q2 0 -88 2q-63 2 -102 -2q-51 -4 -70 -20q-4 -2 -12 -9v6h-8v9q8 0 10 8t4 12zM659 1726q18 -4 29 -6v-8q-11 6 -29 14zM1255 1720q100 -8 119 -8q41 4 80 6q49 2 78 -8q18 -8 18 -27q-113 14 -295 15q0 8 -6 8q4 8 6 14zM135 1675zM184 1675zM541 1597z M563 1604q47 -16 64 -5zM688 1604q12 -2 14 -7zM793 1597zM836 1597zM864 1604q6 2 17 0h-17zM961 1604q20 -8 34 -5q-5 -7 -34 5zM1102 1597zM1296 1589zM1536 1569q6 -8 6 -15q-14 6 -6 7v8zM485 1163q76 -6 99 -6v-22h-15h-49q-23 1 -35 28zM653 1120q29 -4 29 -14 q-13 6 -29 14zM709 1120h71v-8q-26 0 -71 8zM598 1049q12 0 12 -9q8 -6 0 -6v-8q-4 9 -12 23zM639 1049h20q-8 -4 -20 0zM1473 1049h20q-10 -4 -20 0zM514 1020h96v-8h8v-15q-41 2 -104 15v8zM743 991q20 -25 56 -24q14 0 20 6zM1444 969q18 -14 29 -15q-15 9 -29 15z M16 614q330 -20 351 -20v-8q-162 6 -189 6q-35 -2 -72 -6q-41 -2 -67 6q-13 4 -23 22zM995 543q49 -4 49 -23q8 0 9 -6h-9v-8q-12 0 -12 8q-25 15 -37 29zM1556 500zM190 485h15q-20 -20 -21 -8q2 2 6 8zM115 477q0 -4 -9 -10q-6 -6 -6 4h15v6zM23 471h71v-8h-14 q-34 -6 -57 8zM1550 463q4 -14 13 -43h-7v-6h-6v49zM219 428zM1571 369v-78h-8zM571 1180q47 -4 97 -6q180 2 544 -5q4 0 86 -6q61 -4 103 -4q66 0 92 12q8 0 8 35q0 14 4 101.5t4 140.5q0 125 -22 141q0 10 20 29q-10 -2 -28 -6h-377q25 0 -203 6q2 0 -98 -4q-57 -2 -92 12 q-41 -16 -125 -12q-59 2 -70 -2q-45 2 -133 6q-43 2 -107 -2q-80 -4 -104 -4q-14 0 -35 -6l307 -2q41 0 41 -5h-10l-309 -2q-43 0 -119 -8q-2 -12 -18 -114q0 -137 -2 -189q-4 -61 -11 -180q-4 -303 -4 -289q0 2 2 -80q4 -49 -2 -80q6 0 20.5 -8t20.5 -10q47 -2 139 -6h183 q70 -4 211 -12q492 16 532 -21q-8 0 -6 -6v-2q12 -113 -16 -143v-7q-8 0 -26.5 6.5t-29.5 6.5q-47 -4 -139 -9q-51 4 -100 9q-72 6 -97 -6l-133 -3q-61 -10 -59 -10q-6 0 -10 13q-10 -2 -29 -7q-20 2 -55 7q-27 -4 -70 -9l-156 9v-7h-12q0 -8 12 -10q20 -4 23 -4 q-12 -4 -35 -8q-70 0 -84 -6h-57q0 4 14 28q-18 0 -26 -28q-2 -2 -2 -103v-288h1464l-2 542l6 64q2 74 4 217q2 106 -2 115q0 16 -35 14q-31 -4 -41 -14h-28q-49 0 -132 10q-94 12 -129 14q-121 2 -356 14q-90 8 -92 0q0 -4 51 -8v-14q-6 0 -69 6q-49 6 -64 0 q-90 0 -114.5 28.5t-18.5 123.5h-23q0 18 35 32.5t94 12.5zM23 16q29 -14 28 -28h-6v6h-8q-4 2 -14 22zM520 16zM569 16h148v-8q-54 -2 -148 8zM856 16h49v-8zM911 16h93v-8q-32 0 -93 8zM121 -72q20 0 20 -6q-6 2 -20 6zM45 -86z" />
<glyph unicode="t" horiz-adv-x="1601" d="M-84 1786h53v-14q-18 2 -53 14zM-16 1786h98v-14q-27 0 -53.5 2t-44.5 12zM119 1786h31v-8q-11 4 -31 8zM178 1786h76v-8zM-45 1726h6v-8l-10 -6q-4 -2 -4 6zM0 1726l66 -8v-6q-23 0 -66 14zM104 1726h232q102 -2 307 -8v-6q-100 -2 -301 -4q-23 0 -66 -12q-8 4 -14 0 q0 4 -2 8h8q-23 8 -57 10q-25 2 -68 0q-49 -2 -61 -2q-8 0 -8 6q10 2 30 8zM680 1718zM686 1718h84v-6q-29 0 -84 6zM784 1712h15v-8h8v-8q-33 8 -23 8v8zM1464 1712q16 -14 17 -31h-17v31zM0 1696h104v-6q-84 -8 -104 6zM897 1696h209q37 -6 59 -10q25 -2 72 4t72 6v-6h-9 v-9q-43 2 -116 -2q-86 -4 -119 -4q-100 1 -168 21zM494 1681q20 0 86 -4q55 -4 86 -4v-6l-183 2q3 4 11 12zM672 1673h53v-6q-18 2 -53 6zM14 1636h127v-8h-127v8zM1442 1636zM-45 1606l6 -74h-6q-4 54 0 74zM1470 1591q-18 18 -71 19q49 0 -84 -4q-117 -4 -350 -11 q-135 8 -166 -4q-78 0 -234.5 7.5t-236.5 7.5q-104 0 -119 -7q-59 0 -180 7q-10 -6 -23 -15q-8 0 -8 -37l2 -380h6q2 8 8 28v17h23q0 -41 123 -48q-39 2 168 3q0 -14 -54.5 -15.5t-58.5 -11.5q4 0 45 -4l127 4q2 0 33 8q18 4 33 2q12 -8 32 -22h9q0 -6 10 0q10 4 18 8v-8 q6 0 6 -9q0 -6 -20 -57q6 -57 4 -68q-4 -33 2 -95t2 -93q-2 -100 -8 -305q-6 -78 -14 -234l28 17q0 -29 6.5 -99.5t6.5 -105.5q0 -37 -5 -66v-14q-8 0 -36 14v9q-14 0 5 -18.5t480 -18.5q-4 27 -6 82q4 184 6 561q-4 57 -5 170t-9 330h14q0 -12 16 -15q33 -6 86 -2 q43 4 87 6t141 4q88 4 108 -6q6 -8 19 -24v-8l45 -7q0 4 -31 23h-8q0 6 8 6v23q10 -2 31 -7h6q0 12 4 111.5t4 163.5q0 163 -25 188zM889 852q8 -6 22 -23q-12 0 -22 23zM1053 1518q-8 0 -6 22q2 -6 6 -16v-6zM119 1112q6 -23 -8 -22q6 14 8 22zM373 1112h37v-6h-7v-8 q-16 8 -30 14zM-23 1098zM1315 1098h59v-8q-18 4 -59 8zM1010 1069q14 -39 14 -121h-8v15q-12 30 -6 106zM1098 1069h8q14 -23 14 -31q-14 0 -14 9q-18 14 -8 14v8zM1346 1038q37 0 36 -8q-1 0 -36 8zM-31 971q14 -16 15 -31h-7v-6h-8v37zM1024 784q12 -31 0 -30v30z M1464 762q16 -16 17 -37h-8v6q-3 11 -9 31zM1024 725q12 -31 0 -31v31zM1032 686q4 -29 6 -45h-6v45zM0 477q8 -23 10 -51q2 -20 0 -55q-4 -43 -4 -58h-6v164zM494 260q14 -16 14 -90h-14v90zM14 186zM500 156q6 -14 8 -66q2 -53 -8 -53v-8h-6q-4 33 -7 65q1 39 13 62z" />
<glyph unicode="u" horiz-adv-x="1689" d="M1114 1763h8q25 -14 152 -14q16 12 63 16q33 2 90 0l76 -2v-28q-16 2 -49 6v-6q-6 -8 -82 -9q-55 0 -217 7q-137 6 -164 4q-41 -4 -41 4q2 8 15 14q41 -2 120 -6q10 2 29 6v8zM172 1735q14 -8 14 0h15q-23 -20 -49 -21q-8 0 -9 6h7v6q8 3 22 9zM1014 1712zM438 1706h8 q0 -8 7 -8q-8 -6 -15 -6v14zM1065 1706h272v-14q-153 -21 -272 14zM524 1698h29v-6q-9 2 -29 6zM86 1626h100v-6l-114 -14q0 6 6 6q0 8 8 8v6zM193 1626h45v-6zM1174 1606l135 -9q23 8 96 2q78 -4 88 -18q2 -4 6 -14q4 -23 0 -58q-6 -49 -6 -55q-6 -213 -6 -209 q0 -35 3 -105.5t3 -103.5q0 -41 -3 -120.5t-3 -114.5q2 -133 -2 -400q-2 -18 -10 -329q0 -37 -7 -37v-6q-37 4 -231 6q-72 2 -381 -4q-27 -2 -72 2q-51 2 -71 2q-59 0 -164 -2q-113 -4 -168 -4h-318q-29 0 -28 6h-6q-6 188 6 1059v295q0 139 12 170.5t86 33.5q-41 0 105 -2 q70 -2 206 -2q31 0 31 -14h6q-16 -57 -12 -164q2 -117 -6 -166q-4 -23 -10 -22q8 -18 6 -56l-2 -59q2 -80 -4 -533q-2 -66 0 -65v-14q4 0 100 -2q31 -6 94 -13q70 4 209 6q27 -2 78 -6l51 -14q0 23 8 22q-4 109 8 312q14 213 15 315q0 18 3 51t3 50q2 88 0 208 q0 14 -10.5 54.5t-10.5 60.5t9 37q6 8 73 14q77 7 91 15zM756 1589q14 -16 14 -28h-14v28zM956 1583h9q14 -20 14 -29q-23 -18 -23 -43h-6zM496 1575q2 -6 8 -21h-8v-8h-7v15h-8q5 6 15 14zM510 1546zM956 1475q2 -14 9 -43h-9v43zM920 1116zM913 1065q4 -29 7 -43h-7v43z M920 1014zM913 999zM489 698q14 -16 15 -28h-15v28zM813 610h14q-12 -6 -14 -6v6zM567 582h15q8 -14 0 -15v-14h-15v29zM496 575q2 -12 4 -27.5t10 -15.5v-8q-29 0 -29 8h-6q0 20 6 21q5 8 15 22zM43 14h63v-8q-20 2 -63 8zM1440 6q29 -4 28 -14h-8q-12 8 -20 14z" />
<glyph unicode="v" horiz-adv-x="1679" d="M-141 1753h51q0 -31 -8 -31v-6q-8 2 -28.5 12.5t-23.5 10.5q5 8 9 14zM-16 1753h161v-8q-61 -6 -104 -6v-17h16h148q16 6 45 4q43 -2 49 -2q2 0 96 7l250 -7q45 -2 45 -8h-8v-8q-39 6 -221 -10q-131 2 -125 2q-51 0 -174 -10q-111 -10 -178 -11v9h6zM1153 1753 q152 0 391 -10q14 -4 15 -12q-57 8 -203 6q-131 -2 -203 16zM1448 1694q8 -2 51 -2q37 -2 37 -4h8v-15q-102 2 -102 15h6v6zM20 1593l103 -8v-6h-88v-8h6v-6q57 2 113 4q88 6 88 16h-82q25 12 92 10q61 -2 94 -10q51 6 119 -4q2 0 2 -2q12 -18 12 -66q0 -27 -5 -79t-5 -66 l-2 -405q-8 -20 -23 -62q-2 -47 -4 -78q8 2 29 8l-14 -79q35 -12 83 -86t67.5 -74t19.5 -8q-12 -14 0 -15q8 -6 59 -77q39 -53 80 -52q8 0 12 10.5t10 10.5q14 16 125 131q78 80 111 141q8 10 14 10q-14 29 -8 29q25 37 45 37l-22 33q-8 23 -2 59q8 55 8 62q-4 61 -4 188 l24 145l-6 195l-12 88q29 6 28 14q66 -8 175 -6q178 6 180 6q37 0 37 -8h6q27 -203 31 -475q0 43 0 -475q-27 -8 -66 -62q-29 -41 -57 -79q-98 -113 -301 -342q-29 -37 -97 -101q-6 -4 -47 -4v-6l-8 -31h-338q16 0 -72 -4q-47 -2 -66.5 7.5t-72.5 80.5q-16 23 -233 359 q-12 20 -86 112q-53 70 -74 121q-12 29 -10 86q4 43 6 88q2 39 12 377q0 4 -2 21.5t-2 25.5q2 10 10 10q-14 45 -6 45q4 33 2 129q-2 82 12 125zM262 1579zM307 1585q-2 0 -6 -2q4 4 6 2zM985 1585q6 -10 6 -65h-6v65zM1051 1579zM1022 1571zM838 1556q12 -29 0 -28v28z M918 1542l8 -57h-8v57zM616 1120q14 -23 15 -35h-15v35zM625 926zM551 866zM1014 852zM1014 838q8 -2 22 -7v-14h-8v-8h-14v29zM977 809h29v-6h-7v-17q-14 0 -15 6.5t-7 16.5zM815 709zM807 592q4 -10 -5 -23.5t-9 -19.5h-7zM756 541q8 -2 8 -37h-8v37zM6 518zM631 498v-15 q14 6 14 15h-14zM-10 475zM1493 438zM1374 403zM1499 184q31 -4 31 -14q-15 6 -31 14zM233 98q14 -16 15 -43h-15q-2 8 -8 29q4 4 8 14zM461 55q12 -14 22 -14q-6 4 -22 14zM367 47q29 -27 28 -43h-59v6h8v8q7 11 23 29zM881 41zM1022 41zM12 25q23 -8 23 -21h-8v-8h-21v8 h-8v14q4 3 14 7zM12 -61q23 0 23 -9h6v-6q-53 6 -29 6v9z" />
<glyph unicode="w" horiz-adv-x="2220" d="M1896 1778q47 -4 76 -9v-6q-51 3 -76 15zM-4 1763q23 0 22 -8q-8 -8 -14 -8q-2 2 -8 16zM33 1763q8 -10 8 -8zM92 1763h45v-8q-33 0 -45 8zM145 1763h45v-8q-16 2 -45 8zM1964 1741q20 -14 21 -21q0 -2 -5 -2q-16 -16 -30 -16v16q4 7 14 23zM377 1733h43v-9h-14z M451 1733h73v-9zM541 1733h28v-9zM608 1733h29v-9zM719 1733h31v-9zM2077 1733q29 -4 28 -15q-14 7 -28 15zM272 1724h97v-6q-34 -2 -97 6zM1913 1659l59 -8q0 -8 8 -9v-6h-8v-8q-104 4 -104 14q14 5 45 17zM2077 1659q23 -20 22 -31h-8v-8h-14v39zM242 1651l209 -15v-8 h-365v8h6zM750 1642q74 0 73 -14q-26 2 -73 14zM614 1614h15l8 -105h-23v105zM682 1614h23q-6 -2 -13 -2q-6 0 -10 2zM809 1614q29 -8 29 -23h-7q-27 -14 -36 -14v14q4 7 14 23zM1151 1614q23 -20 23 -45h-7v-8q-16 8 -16 16q-14 0 -14 6q4 11 14 31zM1382 1614h54 q0 -16 -9 -17q-14 -23 -14 -28q-37 37 -31 37v8zM2077 1614q23 -10 22 -27q0 -10 -11 -31.5t-11 -31.5h-15q1 35 15 90zM2062 1493q14 -18 15 -29h-15v29zM2068 1337zM987 1292h17q-23 -20 -23 -6zM1450 1264zM958 1210h82v-14q-76 -2 -75 -8q-14 8 -15 14q2 4 8 8z M928 1120h30v-6zM950 1092q59 -2 60 -15h14v-8q-35 4 -41 4q-21 5 -33 19zM877 1077h14q-8 -16 -14 -16v16zM1368 1024q4 -20 8 -37h-8v37zM600 979zM1360 928q16 -14 16 -31h-8v8q-2 7 -8 23zM-35 883q12 -31 0 -31v31zM608 852q20 -12 21 -47q0 -27 -21 -27v-8h-8 q-6 53 8 82zM-41 807q14 -14 14 -43h-8q-2 14 -6 43zM-27 764q8 -27 4 -115q-4 -94 -18 -94v6q6 33 5 100.5t9 102.5zM637 764zM1436 621q4 -29 14 -29q-8 17 -14 29zM-27 547q8 -25 11 -62q2 -25 0 -67q-2 -51 -2 -66h-17v8h-6q0 23 4 86q2 53 2 86h-6q4 5 14 15z M1980 1577v14q-8 0 -8 -30h-8q0 29 -37 45q-25 10 -237 8q-215 0 -224 -12q0 -2 -2 -13l23 -266q-4 -41 -6 -121q-2 -68 -4 -82q-4 -45 -19 -73q0 -12 -4 67.5t-4 110.5q-8 0 -8 -43q0 -33 2 -164q2 -29 6 -68l-12 -104q4 -20 20 -90v-8q-8 0 -16 16h-6v-113q-8 0 -9 8h-8 q0 -8 -14 -16l-94 123q-63 117 -148 248q-27 41 -28 43q-20 27 -39 28q-8 -2 -21 -4q6 -2 17 -4q0 -10 -54 -18q-59 -8 -65 -12q-59 0 -90 8q-76 -123 -238 -359q-16 -25 -53 -67q-10 0 -14 -37q-16 0 -37 37q-2 0 -9 2q2 18 19.5 57t17.5 64q0 16 -6 34l-16 -67 q-12 0 -8 82q6 109 2 409q-6 258 14 410h-522q-20 -55 -21 -137q0 -47 10.5 -142.5t10.5 -138.5v-909q2 -8 10 -29q2 -4 5 -7t7 -9l-22 -66q-4 -18 0 -149q51 0 119 -17q86 -23 112 -26q33 -4 86 4q61 8 86 8q111 0 134.5 8t60.5 76q25 45 49 92q82 119 256 354v7 q10 0 27 -33q31 -57 184 -305q29 -47 57 -95q33 -53 70 -83q23 -18 110 -19q43 0 312 25q35 -4 104 -6l113 16v8q6 0 8 23l10 297q29 201 25 284q-2 66 -10 195q4 41 10 127v237q0 90 -2 179q2 104 26 165q10 0 0 23zM883 547l22 -23q-12 0 -22 23zM1927 666q0 8 8 16h7 q-1 -8 -15 -16zM1927 1196v14h15q-1 -8 -15 -14zM1950 352q12 -31 6 -84q-6 -88 -6 -86h-8q0 55 8 170zM-18 346zM-35 324q6 -12 10 -35q6 -25 -2 -25v-8h-14q4 39 6 68zM936 293h14q-12 -2 -14 0zM-35 152q16 -16 17 -105h-9zM1853 121v-82h7v8q14 6 10 37q-5 31 -17 37z M1942 121q16 -25 16 -53q0 -12 -8 -13v-8h-15zM2032 121q12 -29 0 -29v29zM920 61q31 -10 30 -28h-8v-8h-14v8q-2 10 -8 28zM1309 33v-8h-9q14 -4 35 -5q25 0 25 13h-51zM1399 33q16 -16 65 -17q-82 2 76 2q12 4 12 7q1 8 -153 8zM1628 25zM123 18h29q-6 -8 -15 -8 q-4 2 -14 8zM1413 -49h60v-8q-21 2 -60 8zM1481 -49h43v-8q-14 2 -43 8zM1614 -49h164v-8q-58 -2 -164 8zM182 -117q31 -8 164 -8v-6h-172q-14 0 -14 6q8 4 22 8zM391 -117h15q-13 -2 -15 0zM383 -125z" />
<glyph unicode="x" horiz-adv-x="1753" d="M1419 1638q41 -2 41 -14zM1487 1638q27 -6 26 -20h-26v20zM160 1624q41 -6 188 -6q37 0 113 -3t114 -3v-6q-428 -14 -507 -15q-53 0 -54 6q33 4 101 15q31 8 45 12zM664 1571q6 -2 6 -11.5t6 -9.5q-6 -6 -6 -12h-6v33zM1548 1559q6 -18 6 -82h-14q0 62 8 82zM831 1518 q12 -14 13 -33h-6q-3 10 -7 33zM958 1384q4 -20 7 -34h-7v34zM965 1343zM944 1223q6 -2 6 -27zM805 1157h12q-10 -4 -12 0zM817 1075h14q-8 -12 -14 -12v12zM817 1063zM1505 518l-360 223q2 14 20.5 29.5t36.5 28.5q70 72 221 207q27 23 82 63q12 18 13 88q0 43 -6.5 122 t-6.5 93q2 14 8 45v168l-79 -10q-27 4 -68 8q-10 0 -86 2h-88q-72 0 -86 -6h-94v-8q-10 0 0 -21q12 -29 18 -149q6 -123 -4 -156q-4 -10 -47 -57q-18 -29 -59 -80q-47 -25 -123 -98q-16 0 -33 18q0 2 -41 35q-16 18 -49 57q-41 27 -92 84q-10 29 -11 101q0 27 2 81v82 q0 80 -13 95.5t-105 17.5q-115 2 -119 4q-27 -6 -141 -6h-189q0 -8 -6 -8v-6h6q0 -6 27 0v-6q14 0 0 -41q0 -6 7 -21.5t7 -26.5q-2 -35 -6 -106q0 -25 2 -61q6 -47 6 -60q0 -47 2 -141v-60q0 -35 10 -55q6 -10 82 -55q66 -43 197 -125q37 -31 115 -80q-2 -8 -6 -20 q-31 0 -43 -7q-10 -16 -39 -45q-14 -10 -62 -41l-59 -57q-61 -43 -99 -72q-72 -57 -79 -82q-4 -16 0 -36q6 -29 6 -35v-158q2 -102 20 -143q0 -10 33 -13q367 -16 399 11q12 8 19 123q6 131 8 139q4 23 22.5 43t34.5 39q4 0 13 6v-12q6 0 8 6q10 29 45 69q49 55 55 64 q33 0 33 20q16 0 119.5 -88t115.5 -108q4 -12 -2 -31q0 -2 14.5 -19.5t14.5 -27.5q0 -2 6 -74q-4 -18 -8 -41q0 -18 3 -57t5 -55h6q0 -8 41 -9h422l12 88v148q0 10 5.5 72.5t5.5 97.5q-1 78 -19 96zM723 981l-21 41q25 -14 35 -41h-14zM1501 928q12 -12 12 -27h-12v27z M53 868q55 -41 80 -41v-6q-12 0 -33.5 3t-31.5 3q-9 23 -15 41zM1487 862q27 -6 26 -14q-14 6 -26 14zM1434 834h26v-13q-47 6 -26 6v7zM80 795h26q0 -14 -6 -15q-10 -12 -20 -12v6h14v6h-14v15zM1280 774h6q6 -6 14 -6v-14q-14 0 -14 8h-14q0 6 8 6v6zM1481 741 q33 -4 32 -14q-9 4 -32 14zM336 727q18 0 18 -6zM1419 707h8q12 -23 13 -33q-39 12 -39 20q6 0 8 4.5t10 8.5zM53 700l68 -6v-6l-68 -20v32zM1493 653h8q20 -29 21 -39q-14 -8 -15 -20h-14v6q-18 37 0 53zM141 627q-2 -6 -8 -21h-12v15q6 2 20 6zM80 621h8q0 -6 6 -7 q-27 -20 -41 -20v12q17 9 27 15zM100 606q20 0 21 -6q-14 0 -15 -6q-12 6 -6 6v6zM80 594h14q-27 -18 -26 -8h12v8zM80 553h14q2 -4 11.5 -8t9.5 -13q-41 -37 -41 -47h-6q0 45 12 68zM121 553h12q-6 -12 -12 -12v12zM737 485h27v-6h-6q-20 -23 -21 -33h-20v13h6q4 10 14 26z M629 338zM743 311zM1567 293q14 -23 14 -115h-6v15q-8 14 -8 100zM20 205q20 -55 21 -189h-21q-6 42 0 189zM1575 152q12 -31 12 -136h-6q-16 89 -6 136zM1534 125q4 -12 6 -51q2 -43 -6 -43v-6h-6zM623 98zM676 72l8 -47h-8v6h-6q2 14 6 41zM1245 10h27v-6zM1266 -2 q20 0 20 -8q-8 -6 -14 -6q-2 4 -6 14zM1374 -10q43 -4 74 -6v-7q-14 0 -48 3.5t-26 3.5v6zM1540 -10q20 -4 35 -6v-7q-12 3 -35 13zM1139 -16h88v-7q-31 1 -88 7zM455 -23h47v-6q-14 2 -47 6zM94 -143h924v-7h-643q-16 0 -92 -4q-66 -2 -105 0q-55 3 -84 11zM1024 -143h88 v-7q-31 -1 -88 7z" />
<glyph unicode="y" horiz-adv-x="1826" d="M492 1638h43v-8q-14 4 -43 8zM43 1630l57 -6v-8q-39 4 -57 14zM608 1630h49v-6q-4 0 -49 6zM166 1616h65v-6zM274 1616h9q0 -6 6 -6q-6 -8 -15 -8v14zM43 1581l137 -6q10 -4 31 -10q33 -8 96 -2q10 2 10 10h15v-6q29 4 61 4q29 0 85.5 -6t86.5 -6l-2 -209q0 -16 -5 -53 t-5 -58q0 -31 10 -51q25 -49 152 -135q96 -66 102 -66v8l43 17q4 2 20.5 21.5t24.5 19.5q12 -4 21 -9q25 20 69 62l70 68l27 36q16 16 30 17l-16 186q-12 133 -14 129q2 20 16 25q25 8 137 6h203q33 4 68 6q41 2 67 -4q0 -4 2 -8q10 -27 10 -68q0 -25 -5 -71t-5 -64 q-2 -45 4 -133t6 -129q0 -55 -6 -101q-2 -16 -25.5 -46.5t-23.5 -32.5h-6q2 8 6 22h-6l-199 -143q-66 -51 -205 -150q-49 -33 -53 -33q0 -8 -6 -8q-10 8 -18 8q-18 0 -28.5 -32.5t-8.5 -75.5q4 -37 8 -72q-4 -82 -4 -248q2 -31 6 -63q2 -41 -8 -61q-14 -33 -70 -33 q-27 6 -49 14t-84 8q-23 0 -75 -2t-76 -2q-94 0 -109 21q-6 6 -6 90q0 23 8 22q4 -20 8 -37q2 8 8 123q6 133 7 312q0 43 7 45l21 6v6q-104 76 -321 205q-12 6 -13 12q-29 -14 -28 -14v8q-14 14 -108.5 75.5t-108.5 61.5q12 59 12 141q0 43 -6 140q-4 88 -2 133q4 59 10 180 zM983 1573q16 -16 16 -29h-30v8h8v15zM1028 1573q20 0 21 -6zM1679 1573q10 -27 11 -62q0 -29 -9.5 -84t-9.5 -77h-6q14 233 14 223zM897 1567v-45h-6q2 16 6 45zM608 1559q31 -14 29 -15q-8 -6 -8 -14h-6v-8h-15v37zM811 1559q2 0 6 -3q-4 3 -6 3zM737 1552q33 -14 15 -14 q12 -45 0 -45v-6h-15v65zM623 1341q10 -29 0 -28v28zM629 1298zM911 1298q2 -14 9 -43h-9v43zM983 1298zM991 1247zM623 1212q4 -20 6 -36h-6v36zM694 1147q14 -10 15 -23h-7v15zM731 1139h21v-15h-15zM874 1110q16 -16 17 -29h-8v-8h-15q0 16 6 17v20zM737 1081 q23 -10 23 -22h-8q0 8 -4.5 10t-10.5 12zM1577 944h14q-27 -37 -43 -37v8q8 0 8 7zM1657 930q8 -20 4 -53q-4 -55 -4 -56h-8q0 86 8 109zM29 893q8 -8 8 -6zM1571 879h20q0 -14 -6 -15v-14h-22v14q2 5 8 15zM145 850q20 -16 21 -43h-6v6h-8q-3 12 -7 37zM274 836h9 q0 -8 6 -9q-6 -6 -15 -6v15zM297 821q20 -8 20 -14q-10 6 -20 14zM317 807q14 0 15 -8q8 0 8 -6q-9 4 -23 14zM166 778q-8 14 0 15v-15zM1397 741zM174 727q14 -16 14 -37h-22q2 12 8 37zM72 690q14 -23 14 -35h-6v-8h-8v43zM449 690q29 -10 28 -20h-6q-8 6 -22 20z M1397 690q6 -29 -8 -28q2 10 8 28zM1346 647q8 -2 8 -12t-8 -10v22zM1360 610zM1085 604h15q-13 -4 -15 0zM1071 590h14q-8 -14 -14 -15v15zM225 547q6 -10 6 -8q-2 2 -6 8zM1092 547zM174 532h14q-6 -16 -14 -16v16zM1354 516q6 -6 6 -14q-14 8 -6 8v6zM1085 510 q14 -23 15 -43h-8q-3 14 -7 43zM332 496q16 -23 0 -23v-6h-15q6 20 15 20v9zM1317 496h6q-2 -8 -6 -17q-8 -8 -8 2q4 5 8 15zM1100 459zM188 444q29 -4 29 -14q-14 -16 -14 -29h-15v7h-8q2 11 8 36zM1309 430h14q-10 -2 -14 0zM1317 387h14q6 -14 0 -14v-15h-22v15q4 4 8 14 zM0 358h14q6 -23 0 -22v-14h-6q-2 3 -8 36zM115 330h16q-23 -23 -22 -8q2 2 6 8zM1374 299h15q-12 -20 -21 -20v-9h-8q6 23 14 23v6zM1339 279q2 -37 -36 -37v8h6v6q18 15 30 23zM0 270q35 -14 35 -92q0 -66 -35 -65v14q16 63 0 143zM1288 242q14 -6 15 -15h-15 q-8 -6 -14 -6v6h6q0 8 8 9v6zM1368 213h21q-6 -14 -15 -14q-25 -29 -43 -29q12 14 37 43zM1223 190zM1665 176zM311 170h15q-6 -14 -15 -14v14zM332 156zM1671 156q8 -20 8 -103h-8v15q-6 20 0 88zM1294 141q8 -8 9 -14q-14 6 -9 6v8zM1556 141h21q-6 -14 -14 -14 q-14 -33 -15 -37q8 0 8 8h21q-4 -45 -14 -45q-14 6 -29 10q-4 2 -6 10.5t-8 8.5v8h-15q-20 -43 -65 -43v14q53 21 116 80zM1214 98h17v-8q6 -8 0 -8q-16 -14 -17 -21q-6 0 -6 7h-8v8q8 0 10 8t4 14zM1128 82q14 -12 15 -29h-29v15q8 0 8 8zM1368 68q-16 -20 -22 -21v6 q8 0 8 8q4 3 14 7zM549 39l108 -6v-8q-41 -2 -114 8h6v6zM1171 39zM1317 39h14q-23 -20 -22 -6q4 2 8 6zM1425 39h23v-14h-16zM1491 39h14q-8 -14 -14 -14v14zM1520 39h51v-14q-33 4 -51 14zM1266 -76l39 -2q27 0 26 -6h8v-6q2 0 -55 -2q-41 -2 -41 4q5 4 23 12zM1360 -76 h51v-14q-18 2 -51 14zM1448 -76h115v-8h-15q-71 -17 -100 8zM535 -84h145v-6q-51 -4 -145 6zM1114 -84h72v-6z" />
<glyph unicode="z" horiz-adv-x="1773" d="M106 1780h115v-8q-101 0 -115 8zM1522 1741h28v-6h-8v-15h-6q-8 8 -8 15zM1444 1690l106 -9v-6q-41 -2 -114 6h8v9zM86 1083l64 -22v-8h-101v14h8q8 2 29 8v8zM647 1075q29 0 29 -8h-8v-6q-7 4 -21 14zM207 1067h6v-6h8v-8q-43 0 -43 8q9 2 29 6zM299 1067zM43 1038h29 v-8q-11 2 -29 8zM696 1016q12 -6 23 -8h-8v-9q-20 -6 -21 -14h-14v8h6zM1550 985q4 -4 0 -12q-8 -10 -8 -19h-14q8 11 22 31zM199 909q23 0 22 -6q-8 2 -22 6zM1571 903h14q-20 -23 -20 -8q2 2 6 8zM532 813zM92 686h29q-8 -8 -15 -8q-20 -10 -20 0h6v8zM63 670h15 q-13 -2 -15 0zM803 551h14q-10 -8 -14 -8v8zM831 535h29q-8 -6 -15 -7.5t-28 -7.5q6 8 14 8v7zM1587 1442q10 33 17 98q-4 35 -23 55q-4 2 -6 4q-25 12 -66 17q-29 2 -77 2q-68 -4 -74 -4l-604 -2q-16 0 -72 4q-49 2 -76 0q-41 -2 -65 -17q-53 4 -158 13q-100 -8 -297 2 q-14 -8 -37 -33q-23 -55 -14 -379q4 -86 0 -96v-16q18 0 62 7t67 7q43 -2 127 -6h612v-23q-53 0 -115 -59q-6 0 9 -17q-23 0 -52 -28q-39 0 -69 -45q-14 2 -37 6v-23q-23 -8 -70 -30q-74 -43 -223 -129q-92 -47 -272 -146q-12 -6 -39 -39v-8q10 4 28 8v-14q-10 0 -15 -15.5 t-9 -150.5q0 -10 -10 -375h391v-6h-29q0 -8 27 -10h37q47 -6 133 6q111 16 137 16q88 2 264 7q154 0 307 2q254 4 269 22q20 27 22 236q-2 -168 -2 268h-57v-8q-12 0 -12 -8q0 -14 -101 -19q-111 -6 -121 -10q-8 0 -75 2q-59 2 -93 0q-49 -2 -67 -10q-381 0 -197 4 q-121 -2 -180 -33v6h-14q0 25 22 53q0 8 13.5 10.5t25.5 4.5q20 18 62 49q109 63 327 186q131 70 260 140q205 115 219 157q2 74 2 82q0 14 -2 203zM86 573v-8h-14v8l446 263q-4 -25 -201 -136q-163 -94 -231 -127zM1102 819v17h14q0 -9 -14 -17zM1614 49zM1130 4h50v-8 q-17 2 -50 8zM1245 4zM1358 -4h149v-14q-51 0 -149 14zM78 -12h8v-6h6v-9h-35v9zM662 -12h43v-6zM903 -41zM35 -63h51v-17q-18 3 -51 17zM92 -63h49v-17q-31 7 -49 17z" />
<glyph unicode="{" d="M1647 1409v-37h-13q5 25 13 37zM1634 1526q0 -41 -5 -41t-13 -4v4l2 26q2 18 10 19q2 0 6 -4zM1628 1450v-55h-4v6h-4q0 16 8 49zM1624 1575q-16 -2 -27 -4v4h27zM1612 995q-2 -6 -6 -243q0 -14 -4.5 -41t-4.5 -39h-8q0 49 3 146t3 145q4 29 6.5 28.5t10.5 3.5zM1606 334 v-96q-2 -70 -4 -95q0 -4 -5 -4v-4h-8l4 31q-10 12 -10 31q0 12 6 35.5t6 29.5q3 25 11 72zM1593 1571zM1593 1518q-10 -18 -18 -19q-20 23 -80 23v4q41 12 64 12q31 0 30 -20h4zM1544 1638q-18 -6 -18 0h18zM1526 1481zM1522 1634zM1507 -35h-41v-10q18 -6 19 -12h10 q6 10 12 22zM1473 1526q-14 -4 -109 -4v4h4v4q78 6 105 -4zM1473 1481zM1454 -35h-10q4 -10 10 -10v10zM1440 -41q-6 2 -19.5 3t-21.5 3q-4 -6 -4 -10h-4v-4q35 -2 49 8zM1364 -31q4 -2 -59 -4q-55 0 -170 -6v-12q49 -8 49 4q8 -2 135 -6l45 -8v32zM1354 1638q-6 -4 -68 -4 q-2 0 -80 -4l-76 4v4h224zM1341 1526q-14 -4 -98 -4v4q49 4 98 0zM1124 -41q-51 16 -80 12l-32 -12v-4h6q18 -10 55 -12q41 0 51 16zM1004 -41q-45 10 -46 0h-4v-8h13q25 -4 37 8zM944 -41l-57 4l-27 4l-55 -6q-29 4 -74 -4q0 -4 31 -8t31 -12q10 6 34 12l33 -8q8 0 33 5 t39 3q8 -2 9 1zM846 1004zM702 1499q-10 -10 -22 -10v10h22zM698 -41q-18 6 -18 0h-4v-8q12 0 22 8zM455 1616q-14 -2 -23 -4v4h23zM432 1620q-25 -2 -41 -4v4h41zM203 1450h-10q6 -10 10 -10v10zM188 1450q-57 0 -57 -4q49 0 57 4zM121 1530zM72 969q-2 -14 -9 -41h5v-4 q4 8 4 45zM27 -4q-2 -27 -7.5 -28t-15.5 -3v4h-4v4q2 2 10 37q8 29 8 23q-5 -25 9 -37zM27 -63q-4 -16 -13 -17v17h13zM23 1427v-32h-5q-8 37 -4 37q0 4 4 4q3 -3 5 -9z" />
<glyph unicode="|" horiz-adv-x="1163" d="M160 1077q0 -23 -2 -49h-2q0 16 4 49zM158 1010v6v-6zM158 1008l-2 -13h-2q0 5 4 13zM156 971q-2 -8 -4 -17l-5 2zM125 679v0v0zM123 672q0 -6 -1 -8t-5 -2q2 4 6 10zM117 541v-9v9zM117 516q-4 -12 -8 -12q2 4 8 12zM88 580q0 -4 -4 -13h-2q2 3 6 13zM152 1376 q20 -4 57 -33q29 -23 55 -43q53 -33 154 -100q51 -39 55 -39v-4q-4 2 -10 4v-4h4q18 -18 39 -18v6q6 0 8 -2t8 -4v-4q-8 -4 -4 -5q0 -2 6 -8q35 -23 103 -69q31 -18 30.5 -20.5t4.5 -2.5q-2 4 -25 23q-10 6 -10 10q51 -27 49 -27v-6q-4 2 -12 4q16 -41 57 -41q2 -10 10 -18 q23 -14 68 -43q53 -35 82 -55q18 -12 20 -13q-6 -6 -6 -10q14 -6 37 -18v-7q-4 0 -55 -20q-10 -4 -22.5 -8t-80.5 -33l-37 -23q-53 -23 -157 -63q-78 -29 -88 -27q-14 2 -91 176l-100 232q-20 39 -59 117q-8 16 -41 92q-16 34 -49 104zM197 1169q45 -94 143 -280 q20 -53 66 -156q12 -25 24 -49q20 -37 19 -47q-2 -6 -9 -10l-299 -144q-2 55 2 71.5t6.5 49.5t8.5 94q4 12 10 35l16 133v64q6 117 6 92l-2 14q4 0 5 11h-3q0 -2 0 8q2 12 5 18l-5 25q1 26 7 71zM197 1128q0 -18 2 -18q0 6 -2 18zM543 1122h6q-4 -6 -6 -6v6zM549 1116 q2 -2 12 -4v-2q-6 2 -12 6zM193 1106q0 -14 4 -14q-2 6 -4 14zM580 1098q25 -12 24 -19q-18 7 -24 19zM604 1079q20 -10 17 -10v-2q-6 0 -7 2zM676 1030l26 -14v-6h-2q-8 6 -24 20zM784 1018h4q0 -2 3 -2q-2 -4 -7 -4v6zM731 985q43 -12 43 -27q-27 9 -43 27zM784 975h7 q-2 -4 -7 -4v4zM803 965h4q0 -4 2 -4q-2 -2 -6 -3v7zM821 952h4q0 -4 2 -4q-2 -2 -6 -2v6zM883 909h2q0 -4 4 -4q-4 -2 -6 -2v6zM889 903l2 -4q-2 2 -2 4zM909 891l41 -25v-2q-6 0 -6 2q-23 11 -35 25zM856 885q0 -2 2 -2v-4q2 4 0 4t-2 2zM901 860q2 -4 2 -2zM920 860h2 q0 -2 4 -2q-4 -4 -6 -4v6zM1085 852h5q-6 -10 -39 -25.5t-43 -15.5v4h2v2q28 8 75 35zM1071 831q12 -2 12 -6q6 -14 -10 -118q-14 -82 -22 -179q-6 -35 -7 -34v-2h-6q0 6 2 6l-2 14h-4q0 -10 -10 -27.5t-35 -29.5q-41 -18 -41 -21q-31 -18 -92 -59q-10 -8 -37 -19 q-27 -4 -76 27q-31 18 -30 47q0 -6 -2 -12q-8 -29 -44 -48.5t-75 -19.5t-82 29q-18 12 -21 12q-4 12 -10 39h-6v-6q-6 -16 -29 -43l-45 -27q-45 -14 -82 0q-78 31 -77 80q0 2 -2 6q-2 -4 -5.5 -12t-15.5 -27q-29 -35 -61 -34q-14 0 -31 8q-25 10 -25 18q-4 4 0 4 q6 8 102.5 54.5t104.5 46.5q0 2 2 2l35 14l84 39q20 10 64 25l12 -3v5q-2 6 28 20q88 39 267 113q6 0 18 -2q-6 16 0 16v-2q0 -2 6 -4q0 4 -4 4q16 25 150 70q8 4 8 6l18 -6v4q37 7 76 32zM170 829l2 -28h-2v28zM997 811q10 0 11 -2h-4v-4h-13q2 4 6 4v2zM979 801 q-6 -10 -2 -10v4q8 0 8 2q-2 2 -6 4zM164 770v-55h-4q0 39 4 55zM883 758q0 -6 2 -6v2q0 2 -2 4zM852 745v-4q-8 -2 -8 -6h2v4h12zM834 733zM1067 690v-12h4q-2 4 -4 12zM1061 653l1 -3q1 -3 -1 3zM1055 625q-4 -41 0 -41q2 37 0 41zM1049 582l-7 -50h5zM1010 399zM475 387 h6q-4 -2 -6 0zM727 369q10 -2 10 -7zM731 338q8 -2 12 -2v-4q-6 4 -12 6z" />
<glyph unicode="}" d="M1647 1409v-37h-13q5 25 13 37zM1634 1526q0 -41 -5 -41t-13 -4v4l2 26q2 18 10 19q2 0 6 -4zM1628 1450v-55h-4v6h-4q0 16 8 49zM1624 1575q-16 -2 -27 -4v4h27zM1612 995q-2 -6 -6 -243q0 -14 -4.5 -41t-4.5 -39h-8q0 49 3 146t3 145q4 29 6.5 28.5t10.5 3.5zM1606 334 v-96q-2 -70 -4 -95q0 -4 -5 -4v-4h-8l4 31q-10 12 -10 31q0 12 6 35.5t6 29.5q3 25 11 72zM1593 1571zM1593 1518q-10 -18 -18 -19q-20 23 -80 23v4q41 12 64 12q31 0 30 -20h4zM1544 1638q-18 -6 -18 0h18zM1526 1481zM1522 1634zM1507 -35h-41v-10q18 -6 19 -12h10 q6 10 12 22zM1473 1526q-14 -4 -109 -4v4h4v4q78 6 105 -4zM1473 1481zM1454 -35h-10q4 -10 10 -10v10zM1440 -41q-6 2 -19.5 3t-21.5 3q-4 -6 -4 -10h-4v-4q35 -2 49 8zM1364 -31q4 -2 -59 -4q-55 0 -170 -6v-12q49 -8 49 4q8 -2 135 -6l45 -8v32zM1354 1638q-6 -4 -68 -4 q-2 0 -80 -4l-76 4v4h224zM1341 1526q-14 -4 -98 -4v4q49 4 98 0zM1124 -41q-51 16 -80 12l-32 -12v-4h6q18 -10 55 -12q41 0 51 16zM1004 -41q-45 10 -46 0h-4v-8h13q25 -4 37 8zM944 -41l-57 4l-27 4l-55 -6q-29 4 -74 -4q0 -4 31 -8t31 -12q10 6 34 12l33 -8q8 0 33 5 t39 3q8 -2 9 1zM846 1004zM702 1499q-10 -10 -22 -10v10h22zM698 -41q-18 6 -18 0h-4v-8q12 0 22 8zM455 1616q-14 -2 -23 -4v4h23zM432 1620q-25 -2 -41 -4v4h41zM203 1450h-10q6 -10 10 -10v10zM188 1450q-57 0 -57 -4q49 0 57 4zM121 1530zM72 969q-2 -14 -9 -41h5v-4 q4 8 4 45zM27 -4q-2 -27 -7.5 -28t-15.5 -3v4h-4v4q2 2 10 37q8 29 8 23q-5 -25 9 -37zM27 -63q-4 -16 -13 -17v17h13zM23 1427v-32h-5q-8 37 -4 37q0 4 4 4q3 -3 5 -9z" />
<glyph unicode="~" horiz-adv-x="1163" d="M160 1077q0 -23 -2 -49h-2q0 16 4 49zM158 1010v6v-6zM158 1008l-2 -13h-2q0 5 4 13zM156 971q-2 -8 -4 -17l-5 2zM125 679v0v0zM123 672q0 -6 -1 -8t-5 -2q2 4 6 10zM117 541v-9v9zM117 516q-4 -12 -8 -12q2 4 8 12zM88 580q0 -4 -4 -13h-2q2 3 6 13zM152 1376 q20 -4 57 -33q29 -23 55 -43q53 -33 154 -100q51 -39 55 -39v-4q-4 2 -10 4v-4h4q18 -18 39 -18v6q6 0 8 -2t8 -4v-4q-8 -4 -4 -5q0 -2 6 -8q35 -23 103 -69q31 -18 30.5 -20.5t4.5 -2.5q-2 4 -25 23q-10 6 -10 10q51 -27 49 -27v-6q-4 2 -12 4q16 -41 57 -41q2 -10 10 -18 q23 -14 68 -43q53 -35 82 -55q18 -12 20 -13q-6 -6 -6 -10q14 -6 37 -18v-7q-4 0 -55 -20q-10 -4 -22.5 -8t-80.5 -33l-37 -23q-53 -23 -157 -63q-78 -29 -88 -27q-14 2 -91 176l-100 232q-20 39 -59 117q-8 16 -41 92q-16 34 -49 104zM197 1169q45 -94 143 -280 q20 -53 66 -156q12 -25 24 -49q20 -37 19 -47q-2 -6 -9 -10l-299 -144q-2 55 2 71.5t6.5 49.5t8.5 94q4 12 10 35l16 133v64q6 117 6 92l-2 14q4 0 5 11h-3q0 -2 0 8q2 12 5 18l-5 25q1 26 7 71zM197 1128q0 -18 2 -18q0 6 -2 18zM543 1122h6q-4 -6 -6 -6v6zM549 1116 q2 -2 12 -4v-2q-6 2 -12 6zM193 1106q0 -14 4 -14q-2 6 -4 14zM580 1098q25 -12 24 -19q-18 7 -24 19zM604 1079q20 -10 17 -10v-2q-6 0 -7 2zM676 1030l26 -14v-6h-2q-8 6 -24 20zM784 1018h4q0 -2 3 -2q-2 -4 -7 -4v6zM731 985q43 -12 43 -27q-27 9 -43 27zM784 975h7 q-2 -4 -7 -4v4zM803 965h4q0 -4 2 -4q-2 -2 -6 -3v7zM821 952h4q0 -4 2 -4q-2 -2 -6 -2v6zM883 909h2q0 -4 4 -4q-4 -2 -6 -2v6zM889 903l2 -4q-2 2 -2 4zM909 891l41 -25v-2q-6 0 -6 2q-23 11 -35 25zM856 885q0 -2 2 -2v-4q2 4 0 4t-2 2zM901 860q2 -4 2 -2zM920 860h2 q0 -2 4 -2q-4 -4 -6 -4v6zM1085 852h5q-6 -10 -39 -25.5t-43 -15.5v4h2v2q28 8 75 35zM1071 831q12 -2 12 -6q6 -14 -10 -118q-14 -82 -22 -179q-6 -35 -7 -34v-2h-6q0 6 2 6l-2 14h-4q0 -10 -10 -27.5t-35 -29.5q-41 -18 -41 -21q-31 -18 -92 -59q-10 -8 -37 -19 q-27 -4 -76 27q-31 18 -30 47q0 -6 -2 -12q-8 -29 -44 -48.5t-75 -19.5t-82 29q-18 12 -21 12q-4 12 -10 39h-6v-6q-6 -16 -29 -43l-45 -27q-45 -14 -82 0q-78 31 -77 80q0 2 -2 6q-2 -4 -5.5 -12t-15.5 -27q-29 -35 -61 -34q-14 0 -31 8q-25 10 -25 18q-4 4 0 4 q6 8 102.5 54.5t104.5 46.5q0 2 2 2l35 14l84 39q20 10 64 25l12 -3v5q-2 6 28 20q88 39 267 113q6 0 18 -2q-6 16 0 16v-2q0 -2 6 -4q0 4 -4 4q16 25 150 70q8 4 8 6l18 -6v4q37 7 76 32zM170 829l2 -28h-2v28zM997 811q10 0 11 -2h-4v-4h-13q2 4 6 4v2zM979 801 q-6 -10 -2 -10v4q8 0 8 2q-2 2 -6 4zM164 770v-55h-4q0 39 4 55zM883 758q0 -6 2 -6v2q0 2 -2 4zM852 745v-4q-8 -2 -8 -6h2v4h12zM834 733zM1067 690v-12h4q-2 4 -4 12zM1061 653l1 -3q1 -3 -1 3zM1055 625q-4 -41 0 -41q2 37 0 41zM1049 582l-7 -50h5zM1010 399zM475 387 h6q-4 -2 -6 0zM727 369q10 -2 10 -7zM731 338q8 -2 12 -2v-4q-6 4 -12 6z" />
<glyph unicode="&#xa0;" d="M1647 1409v-37h-13q5 25 13 37zM1634 1526q0 -41 -5 -41t-13 -4v4l2 26q2 18 10 19q2 0 6 -4zM1628 1450v-55h-4v6h-4q0 16 8 49zM1624 1575q-16 -2 -27 -4v4h27zM1612 995q-2 -6 -6 -243q0 -14 -4.5 -41t-4.5 -39h-8q0 49 3 146t3 145q4 29 6.5 28.5t10.5 3.5zM1606 334 v-96q-2 -70 -4 -95q0 -4 -5 -4v-4h-8l4 31q-10 12 -10 31q0 12 6 35.5t6 29.5q3 25 11 72zM1593 1571zM1593 1518q-10 -18 -18 -19q-20 23 -80 23v4q41 12 64 12q31 0 30 -20h4zM1544 1638q-18 -6 -18 0h18zM1526 1481zM1522 1634zM1507 -35h-41v-10q18 -6 19 -12h10 q6 10 12 22zM1473 1526q-14 -4 -109 -4v4h4v4q78 6 105 -4zM1473 1481zM1454 -35h-10q4 -10 10 -10v10zM1440 -41q-6 2 -19.5 3t-21.5 3q-4 -6 -4 -10h-4v-4q35 -2 49 8zM1364 -31q4 -2 -59 -4q-55 0 -170 -6v-12q49 -8 49 4q8 -2 135 -6l45 -8v32zM1354 1638q-6 -4 -68 -4 q-2 0 -80 -4l-76 4v4h224zM1341 1526q-14 -4 -98 -4v4q49 4 98 0zM1124 -41q-51 16 -80 12l-32 -12v-4h6q18 -10 55 -12q41 0 51 16zM1004 -41q-45 10 -46 0h-4v-8h13q25 -4 37 8zM944 -41l-57 4l-27 4l-55 -6q-29 4 -74 -4q0 -4 31 -8t31 -12q10 6 34 12l33 -8q8 0 33 5 t39 3q8 -2 9 1zM846 1004zM702 1499q-10 -10 -22 -10v10h22zM698 -41q-18 6 -18 0h-4v-8q12 0 22 8zM455 1616q-14 -2 -23 -4v4h23zM432 1620q-25 -2 -41 -4v4h41zM203 1450h-10q6 -10 10 -10v10zM188 1450q-57 0 -57 -4q49 0 57 4zM121 1530zM72 969q-2 -14 -9 -41h5v-4 q4 8 4 45zM27 -4q-2 -27 -7.5 -28t-15.5 -3v4h-4v4q2 2 10 37q8 29 8 23q-5 -25 9 -37zM27 -63q-4 -16 -13 -17v17h13zM23 1427v-32h-5q-8 37 -4 37q0 4 4 4q3 -3 5 -9z" />
<glyph unicode="&#xa1;" d="M1647 1409v-37h-13q5 25 13 37zM1634 1526q0 -41 -5 -41t-13 -4v4l2 26q2 18 10 19q2 0 6 -4zM1628 1450v-55h-4v6h-4q0 16 8 49zM1624 1575q-16 -2 -27 -4v4h27zM1612 995q-2 -6 -6 -243q0 -14 -4.5 -41t-4.5 -39h-8q0 49 3 146t3 145q4 29 6.5 28.5t10.5 3.5zM1606 334 v-96q-2 -70 -4 -95q0 -4 -5 -4v-4h-8l4 31q-10 12 -10 31q0 12 6 35.5t6 29.5q3 25 11 72zM1593 1571zM1593 1518q-10 -18 -18 -19q-20 23 -80 23v4q41 12 64 12q31 0 30 -20h4zM1544 1638q-18 -6 -18 0h18zM1526 1481zM1522 1634zM1507 -35h-41v-10q18 -6 19 -12h10 q6 10 12 22zM1473 1526q-14 -4 -109 -4v4h4v4q78 6 105 -4zM1473 1481zM1454 -35h-10q4 -10 10 -10v10zM1440 -41q-6 2 -19.5 3t-21.5 3q-4 -6 -4 -10h-4v-4q35 -2 49 8zM1364 -31q4 -2 -59 -4q-55 0 -170 -6v-12q49 -8 49 4q8 -2 135 -6l45 -8v32zM1354 1638q-6 -4 -68 -4 q-2 0 -80 -4l-76 4v4h224zM1341 1526q-14 -4 -98 -4v4q49 4 98 0zM1124 -41q-51 16 -80 12l-32 -12v-4h6q18 -10 55 -12q41 0 51 16zM1004 -41q-45 10 -46 0h-4v-8h13q25 -4 37 8zM944 -41l-57 4l-27 4l-55 -6q-29 4 -74 -4q0 -4 31 -8t31 -12q10 6 34 12l33 -8q8 0 33 5 t39 3q8 -2 9 1zM846 1004zM702 1499q-10 -10 -22 -10v10h22zM698 -41q-18 6 -18 0h-4v-8q12 0 22 8zM455 1616q-14 -2 -23 -4v4h23zM432 1620q-25 -2 -41 -4v4h41zM203 1450h-10q6 -10 10 -10v10zM188 1450q-57 0 -57 -4q49 0 57 4zM121 1530zM72 969q-2 -14 -9 -41h5v-4 q4 8 4 45zM27 -4q-2 -27 -7.5 -28t-15.5 -3v4h-4v4q2 2 10 37q8 29 8 23q-5 -25 9 -37zM27 -63q-4 -16 -13 -17v17h13zM23 1427v-32h-5q-8 37 -4 37q0 4 4 4q3 -3 5 -9z" />
<glyph unicode="&#xa2;" d="M1647 1409v-37h-13q5 25 13 37zM1634 1526q0 -41 -5 -41t-13 -4v4l2 26q2 18 10 19q2 0 6 -4zM1628 1450v-55h-4v6h-4q0 16 8 49zM1624 1575q-16 -2 -27 -4v4h27zM1612 995q-2 -6 -6 -243q0 -14 -4.5 -41t-4.5 -39h-8q0 49 3 146t3 145q4 29 6.5 28.5t10.5 3.5zM1606 334 v-96q-2 -70 -4 -95q0 -4 -5 -4v-4h-8l4 31q-10 12 -10 31q0 12 6 35.5t6 29.5q3 25 11 72zM1593 1571zM1593 1518q-10 -18 -18 -19q-20 23 -80 23v4q41 12 64 12q31 0 30 -20h4zM1544 1638q-18 -6 -18 0h18zM1526 1481zM1522 1634zM1507 -35h-41v-10q18 -6 19 -12h10 q6 10 12 22zM1473 1526q-14 -4 -109 -4v4h4v4q78 6 105 -4zM1473 1481zM1454 -35h-10q4 -10 10 -10v10zM1440 -41q-6 2 -19.5 3t-21.5 3q-4 -6 -4 -10h-4v-4q35 -2 49 8zM1364 -31q4 -2 -59 -4q-55 0 -170 -6v-12q49 -8 49 4q8 -2 135 -6l45 -8v32zM1354 1638q-6 -4 -68 -4 q-2 0 -80 -4l-76 4v4h224zM1341 1526q-14 -4 -98 -4v4q49 4 98 0zM1124 -41q-51 16 -80 12l-32 -12v-4h6q18 -10 55 -12q41 0 51 16zM1004 -41q-45 10 -46 0h-4v-8h13q25 -4 37 8zM944 -41l-57 4l-27 4l-55 -6q-29 4 -74 -4q0 -4 31 -8t31 -12q10 6 34 12l33 -8q8 0 33 5 t39 3q8 -2 9 1zM846 1004zM702 1499q-10 -10 -22 -10v10h22zM698 -41q-18 6 -18 0h-4v-8q12 0 22 8zM455 1616q-14 -2 -23 -4v4h23zM432 1620q-25 -2 -41 -4v4h41zM203 1450h-10q6 -10 10 -10v10zM188 1450q-57 0 -57 -4q49 0 57 4zM121 1530zM72 969q-2 -14 -9 -41h5v-4 q4 8 4 45zM27 -4q-2 -27 -7.5 -28t-15.5 -3v4h-4v4q2 2 10 37q8 29 8 23q-5 -25 9 -37zM27 -63q-4 -16 -13 -17v17h13zM23 1427v-32h-5q-8 37 -4 37q0 4 4 4q3 -3 5 -9z" />
<glyph unicode="&#xa3;" d="M1647 1409v-37h-13q5 25 13 37zM1634 1526q0 -41 -5 -41t-13 -4v4l2 26q2 18 10 19q2 0 6 -4zM1628 1450v-55h-4v6h-4q0 16 8 49zM1624 1575q-16 -2 -27 -4v4h27zM1612 995q-2 -6 -6 -243q0 -14 -4.5 -41t-4.5 -39h-8q0 49 3 146t3 145q4 29 6.5 28.5t10.5 3.5zM1606 334 v-96q-2 -70 -4 -95q0 -4 -5 -4v-4h-8l4 31q-10 12 -10 31q0 12 6 35.5t6 29.5q3 25 11 72zM1593 1571zM1593 1518q-10 -18 -18 -19q-20 23 -80 23v4q41 12 64 12q31 0 30 -20h4zM1544 1638q-18 -6 -18 0h18zM1526 1481zM1522 1634zM1507 -35h-41v-10q18 -6 19 -12h10 q6 10 12 22zM1473 1526q-14 -4 -109 -4v4h4v4q78 6 105 -4zM1473 1481zM1454 -35h-10q4 -10 10 -10v10zM1440 -41q-6 2 -19.5 3t-21.5 3q-4 -6 -4 -10h-4v-4q35 -2 49 8zM1364 -31q4 -2 -59 -4q-55 0 -170 -6v-12q49 -8 49 4q8 -2 135 -6l45 -8v32zM1354 1638q-6 -4 -68 -4 q-2 0 -80 -4l-76 4v4h224zM1341 1526q-14 -4 -98 -4v4q49 4 98 0zM1124 -41q-51 16 -80 12l-32 -12v-4h6q18 -10 55 -12q41 0 51 16zM1004 -41q-45 10 -46 0h-4v-8h13q25 -4 37 8zM944 -41l-57 4l-27 4l-55 -6q-29 4 -74 -4q0 -4 31 -8t31 -12q10 6 34 12l33 -8q8 0 33 5 t39 3q8 -2 9 1zM846 1004zM702 1499q-10 -10 -22 -10v10h22zM698 -41q-18 6 -18 0h-4v-8q12 0 22 8zM455 1616q-14 -2 -23 -4v4h23zM432 1620q-25 -2 -41 -4v4h41zM203 1450h-10q6 -10 10 -10v10zM188 1450q-57 0 -57 -4q49 0 57 4zM121 1530zM72 969q-2 -14 -9 -41h5v-4 q4 8 4 45zM27 -4q-2 -27 -7.5 -28t-15.5 -3v4h-4v4q2 2 10 37q8 29 8 23q-5 -25 9 -37zM27 -63q-4 -16 -13 -17v17h13zM23 1427v-32h-5q-8 37 -4 37q0 4 4 4q3 -3 5 -9z" />
<glyph unicode="&#xa4;" d="M1647 1409v-37h-13q5 25 13 37zM1634 1526q0 -41 -5 -41t-13 -4v4l2 26q2 18 10 19q2 0 6 -4zM1628 1450v-55h-4v6h-4q0 16 8 49zM1624 1575q-16 -2 -27 -4v4h27zM1612 995q-2 -6 -6 -243q0 -14 -4.5 -41t-4.5 -39h-8q0 49 3 146t3 145q4 29 6.5 28.5t10.5 3.5zM1606 334 v-96q-2 -70 -4 -95q0 -4 -5 -4v-4h-8l4 31q-10 12 -10 31q0 12 6 35.5t6 29.5q3 25 11 72zM1593 1571zM1593 1518q-10 -18 -18 -19q-20 23 -80 23v4q41 12 64 12q31 0 30 -20h4zM1544 1638q-18 -6 -18 0h18zM1526 1481zM1522 1634zM1507 -35h-41v-10q18 -6 19 -12h10 q6 10 12 22zM1473 1526q-14 -4 -109 -4v4h4v4q78 6 105 -4zM1473 1481zM1454 -35h-10q4 -10 10 -10v10zM1440 -41q-6 2 -19.5 3t-21.5 3q-4 -6 -4 -10h-4v-4q35 -2 49 8zM1364 -31q4 -2 -59 -4q-55 0 -170 -6v-12q49 -8 49 4q8 -2 135 -6l45 -8v32zM1354 1638q-6 -4 -68 -4 q-2 0 -80 -4l-76 4v4h224zM1341 1526q-14 -4 -98 -4v4q49 4 98 0zM1124 -41q-51 16 -80 12l-32 -12v-4h6q18 -10 55 -12q41 0 51 16zM1004 -41q-45 10 -46 0h-4v-8h13q25 -4 37 8zM944 -41l-57 4l-27 4l-55 -6q-29 4 -74 -4q0 -4 31 -8t31 -12q10 6 34 12l33 -8q8 0 33 5 t39 3q8 -2 9 1zM846 1004zM702 1499q-10 -10 -22 -10v10h22zM698 -41q-18 6 -18 0h-4v-8q12 0 22 8zM455 1616q-14 -2 -23 -4v4h23zM432 1620q-25 -2 -41 -4v4h41zM203 1450h-10q6 -10 10 -10v10zM188 1450q-57 0 -57 -4q49 0 57 4zM121 1530zM72 969q-2 -14 -9 -41h5v-4 q4 8 4 45zM27 -4q-2 -27 -7.5 -28t-15.5 -3v4h-4v4q2 2 10 37q8 29 8 23q-5 -25 9 -37zM27 -63q-4 -16 -13 -17v17h13zM23 1427v-32h-5q-8 37 -4 37q0 4 4 4q3 -3 5 -9z" />
</font>
</defs>
</svg>
